<svg xmlns="http://www.w3.org/2000/svg" viewBox="0 0 110.85 21.94"><defs><style>.cls-1{fill:#111010;stroke:#111010;stroke-miterlimit:10;stroke-width:0.25px;}</style></defs><title>create-g</title><g id="レイヤー_2" data-name="レイヤー 2"><g id="レイヤー_2-2" data-name="レイヤー 2"><path class="cls-1" d="M6.71,13.38A13.24,13.24,0,0,0,6,10.89a7.25,7.25,0,0,0-2.27-.35l-2.35.26L1,10.61.87,10l3.77-.16,1,.16.1-.63L5.11,7C3.74,7,2.37,7,1,7L.4,6.67.17,6.11.52,6a17.06,17.06,0,0,0,3.19.28c.42,0,.73,0,.93,0L5.18,6l.12-.21-.12-.51A1.44,1.44,0,0,1,5.6,4.1l.61.56V5.1l-.09.8a13.17,13.17,0,0,1,4.5.63v.33L9.89,7a6,6,0,0,0-2.2-.25L6.28,7l-.16.66.61,2.25,2.13.19.61-.19.92.28v.33q-2,.33-3.33.45l-.1.7a17.16,17.16,0,0,0,1.39,4.05l-.61.12A7.34,7.34,0,0,1,6.71,13.38ZM10.29,1.92l.45-.22.47.38a2.59,2.59,0,0,0,0,.44,4.64,4.64,0,0,0,.49,2l-.53.23A10.12,10.12,0,0,1,10.29,1.92Zm3.12,2.53A19.12,19.12,0,0,1,12.87,1l.52-.18a2.53,2.53,0,0,1,.42,1.43l-.07.42.16,2.25Z"/><path class="cls-1" d="M20,13.54a17.28,17.28,0,0,0-1-2.74l-.73,0-.94.49-.58-.21v-.56l.47-.52,1.47-.39V9a3.43,3.43,0,0,1-.33-1.5l.5-.07a8.57,8.57,0,0,1,1,2.25c.64.07,1.33.12,2.08.14l.26-.14.31.11a7,7,0,0,0,2.69-.68l.49.78-.16.4-.33.42-.68.26a1.33,1.33,0,0,1-.61.91l-.07.28-1,.68-.47.42-.19-.37.1-.38,1.45-1.87c-1.56.06-2.72.09-3.47.09l-.18.61.7,2.46a13.87,13.87,0,0,0,1,2.51l-.59.21A11.94,11.94,0,0,1,20,13.54Z"/><path class="cls-1" d="M28.76,5.41l-.42-.71.7-.07a16.17,16.17,0,0,0,3.26.52c.2,0,.48,0,.84,0a12.69,12.69,0,0,0,2.7-.28l.35.54-.07.4L33.38,6l-.31-.09L31.69,6A10.44,10.44,0,0,1,28.76,5.41Zm3,10.59v-.4a3.39,3.39,0,0,0,2.15-1.43l.26-.18,1.36-1.88a4.45,4.45,0,0,0,.82-2c-1.3-.14-2.3-.23-3-.26a15.84,15.84,0,0,1-2.28.21c-.75,0-1.5.12-2.27.21l-.42-.86A44.31,44.31,0,0,1,33,9.18c.88,0,1.75,0,2.63.07l1.24-.16.35.63a11.83,11.83,0,0,1-.82,2.48,7.89,7.89,0,0,1-1.5,2.18l-.19.17-1.19,1.31-1.22.68Z"/><path class="cls-1" d="M41.58,11.55a5,5,0,0,1-.35-1.81,4.17,4.17,0,0,1,0-.44q0-.41,0-1.2c0-.53,0-.93,0-1.19a1.47,1.47,0,0,0,.21-.71l0-.25-.09-.35.37-.22.38.29.09,1A25.71,25.71,0,0,0,42,9.6c0,.47,0,.82,0,1.06v1.1Zm.66,4.85a9.22,9.22,0,0,0,2.48-1.64A9.49,9.49,0,0,0,46,11a21.15,21.15,0,0,0,.29-3.42l0-.87-.19-2.51L46.5,4a.64.64,0,0,1,.35.73l-.07.35.17.75v4.22a21.52,21.52,0,0,1-.54,3.07,7.56,7.56,0,0,1-1.36,2.7,4,4,0,0,1-2.51,1.05Z"/><path class="cls-1" d="M51.45,10.7l-.1-.39a1.34,1.34,0,0,1,1-.38Q56,9.6,60,9.6c1.26,0,2.54,0,3.82.07l.09.61-.47-.07-.09.26a30.07,30.07,0,0,1-3.52.21,30.28,30.28,0,0,1-3.54-.21,11.06,11.06,0,0,1-2.13.28A16.44,16.44,0,0,0,52,11Z"/><path class="cls-1" d="M69.47,16.1q-.09-3.65-.19-7.29h-.51l-.19.61-.51.23-.31.61-.61.61-1.22.4-.07.3-.42.1-.21-.4a27.55,27.55,0,0,0,2.38-2,11.93,11.93,0,0,0,2-2.4,9.87,9.87,0,0,0,1.8-3.73l.71-.3.11.73A24.85,24.85,0,0,1,70,7.77,1.84,1.84,0,0,1,70.17,9a40.52,40.52,0,0,0,0,5.83l-.07.31.07.72Zm11.2,5.55-.18-1q.09-1.36.24-2.64a12.8,12.8,0,0,0,0-2.71l-.1-.51a3.55,3.55,0,0,0,.4-2.16,26.91,26.91,0,0,1,.43-7.1l-1.25-.3-1.19.11-.28-.11-1,.42a8.07,8.07,0,0,1-1.13,2.06L76,7.77l-.18-.49a18.07,18.07,0,0,0,1.64-3.06A21.49,21.49,0,0,0,78.54,1l.31-.1.32.64a10,10,0,0,0-.63,2.86l1,.11,2-.11a9,9,0,0,0,2.81.42l2.22-.21.12.42a2.26,2.26,0,0,1-1.33.19l-3.12.42A15.21,15.21,0,0,1,81.59,10a15.13,15.13,0,0,0,4,.71v.61l-1.4.09a8,8,0,0,0-2.53-.16L81.5,12l.28,1-.19,1.24.3.43a14.73,14.73,0,0,0,3.75.49l.5-.12a2.27,2.27,0,0,1-1.72.75A11.33,11.33,0,0,0,82,15.37l-.63.51-.1,1.46.31.79a3.46,3.46,0,0,0-.4,1.67l.19,1Z"/><path class="cls-1" d="M91.5,18.74l-.79-.63V17.6l1.1.42a6.46,6.46,0,0,0,1.06-3.11,15.59,15.59,0,0,1,.65-3.29l-.07-.49c.19-.83.35-1.67.49-2.52A10.39,10.39,0,0,0,94,6l-.18-.93.37-.19a19.34,19.34,0,0,0,6.78.3l.11-1.24-.23-.82.61-.61A1.62,1.62,0,0,1,102,4.14l-.11.73c1.21.26,2.43.5,3.65.7l1.62-.4.09.31-.3.4-3.12.3L102.52,6l-.21.43a6.54,6.54,0,0,0,1.06,2.81,23.11,23.11,0,0,0,2,2.51l.4.09a9.89,9.89,0,0,0,1.6-2.37l.51-.07.1.68a15.61,15.61,0,0,1-1.41,2.18l-.42.31V13a8.72,8.72,0,0,0,2.46,3.16,4.75,4.75,0,0,0,2,.63l.12.5-.52.11a6.37,6.37,0,0,1-3-1.73l-1.52-2.06a28.61,28.61,0,0,1-3.33,2.46l-.42-.52-.5-.18-.09-.52h.3l.8.19a9.72,9.72,0,0,0,2.53-2.46,15.41,15.41,0,0,1-2.32-3,14.76,14.76,0,0,1-1.43-3.43,47.78,47.78,0,0,0-5.74.07L95,6c-.2,1.44-.4,2.9-.58,4.39l.18.54a15.78,15.78,0,0,1,2.75,0,9,9,0,0,1,2.71-.22.57.57,0,0,1,.52.61A10.32,10.32,0,0,1,99.4,14l-.42.23-1,1.31-1.52.82-.28-.51A11.55,11.55,0,0,0,99.5,12v-.42a4.44,4.44,0,0,0-1.93-.19l-.89.12-.42-.12a6,6,0,0,1-1.92.49c-.27,1.11-.48,2.25-.65,3.41a10,10,0,0,1-1.06,3.3ZM110.07,3.81,108.66,2.6l-.07-.4a2.06,2.06,0,0,1-1.13-.64A1.36,1.36,0,0,1,107,.23l.51-.1,3,2.89v.3A.45.45,0,0,1,110.07,3.81Z"/></g></g></svg>