<svg xmlns="http://www.w3.org/2000/svg" viewBox="0 0 69.99 13.76"><defs><style>.cls-1{stroke:#111010;stroke-miterlimit:10;stroke-width:0.25px;}</style></defs><title>creator</title><g id="レイヤー_2" data-name="レイヤー 2"><g id="レイヤー_2-2" data-name="レイヤー 2"><path class="cls-1" d="M3.22,12.35,3,11.47l.71.35a25.38,25.38,0,0,0,2.75-4.3,18.69,18.69,0,0,0,1.7-4.73Q6.5,3,5.65,3l-.37-.15L5,2.94l-.83-.15L3,3.35A4.28,4.28,0,0,1,1.39,4.81,1.44,1.44,0,0,1,.49,6.1L.12,5.91V5.5A3,3,0,0,1,1,4,3.77,3.77,0,0,0,2.66,1.87L3.18.28h.3l.36.17V.86A2.28,2.28,0,0,1,3.5,2.11l.62.28,3.2-.07A3.09,3.09,0,0,1,9,2l.58.58L9,3.4a5.3,5.3,0,0,0-.45,1.26L8,6.23a15.12,15.12,0,0,1-1,2.26c-.28.47-.7,1.16-1.27,2.06l-.3.24a3.29,3.29,0,0,1-1,1.67l-.67.24Z"/><path class="cls-1" d="M13.53,7.8a4.56,4.56,0,0,1-.32-1.65,3.52,3.52,0,0,1,0-.41c0-.25,0-.61,0-1.1s0-.85,0-1.09a1.33,1.33,0,0,0,.19-.65l0-.24-.08-.32.34-.19.34.26.09.9A21.43,21.43,0,0,0,13.92,6c0,.43,0,.75,0,1V8Zm.6,4.45a8.38,8.38,0,0,0,2.28-1.51,8.72,8.72,0,0,0,1.2-3.43,18.74,18.74,0,0,0,.26-3.14l0-.8-.17-2.29L18,.9a.63.63,0,0,1,.33.67l-.07.32.15.69V6.45A18.22,18.22,0,0,1,18,9.26a6.87,6.87,0,0,1-1.25,2.47,3.63,3.63,0,0,1-2.3,1Z"/><path class="cls-1" d="M30.7,9.8q-3.91,0-5.85-.09l-.21-.08-.56.08-.21-.08-.8.08-.49-.34-.09-.45,3.85-.09L27.47,9l.2-.36-.15-2.75.08-.39L27.52,5l.08-.78L27.52,4l.08-1.1a17.41,17.41,0,0,0-1.74-.36l-.56.06-.45-.21a3.45,3.45,0,0,0-1.56.38l-.71-.25-.09-.61,1.38-.23A18.49,18.49,0,0,0,26.74,2c1.34,0,2.32.06,3,.1L31.88,2l.9.24V2.6l-.43.19L31,2.71l-.34.08-.2-.08-1,.17L29,2.71l-.39.15A20.34,20.34,0,0,0,28.33,6c0,.26,0,.63.05,1.12l-.09.23.17,1.33L28.31,9l1.4.07L30,9a17,17,0,0,1,3,.39L33,9.8,31.88,10l-.39-.09-.3.09Z"/><path class="cls-1" d="M41.05,11.09l-.08-.3a2.28,2.28,0,0,1-.24-1.27l.15-.41a17.3,17.3,0,0,1-.24-2.81l0-.69-.18-.07L40,5.87l-.24.3-.3.17a15,15,0,0,1-1.7,1.57L37.19,8v.22l-.71.66-.63.07c-.24-.05-.34-.22-.3-.54a22.26,22.26,0,0,0,2.17-1.63L39,5.65A7.88,7.88,0,0,1,39.74,5c.7-.76,1.23-1.31,1.57-1.66.59-.63,1.07-1.17,1.44-1.63A1.31,1.31,0,0,1,43.31,1L43.74.9l.17.6-.62.82h-.22a1,1,0,0,1-.34.69l-.24.23-.28.24a3.81,3.81,0,0,0-.77,2.32,5.49,5.49,0,0,0,.06.8l.09.47-.09.24c0,1.1.06,1.92.09,2.44l-.09.31.24,1.5-.06.34H41Zm.11-3.74.17-.17L41,7.11v.24Z"/><path class="cls-1" d="M47.8,13.26A22.91,22.91,0,0,0,50.53,11a12.32,12.32,0,0,0,2-2.79,6.75,6.75,0,0,0-2.92-1.31l-.07-.28.17-.43H50a20.79,20.79,0,0,1,3,1.16A12.4,12.4,0,0,0,54,5.2L54.74,3l-.13-.13h-3.2a.57.57,0,0,1-.71.3l-.54-.06a7.84,7.84,0,0,1-1.85,2.55A4.3,4.3,0,0,1,46.6,6.73l-.15-.31a6.56,6.56,0,0,0,1.74-1.26,13.3,13.3,0,0,0,1.5-2.3A10.69,10.69,0,0,0,50.51.3l.3-.13L51,.86l-.3,1.29.56.09,1.39-.16a10.45,10.45,0,0,0,2.24.24L55.58,2l.17.45a13.9,13.9,0,0,0-1.18,2.71,28,28,0,0,1-1,2.72l.58.82h-.34l-.65-.24-1.29,2-.62.54-.19.34-.43.15-.22.39a6.7,6.7,0,0,1-2.64,1.76Z"/><path class="cls-1" d="M58.39,7l-.09-.37a1.22,1.22,0,0,1,.91-.34c2.25-.2,4.59-.3,7-.3q1.74,0,3.51.06l.08.56-.43-.06-.08.23A27.28,27.28,0,0,1,66.1,7a27.33,27.33,0,0,1-3.24-.19,11,11,0,0,1-2,.26,17.52,17.52,0,0,0-2,.21Z"/></g></g></svg>