<svg xmlns="http://www.w3.org/2000/svg" viewBox="0 0 174.14 300"><title>door</title><g id="レイヤー_2" data-name="レイヤー 2"><g id="レイヤー"><path d="M87,6c42.1,0,77.6,32.5,80.8,74v.5c.4,9.8.1,154.8-.1,210.7a3,3,0,0,1-2.9,2.9H9a3,3,0,0,1-2.9-2.9C6,235.3,5.72,90.3,6,80.5V80C9.42,38.5,44.92,6,87,6m0-6C41.62,0,3.62,35,.22,79.5c-.5,1.1,0,211.6,0,211.6a8.92,8.92,0,0,0,8.9,8.9H165a8.92,8.92,0,0,0,8.9-8.9s.5-210.5,0-211.6C170.42,35,132.42,0,87,0Z"/><path d="M35,151.2a10.9,10.9,0,1,1-10.9,10.9A10.93,10.93,0,0,1,35,151.2m0-6a16.9,16.9,0,1,0,16.9,16.9A16.88,16.88,0,0,0,35,145.2Z"/></g></g></svg>