<svg xmlns="http://www.w3.org/2000/svg" viewBox="0 0 42.4 20.91"><defs><style>.cls-1{stroke:#111010;stroke-miterlimit:10;stroke-width:0.25px;}</style></defs><title>wxhibition</title><g id="レイヤー_2" data-name="レイヤー 2"><g id="レイヤー_2-2" data-name="レイヤー 2"><path class="cls-1" d="M5.55,12.65,5.44,12h.39V11.6l-.39-.09-.28-1.14.11-.56L5.07,9l.09-.28L5,7.56H4.52L3.38,8.7,3.1,9A10.14,10.14,0,0,1,.35,10.74l-.2-.28L.52,10,1,9.81,2.43,8.42A13.14,13.14,0,0,0,4.8,6l.58-.11L7.24,3.41l1-.86.45.39v.3l-.84.92-.1.39-.48.11-.55,1-.28.09-.76.75L5.55,8c.11.57.2,1.16.28,1.76l-.18.38.28.65-.28.49A1,1,0,0,1,6,12.37Zm-.17,3.48a12.17,12.17,0,0,1,0-2.56L5.55,13c.37.12.53.35.47.66l-.19.37-.28.19v.37l.28.21.19,1A.51.51,0,0,1,5.38,16.13Zm18.41,1.7a14.62,14.62,0,0,0-.65-1.53,46.64,46.64,0,0,0-7.47.22l-.39.17a10.08,10.08,0,0,1-2.84-.28l-.28.11-.45-.22-.32.11a14.47,14.47,0,0,1-.34-3.2c-.09-1.25-.12-2.5-.11-3.76l.11-.28-.11-.58c.07-.69.16-1.34.28-2l-.11-.77.5,1.25-.11.56.11.47-.11.39.11,1-.39.62.11.28-.11.28.39.21-.11.84.11.65a6.57,6.57,0,0,1-.22,2.38l.32.06.28,1a14.67,14.67,0,0,0,2.71.33q1.43.06,2.94.06a15.45,15.45,0,0,1,2.6-.22,8.34,8.34,0,0,0,2.52-.36,96.68,96.68,0,0,0-.58-10.08l.1-.28-.1-.3.3-2.15a1.78,1.78,0,0,0-1.25-.3q-2.09.3-4.14.69l-.86-.3-.39.11-1-.28-1.14.17a3.28,3.28,0,0,0-1.78-.28l-.39.67.28,1.39L11.71,5l-.21-.28h-.39V3.52l.11-.47A1.27,1.27,0,0,1,10.94,2l.17-.55a13.18,13.18,0,0,0,3.83.94,33,33,0,0,0,4,.11L22.09,2l1.23.5.19.56A6.1,6.1,0,0,0,23,4.94l.1.45L23,8.22c.11.89.23,1.79.36,2.69s.23,1.83.3,2.77l-.11.37.39,1.8-.19.45.38,1.25Zm-9.18-3.22-.08-2.82.08-.39a9.5,9.5,0,0,0-.3-1.76.81.81,0,0,1,.86-.28A2.61,2.61,0,0,0,17,9.64a2.7,2.7,0,0,0,.17-1.42l-.34-1.41-1.14-.18-1.92.54-.27-.45.66-.64L16.7,6l.11-.39-.22-1.14.5-.17c.24.56.45,1.13.64,1.7L19,6.08,20.87,6l.28.39-3.31.36v2l.08.66a1.87,1.87,0,0,0,1.51.28l.28,1.1-.18,2.08.18.58-.84.56A3.08,3.08,0,0,0,17,13.57l-.48.11-.38-.11-.45.48h-.39l-.11.49ZM18.78,13l.09-.28-.09-.48.09-2-.58-.3-1.7.3-1-.11a2.55,2.55,0,0,0-.28,1.61l.11.3-.11.45.11.67h2.83Z"/><path class="cls-1" d="M33.52,20.77l-.43-.19c0-1,0-2,0-3s0-2.07,0-3.07l-.8-.2-.69.11a1,1,0,0,1-.45-.67l2-.28c.13-.6.23-1.19.3-1.78l0-2.15a5.64,5.64,0,0,0-2.17-.21l-.93.28-.25,1.5.06.3a13.7,13.7,0,0,1-1,3.15,18.86,18.86,0,0,1-1.73,2.87l-.65.08-.38-.75.66-.11a15.12,15.12,0,0,0,2.09-5.49q.51-3,1-6l-.22-.56.39-.3V2.79L29.85.9,29,.51V.12h.28c1.19.15,2.35.25,3.49.31s2.3.12,3.49.19L38.57.23l.64.56v.39l-.47,2.75.28.84-.17.47-.58.28a1.26,1.26,0,0,0-1-.48l-4,.09-2.21.28a11.45,11.45,0,0,0-.56,3l.65.19.38-.1,1.38.19.58-.09.11-.84-.07-1,.54-.11a6,6,0,0,1,.32,2.11l2,.08L37,8.72l.26-.65L37,7.41c-.23-.13-.29-.38-.19-.75l.43-.39h.45l.45.19,0,2.17.93.09,2.34-.19.79.3,0,.28-4.12.45-.5,1.8h-.28l.3.35-.06,1.61,1.55.1,1.22-.19.56.19,0,.28q-1.51.18-3,.39l-1-.11q-1.34.18-2.64.39l-.26,1.42,0,.92-.2.39A13.53,13.53,0,0,1,34,19.27l.26.11L35,19.1v.73Zm4.19-16.5A16.83,16.83,0,0,0,38.18,1a39.79,39.79,0,0,1-7.24,0V3.71l.37,1,.75.11,2.58-.2.28.09Zm-1.46,9.15a12.43,12.43,0,0,0,.56-2.55l0-1.21-2.2-.17a1.38,1.38,0,0,0-.32.93l.09,1-.13.38.24,1.61.75.18Zm5.07,7.27a9.37,9.37,0,0,0-1.63-1.52c-.6-.44-1.19-.88-1.74-1.32a16.66,16.66,0,0,1-2.82-2.06l0-.5.37-.06a10.09,10.09,0,0,0,1.82,1.12,11.81,11.81,0,0,1,3.14-1.42l.34.19,0,.28a2,2,0,0,1-1.34.56l-1.31.86,0,.28q.9.86,1.92,1.65c.68.53,1.37,1,2,1.44l.09.28Z"/></g></g></svg>