<svg width="24" height="24" xmlns="http://www.w3.org/2000/svg" fill-rule="evenodd" clip-rule="evenodd"><path d="M17.996 23h-17.99l-.005-1.167c-.006-1.646-.011-3.198 2.512-3.782 1.837-.426 3.263-1.231 3.634-2.052.154-.342.127-.696-.082-1.082-1.72-3.185-2.044-5.985-.911-7.884.77-1.292 2.173-2.033 3.847-2.033 1.662 0 3.055.73 3.822 2.002 1.132 1.876.818 4.685-.884 7.91-.206.391-.229.75-.071 1.095.374.819 1.796 1.622 3.62 2.044 2.526.585 2.519 2.147 2.512 3.801l-.004 1.148zm-16.994-1h15.998v-.15c.008-1.799-.074-2.44-1.736-2.825-.818-.189-3.543-.935-4.306-2.601-.287-.63-.254-1.314.097-1.979 1.531-2.902 1.855-5.362.912-6.926-.59-.979-1.644-1.519-2.966-1.519-1.333 0-2.394.549-2.988 1.545-.946 1.585-.614 4.034.932 6.896.357.661.396 1.342.113 1.969-.755 1.673-3.497 2.425-4.32 2.615-1.661.385-1.743 1.021-1.737 2.802l.001.173zm13.147-11c.364-.902.642-1.884.618-2.85-.495-.718-.766-1.6-.766-2.502 0-2.574 2.243-4.669 5-4.669s5 2.095 5 4.669c0 2.237-1.898 4.651-4.966 4.651-.471 0-.953-.058-1.439-.174-.604.271-2.185.932-3.447.875zm4.852-9.021c-2.206 0-4 1.646-4 3.669 0 .747.563 1.95.749 2.21.011.339-.03 1.382-.269 2.032.745-.211 1.605-.596 1.952-.795.492.134 1.151.204 1.602.204 2.449 0 3.966-1.895 3.966-3.651 0-2.023-1.794-3.669-4-3.669zm-.001.374l-.976 2.014-2.217.305 1.615 1.552-.395 2.204 1.973-1.057 1.973 1.056-.393-2.203 1.613-1.552-2.217-.305-.976-2.014zm-.5 3.52l-.512-.491.702-.097.31-.639.31.639.703.097-.511.491.125.699-.627-.335-.625.334.125-.698z"/></svg>