<svg xmlns="http://www.w3.org/2000/svg" viewBox="0 0 114.03 171.27"><defs><style>.cls-1{fill:none;stroke:#ed6f59;stroke-miterlimit:10;}</style></defs><title>flower</title><g id="レイヤー_2" data-name="レイヤー 2"><g id="レイヤー_1-2" data-name="レイヤー 1"><path class="cls-1" d="M69.58,137.77a3.1,3.1,0,0,1,1.63-1c.19-.06.4-.1.59-.17a1.24,1.24,0,0,1,1.19.18,2.84,2.84,0,0,1,1.13,1.4,2.42,2.42,0,0,1-.05,1.94,4.33,4.33,0,0,1-.93,1.29,1.59,1.59,0,0,1-1.28.48,5.16,5.16,0,0,1-1.54-.41,1.31,1.31,0,0,1-.6-.51,4.1,4.1,0,0,1-.54-1.46.5.5,0,0,0-.38-.46l-1.19-.43c-.52-.18-1-.38-1.56-.61s-1-.32-1.43-.53a8.89,8.89,0,0,0-1.41-.45c-.74-.21-1.45-.47-2.17-.71l-1.26-.45a9.9,9.9,0,0,1-1.29-.46.37.37,0,0,0-.18,0,5.49,5.49,0,0,1-1.38-.3,2.4,2.4,0,0,0-1.38-.11,9.08,9.08,0,0,1-1.47.18c-.59.06-1.19.09-1.78.15l-2,.26-1.29.16c-.43.06-.87,0-1.3.15-1.17.28-2.35.45-3.52.68-1,.2-2,.4-3,.65l-2.38.55c-.42.1-.85.18-1.27.27l-2.32.46c-.72.13-1.43.27-2.15.37a2.84,2.84,0,0,0-1.2.43,8.77,8.77,0,0,1-1.2.67,2.31,2.31,0,0,0-1.12.93c-.33.56-.65,1.13-1,1.66s-.66,1.11-1,1.66a9.14,9.14,0,0,0-.64,1.09c-.07.15-.26.19-.29.34a4.09,4.09,0,0,1-.71,1.25c-.42.72-.94,1.39-1.37,2.1-.78,1.28-1.72,2.43-2.56,3.66-.34.49-.72,1-1.06,1.45A22.19,22.19,0,0,1,19.53,156c-.46.53-.8,1.14-1.24,1.67-.23.28-.42.58-.63.86s-.6.79-.89,1.19c-.63.87-1.28,1.71-2,2.53-.5.61-1,1.24-1.45,1.87-.65.84-1.4,1.61-2.07,2.44-.29.35-.6.69-.92,1s-.54.63-.82.94-.8.89-1.21,1.33c-.26.28-.52.55-.79.81a.71.71,0,0,1-.79,0,.25.25,0,0,1,0-.34,2.49,2.49,0,0,1,.41-.5c1.08-1.18,2.12-2.4,3.22-3.57a6.37,6.37,0,0,0,.74-.82c.41-.57.9-1.07,1.33-1.61s.69-.81,1-1.25.7-.87,1-1.32.83-1,1.2-1.53,1-1.3,1.43-2,1-1.3,1.46-1.94l1.23-1.66L22.08,151c.29-.4.57-.82.85-1.22.43-.63.84-1.28,1.29-1.89a8.84,8.84,0,0,0,.77-1.18c.23-.41.5-.79.76-1.19s.48-.78.71-1.17l1.2-2c.24-.39.5-.77.73-1.16s.57-.84.79-1.3.42-.58.57-.9.44-.68.63-1c.4-.7.87-1.37,1.31-2a1,1,0,0,0,.2-.83,5.46,5.46,0,0,1,0-.57,2.21,2.21,0,0,0-.15-.82,14.17,14.17,0,0,0-.76-1.24c-.49-.7-.94-1.42-1.46-2.1-.34-.44-.66-.89-1-1.34-.61-.81-1.2-1.62-1.79-2.44-.4-.55-.79-1.12-1.24-1.64a12,12,0,0,0-.94-1.09c-.5-.45-.82-1-1.29-1.51-.07-.07-.13-.17-.23-.2-.42-.11-.87-.12-1.29-.26a3.06,3.06,0,0,0-.45-.06c-.7-.16-1.38-.34-2.07-.55-1.15-.36-2.35-.56-3.52-.85-.55-.13-1.08-.3-1.63-.41-.72-.13-1.45-.24-2.17-.38-1.64-.33-3.29-.51-4.95-.69a.45.45,0,0,0-.51.28,3.32,3.32,0,0,1-.45.75,3.26,3.26,0,0,1-.65.79,3.67,3.67,0,0,1-2.13.61,2.49,2.49,0,0,1-1.36-.41A3.31,3.31,0,0,1,1,120a2.75,2.75,0,0,1-.49-1.83A4,4,0,0,1,1,116.53a2.2,2.2,0,0,1,1.42-1.29c.11,0,.21-.08.32-.12a2.28,2.28,0,0,1,1.12-.18c.31,0,.62.14.93.21a2.72,2.72,0,0,1,1.17.69,1.83,1.83,0,0,1,.64,1.38,2.39,2.39,0,0,0,.09.45c0,.19.12.27.33.28.67,0,1.33.16,2,.22s1.5.24,2.25.36a8.18,8.18,0,0,1,1,.15,5.21,5.21,0,0,0,1,.2c.59.05,1.13.27,1.71.35.76.11,1.48.4,2.23.54a21.4,21.4,0,0,1,2.48.62,11.72,11.72,0,0,0,1.29.35c.32.07.65.12,1,.22a3.73,3.73,0,0,0,.56.12c.2,0,.29,0,.29-.25s0-.41-.06-.61c-.1-.58-.23-1.15-.31-1.73a13.84,13.84,0,0,1-.17-1.82c0-.61-.08-1.21-.08-1.82a9.31,9.31,0,0,0-.22-1.74c-.05-.34-.06-.35-.4-.29a2.07,2.07,0,0,1-2-.46,2.7,2.7,0,0,1-.81-2.74c0-.14.09-.29.14-.43a2.65,2.65,0,0,1,1.93-1.83,1.52,1.52,0,0,1,.87,0,11.76,11.76,0,0,1,1.51.53,3,3,0,0,1,1,.76,1.8,1.8,0,0,1,.28,2,4.33,4.33,0,0,1-.49.86,3.42,3.42,0,0,1-1,.93.28.28,0,0,0-.16.37,16.53,16.53,0,0,1,.29,2.64c.06.77,0,1.54.14,2.31.06.39.1.78.16,1.17a17,17,0,0,1,.26,2.46c0,.08,0,.15.05.21.44.49.89,1,1.32,1.48s1.12,1.18,1.6,1.84c.64.88,1.25,1.79,1.93,2.65.5.63.95,1.31,1.45,2,.19.25.33.54.53.78a10.33,10.33,0,0,1,1.06,1.49c.38.62.71,1.26,1.06,1.9.13.24.21.25.37,0a8.46,8.46,0,0,0,.68-1.11c.3-.66.75-1.24,1.06-1.9a5.45,5.45,0,0,1,.29-.53c.33-.58.7-1.13,1-1.72s.66-1.23,1-1.84a5.58,5.58,0,0,0,.32-.52,16,16,0,0,1,1-1.9,8.11,8.11,0,0,1,1-1.68.27.27,0,0,0,.05-.14,1,1,0,0,1,.17-.42c.25-.47.53-.93.79-1.4l1.55-3a3.1,3.1,0,0,0,.21-.36A3.76,3.76,0,0,1,42.9,116a.4.4,0,0,0,.07-.43c-.08-.19-.08-.41-.16-.59a7.27,7.27,0,0,0-.22-.8,3.07,3.07,0,0,1-.25-.72,7.58,7.58,0,0,0-.53-1.54c-.18-.34-.37-.67-.56-1s-.38-.79-.6-1.17-.49-1-.79-1.46-.47-.88-.75-1.29c-.46-.68-.86-1.4-1.29-2.1a2.31,2.31,0,0,0-1.26-1.08c-.5-.17-1-.3-1.49-.5a12,12,0,0,0-1.1-.5c-.79-.25-1.52-.64-2.29-.92s-1.37-.55-2-.84c-1.17-.51-2.3-1.08-3.48-1.56a19.33,19.33,0,0,0-2.2-.93c-.49-.14-.91-.45-1.4-.58a16.47,16.47,0,0,1-1.8-.72c-.78-.31-1.59-.55-2.36-.87s-1.43-.45-2.12-.75a2,2,0,0,0-.37-.09c-.12,0-.25-.11-.36-.08s-.1.24-.17.35c-.26.38-.49.78-.75,1.15a1.74,1.74,0,0,1-.67.62c-.17.08-.36.13-.53.21a2.31,2.31,0,0,1-1.34.21c-.16,0-.32-.1-.48-.12A2.4,2.4,0,0,1,9.9,96.42c-.13-.24-.21-.52-.33-.76A3.38,3.38,0,0,1,9.29,94a2.21,2.21,0,0,1,.89-1.78,3.66,3.66,0,0,1,.67-.37,2.76,2.76,0,0,1,1.62-.35,6.13,6.13,0,0,1,1.57.45,3.73,3.73,0,0,1,1,.64,2,2,0,0,1,.7,1.59c0,.31.14.39.36.47a12.26,12.26,0,0,0,1.56.49c.27.06.5.23.75.28a12.29,12.29,0,0,1,1.77.6c.09,0,.18.13.28.06s0-.22,0-.32a.44.44,0,0,0,0-.15l-.81-2.26a9.06,9.06,0,0,0-.51-1.19c-.35-.65-.62-1.33-.93-2-.39-.88-.68-1.8-1.1-2.68-.18-.38-.31-.78-.5-1.15-.31-.6-.63-1.2-.88-1.82a1.79,1.79,0,0,0-.12-.24.23.23,0,0,0-.32-.12,2.45,2.45,0,0,1-.69.19A2.13,2.13,0,0,1,12.75,84a3.35,3.35,0,0,1-.95-1.23,2.58,2.58,0,0,1,.08-2.55,2.23,2.23,0,0,1,.91-.89A6.19,6.19,0,0,1,14,78.81a2.62,2.62,0,0,1,1.64.11,1.18,1.18,0,0,1,.69.52c.2.4.48.75.65,1.16a2.29,2.29,0,0,1,.2,1.23,3.43,3.43,0,0,1-.67,1.64.42.42,0,0,0,0,.5c.46.88.86,1.78,1.27,2.68.17.36.3.73.45,1.09s.35.75.49,1.15a14.79,14.79,0,0,0,.7,1.77c.36.69.67,1.39,1,2.1s.45,1.22.67,1.83a10.63,10.63,0,0,1,.51,1.75.51.51,0,0,0,.46.45,2.16,2.16,0,0,1,.55.16c.26.12.53.25.8.36a6.22,6.22,0,0,1,1.43.61A.35.35,0,0,0,25,98a3.82,3.82,0,0,1,.93.33c.94.39,1.85.83,2.77,1.26.23.11.46.23.69.32.79.28,1.55.64,2.33,1a8.33,8.33,0,0,0,1.14.52,11.65,11.65,0,0,1,1.55.62c.66.28,1.33.51,2,.74.07,0,.13,0,.18,0s0-.11,0-.16c-.61-.87-1.06-1.83-1.71-2.67-.36-.45-.64-1-1-1.4-.54-.69-1-1.44-1.58-2.1-.34-.41-.57-.92-1.07-1.19a.36.36,0,0,1-.1-.11c-.41-.52-.92-1-1.37-1.44-.17-.18-.36-.36-.55-.53a.59.59,0,0,0-.7-.09,2.17,2.17,0,0,1-1.38.08,3.52,3.52,0,0,0-.43-.13,1.36,1.36,0,0,1-1-.67,3.58,3.58,0,0,1-.43-.85A2.86,2.86,0,0,1,25,89.39a2.18,2.18,0,0,1,1-1.29,4.49,4.49,0,0,1,1.73-.58,2,2,0,0,1,1,.1,2.79,2.79,0,0,1,1.73,2.21.59.59,0,0,1,0,.23A3.66,3.66,0,0,1,29.68,92c-.1.1-.1.21,0,.33s.46.51.74.74a19.77,19.77,0,0,1,2.08,2.21c.34.39.68.76,1,1.17a15.24,15.24,0,0,1,1.21,1.76,5.31,5.31,0,0,0,.68.81,1.42,1.42,0,0,0,0-.48c0-.37,0-.74,0-1.11q0-1.2-.06-2.4c0-.79,0-1.57,0-2.36,0-.57,0-1.14,0-1.71,0-.42,0-.84,0-1.26,0-.67.1-1.34.11-2s.11-1.32.06-2c0-.3,0-.32-.32-.36a3.34,3.34,0,0,1-1.55-.77.77.77,0,0,1-.26-.33,7.44,7.44,0,0,1-.25-.84,1.76,1.76,0,0,1,0-.79,2.46,2.46,0,0,1,1.51-1.7c.22-.1.44-.11.66-.19a1.53,1.53,0,0,1,1.15.08A2.7,2.7,0,0,1,38,82.44a1.78,1.78,0,0,1,.2,1.07,2.55,2.55,0,0,1-1.43,1.78.49.49,0,0,0-.32.49c0,.6,0,1.2-.08,1.8s-.09,1-.09,1.52c0,.84,0,1.68,0,2.51,0,1-.05,2-.05,2.94s.06,1.73.07,2.59a17.88,17.88,0,0,0,.07,1.94,3.93,3.93,0,0,1,0,.84,1,1,0,0,0,.1.77,29.87,29.87,0,0,1,1.73,3c.52,1,1.17,1.91,1.73,2.88.43.76.91,1.5,1.3,2.29s.81,1.55,1.23,2.32l.91,1.68a.59.59,0,0,1,.06.14,1.23,1.23,0,0,0,.43.78c.33-.67.67-1.34,1-2l.74-1.59c.45-1,.93-1.89,1.37-2.85s1-2,1.44-3,1-2,1.39-3.1c.07-.17.23-.28.27-.45a6.61,6.61,0,0,1,.45-1.22,5.35,5.35,0,0,0,.32-.63,11.49,11.49,0,0,1,.57-1.45c.33-.88.76-1.73,1.06-2.62s.65-1.52.94-2.29.7-1.72,1-2.58c.14-.31.25-.65.41-.94a1,1,0,0,0,.13-.58,5.67,5.67,0,0,0-.54-2.06,4,4,0,0,0-.26-.71,13.11,13.11,0,0,0-.93-1.16,10.64,10.64,0,0,1-.84-.94A18.08,18.08,0,0,0,51.11,82c-.42-.46-.84-.92-1.25-1.39a2.6,2.6,0,0,0-.74-.7.87.87,0,0,1-.46-.52,1.59,1.59,0,0,0-.42-.59c-.54-.53-1.11-1-1.66-1.57a1.1,1.1,0,0,1-.25-.28,1,1,0,0,0-.39-.36,1.08,1.08,0,0,1-.24-.18,21.77,21.77,0,0,0-2-1.77,13.09,13.09,0,0,0-1.45-1.23A5.51,5.51,0,0,0,41,72.87c-.94-.2-1.86-.47-2.79-.75s-1.5-.61-2.29-.82a.78.78,0,0,0-.62,0c-.54.29-1.07.58-1.62.86-.33.16-.64.36-1,.53s-.75.32-1.1.52a9.45,9.45,0,0,1-1.41.65c-.73.28-1.41.65-2.15.91-.27.09-.3.19-.25.47a.91.91,0,0,1,0,.49,2.65,2.65,0,0,1-1.27,1.56,5.29,5.29,0,0,1-2.57.75,2.33,2.33,0,0,1-1-.16,3.18,3.18,0,0,1-1.5-1.55,2.72,2.72,0,0,1-.27-1.21,2.21,2.21,0,0,1,.28-.9,3.23,3.23,0,0,1,1.29-1.56A7.35,7.35,0,0,1,24,72.28a2.31,2.31,0,0,1,1.84.17,2.74,2.74,0,0,1,1.47,1.37c.14.36.4.39.69.11a.58.58,0,0,1,.21-.15c.51-.17,1-.42,1.47-.63a18,18,0,0,0,1.86-.8c.76-.41,1.54-.8,2.29-1.21.13-.08.34-.11.33-.28s-.2-.12-.31-.18-.18-.17-.3-.16a2.26,2.26,0,0,1-.85-.21A35.53,35.53,0,0,1,28.89,69c-.83-.38-1.71-.59-2.53-1-.44-.2-.93-.32-1.4-.49-.27-.1-.3-.09-.46.17a3,3,0,0,1-.64.74,5.9,5.9,0,0,0-.8.7.63.63,0,0,1-.43.23.51.51,0,0,0-.22,0,1.11,1.11,0,0,1-1.2,0c-.38-.2-.75-.42-1.13-.63a1.61,1.61,0,0,1-.64-.63c-.14-.24-.22-.51-.36-.76a1.26,1.26,0,0,1-.15-.81,3.94,3.94,0,0,1,.22-1,3,3,0,0,1,1.39-1.75,6.9,6.9,0,0,1,1.17-.45,2.47,2.47,0,0,1,1.59.1,1.84,1.84,0,0,1,.7.45A2.6,2.6,0,0,1,25,66.27a.29.29,0,0,0,.19.36c.24.12.52.11.76.24a12.37,12.37,0,0,0,2.05.78c.93.33,1.85.71,2.79,1,.77.25,1.52.57,2.31.77a2.57,2.57,0,0,1,.47.15,18.44,18.44,0,0,0,1.79.54c.77.24,1.53.53,2.31.76.32.09.61.26.92.36a4.54,4.54,0,0,0,.61.24c.55.11,1.11.24,1.66.37a3.73,3.73,0,0,0,1,.32.21.21,0,0,1,.11,0,6.62,6.62,0,0,1,1.38.86,9.66,9.66,0,0,0,.87.68c.84.7,1.59,1.49,2.4,2.22.58.53,1.14,1.08,1.72,1.62.07.06.12.16.26.17a.82.82,0,0,0,0-.41c0-.57,0-1.14,0-1.72a20.46,20.46,0,0,0-.4-2.32A7.31,7.31,0,0,0,47.88,72c-.16-.61-.26-1.24-.42-1.86a8.57,8.57,0,0,0-.28-1,16.45,16.45,0,0,0-.75-1.91c-.24-.46-.45-.94-.67-1.41a.38.38,0,0,0-.4-.24l-.27,0a2,2,0,0,1-1.37-.45,3.74,3.74,0,0,1-.66-.77A2.72,2.72,0,0,1,42.79,62a2.11,2.11,0,0,1,.69-1.08,5.09,5.09,0,0,1,1.11-.64A2.3,2.3,0,0,1,45.88,60c.19,0,.38-.08.56,0a7.18,7.18,0,0,0,.68.34,2.19,2.19,0,0,1,1.19,1.75,2.58,2.58,0,0,1-.22,1.51,3.75,3.75,0,0,1-1.17,1.52c-.29.22-.31.21-.14.54.41.81.71,1.66,1.07,2.49.13.31.22.65.33,1a22.42,22.42,0,0,1,.65,2.66c.15.67.23,1.35.39,2a8,8,0,0,1,.29,2,2.82,2.82,0,0,0,0,.87,2.32,2.32,0,0,1,.06.64c0,.45,0,.89,0,1.34a.41.41,0,0,0,.12.34c.31.29.55.64.83,1,.61.69,1.22,1.36,1.83,2,.34.39.67.8,1,1.2A31.7,31.7,0,0,1,55.62,86a1,1,0,0,0,.3.34.87.87,0,0,0,.24-.44,2.69,2.69,0,0,1,.17-.55c.24-.64.49-1.28.72-1.93s.35-1.06.53-1.59.34-.9.46-1.37.25-.64.35-1c.21-.71.43-1.42.7-2.1.43-1.14.81-2.3,1.27-3.43a4.41,4.41,0,0,0,.23-.56c.12-.63.4-1.2.58-1.81.32-1.09.71-2.15.95-3.26a.76.76,0,0,1,.08-.21.88.88,0,0,0,.16-.54,2.7,2.7,0,0,1,.08-.41c.09-.41.18-.82.28-1.23a.79.79,0,0,0,0-.34,4.26,4.26,0,0,1-.08-1.33,1.6,1.6,0,0,0,0-.49c-.13-.47-.25-.94-.34-1.41a2.13,2.13,0,0,0-.19-.62A9.25,9.25,0,0,1,61.39,60a1.3,1.3,0,0,0-.08-.17,10.25,10.25,0,0,0-.68-.91c-.52-.67-1.09-1.31-1.66-2-.3-.33-.57-.71-.9-1s-.84-1-1.33-1.41a.53.53,0,0,1-.1-.12c-.14-.38-.48-.58-.72-.86a11.69,11.69,0,0,0-1-1c-.38-.36-.79-.69-1.13-1.08a1.14,1.14,0,0,0-.5-.35,3.87,3.87,0,0,1-.87-.47A7.54,7.54,0,0,0,51,49.88l-.54-.19c-.54-.22-1.07-.47-1.63-.65a.7.7,0,0,0-.55,0l-2.08,1c-.65.29-1.31.56-1.94.89s-1.46.66-2.17,1-1.51.55-2.21.94c-.38.21-.8.35-1.18.54-.53.25-1.09.43-1.62.68s-1.09.3-1.6.58a4.48,4.48,0,0,1-.86.4c-.29.09-.37.26-.34.59a1.54,1.54,0,0,1-.12.82,6.3,6.3,0,0,1-.94,1.41A2.63,2.63,0,0,1,31.14,59a4.68,4.68,0,0,1-1.75-.21,3.76,3.76,0,0,1-1.45-1,3,3,0,0,1-.6-2.4,3,3,0,0,1,.75-1.52A2.69,2.69,0,0,1,29.2,53a3.62,3.62,0,0,1,2.67,0c.15,0,.26.16.41.21a3.22,3.22,0,0,1,1.42,1,.45.45,0,0,0,.69.1,2.6,2.6,0,0,1,.36-.21c.81-.31,1.6-.66,2.41-1,.3-.11.57-.28.87-.37a7.41,7.41,0,0,0,1.22-.54,3.46,3.46,0,0,1,1.31-.48.33.33,0,0,0,.15-.05,2.7,2.7,0,0,1,.94-.48c.37-.17.74-.31,1.1-.51a11.7,11.7,0,0,1,1.12-.56c.5-.19,1-.43,1.46-.65.65-.3,1.29-.58,2-.82.06,0,.13,0,.11-.14a.24.24,0,0,0-.08-.06c-.44-.11-.85-.33-1.31-.42s-.67-.2-1-.28-.89-.32-1.34-.45c-1.08-.32-2.14-.74-3.2-1.13a4.25,4.25,0,0,0-1-.35,7,7,0,0,1-1.3-.28,14.6,14.6,0,0,0-1.59-.36c-.73-.13-1.46-.19-2.18-.36a.78.78,0,0,0-.86.25,4.91,4.91,0,0,1-.77.74c-.15.12-.34.16-.49.28a3.54,3.54,0,0,1-1.23.57,1.78,1.78,0,0,1-.85.17,4.19,4.19,0,0,0-.79,0,2,2,0,0,1-.49-.09,4.65,4.65,0,0,1-1.94-1.6s0,0,0-.06a1.71,1.71,0,0,1-.21-.73c0-.33-.15-.64-.16-1a8.22,8.22,0,0,1,.15-1.79,2.08,2.08,0,0,1,.22-.68,5.4,5.4,0,0,1,1-1.1,4.87,4.87,0,0,1,1.27-.68,2.51,2.51,0,0,1,1.17-.3,3.53,3.53,0,0,1,1.91.67,3.27,3.27,0,0,1,.67.67,3.85,3.85,0,0,1,1,2.59,4.23,4.23,0,0,1-.11.87c0,.14,0,.23.16.24.34,0,.68.16,1,.18a29.77,29.77,0,0,1,3.75.68,11.69,11.69,0,0,0,1.51.42.15.15,0,0,1,.07,0,9.93,9.93,0,0,1,1.09.36c.53.19.6.14.5-.43s-.23-1.1-.36-1.64a3.87,3.87,0,0,0-.13-.59c-.29-.63-.39-1.32-.62-2-.13-.34-.21-.71-.33-1.05s-.14-.73-.3-1.09-.29-.81-.46-1.21c-.29-.73-.62-1.45-1-2.16-.48-1-1-2-1.52-3-.14-.27-.15-.28-.44-.22a8.44,8.44,0,0,1-1.32.21,2.44,2.44,0,0,1-2.24-1.1,4.9,4.9,0,0,1-.54-1,2.34,2.34,0,0,1-.17-1,7.85,7.85,0,0,1,.18-1.08,1.36,1.36,0,0,1,.45-.74.81.81,0,0,0,.18-.19A2.52,2.52,0,0,1,35,26.05a2,2,0,0,1,.64-.13,5.47,5.47,0,0,1,2.15.55A2.9,2.9,0,0,1,39.4,29a2.19,2.19,0,0,1-.13.9,3.89,3.89,0,0,1-1.11,1.57.32.32,0,0,0-.1.44,3,3,0,0,1,.15.31c.43.83.85,1.68,1.29,2.51.23.43.35.9.58,1.33s.34,1,.61,1.38a.06.06,0,0,0,0,0c.2.63.39,1.26.59,1.89.28.9.55,1.8.83,2.7.09.3.14.62.22.93a16.12,16.12,0,0,1,.39,1.7,7.53,7.53,0,0,1,0,1c0,.37.08.44.43.51a1.67,1.67,0,0,1,.3.08,11.4,11.4,0,0,0,1.62.54c.27.07.49.24.75.28.55.09,1.07.31,1.61.44a18.85,18.85,0,0,1,1.75.71c1.06.4,2.09.87,3.13,1.3.16.06.26.21.42.26s.24,0,.25-.14a6.91,6.91,0,0,0,0-.91c-.09-.88-.24-1.76-.27-2.66,0-.64-.12-1.29-.16-1.93-.05-.84-.08-1.68-.11-2.51a5.66,5.66,0,0,1,0-.58c0-.31,0-.3-.27-.42s-.59-.11-.79-.35-.63-.53-.82-.94c-.1-.23-.15-.48-.27-.71a1.61,1.61,0,0,1-.16-1,3.42,3.42,0,0,1,.35-1.43,3.38,3.38,0,0,1,.95-1.07,3.13,3.13,0,0,1,2.82-.28,1.18,1.18,0,0,1,.89,1,.33.33,0,0,0,.07.18,1.57,1.57,0,0,1,.28,1,3.43,3.43,0,0,1-.45,1.83,2.75,2.75,0,0,1-1.36,1.39.49.49,0,0,0-.31.55c0,.54,0,1.09.07,1.63.06.75,0,1.5.11,2.25a6,6,0,0,1,.11,1,13.63,13.63,0,0,0,.17,2,3.92,3.92,0,0,1,.08.76c0,.53,0,1.06,0,1.6a.43.43,0,0,0,.17.43l.22.22c.68.68,1.4,1.32,2,2.05s1.32,1.48,2,2.2,1,1.2,1.6,1.79a33.87,33.87,0,0,1,2.22,2.7c.34.45.59,1,.9,1.42A5.86,5.86,0,0,1,63.72,62c.15-.51.28-.92.38-1.34.17-.68.32-1.36.49-2s.41-1.52.56-2.3c.07-.36.23-.7.29-1.06a10.34,10.34,0,0,1,.6-2.39.39.39,0,0,0,0-.15,2.1,2.1,0,0,1,.09-.61c.15-.59.33-1.17.48-1.77.06-.21.16-.4.21-.61.12-.58.24-1.16.39-1.74s.31-1.18.43-1.78c.15-.77.28-1.55.48-2.31a5.45,5.45,0,0,0,.2-.89,27.08,27.08,0,0,1,.56-3,1.34,1.34,0,0,0,0-.56,15.9,15.9,0,0,0-1.15-3.78c-.37-.85-.76-1.7-1.17-2.53a17.25,17.25,0,0,0-1.7-2.67,2.32,2.32,0,0,0-1.09-.8,6,6,0,0,0-1.45-.34c-.61-.07-1.22-.23-1.83-.31-.33,0-.66-.15-1-.17-.61-.05-1.2-.2-1.81-.21s-1-.1-1.45-.14-1.06-.06-1.59-.07a7.91,7.91,0,0,0-1.29,0c-.85.11-1.7.09-2.55.19-.3,0-.29,0-.36.31a3.77,3.77,0,0,1-1,1.66,2.67,2.67,0,0,1-1.21.78,11,11,0,0,1-1.13.29,4.1,4.1,0,0,1-1.16,0,1.13,1.13,0,0,1-.55-.26,3.17,3.17,0,0,1-1-1.39,5,5,0,0,1-.26-1.49,3.54,3.54,0,0,1,.12-1.13,3.08,3.08,0,0,1,1.18-1.55,3.35,3.35,0,0,1,1.38-.6,2.65,2.65,0,0,1,2,.32,3.05,3.05,0,0,1,1.4,1.84c.09.31.14.34.47.33l.22,0c.72-.09,1.45-.06,2.17-.14.39,0,.78,0,1.17-.07a2.82,2.82,0,0,1,.58,0c.6.06,1.21.06,1.82.13,1,.13,2.07.18,3.1.37.53.09,1.07.21,1.61.25a3.26,3.26,0,0,1,.94.17,5.25,5.25,0,0,0,1,.12c-.12-.15-.28-.25-.41-.39a10.47,10.47,0,0,1-.89-1,.52.52,0,0,0-.11-.1,10,10,0,0,1-1.17-1c-.5-.44-1-.82-1.54-1.24a.36.36,0,0,0-.46,0,.67.67,0,0,1-.35.14,7.18,7.18,0,0,1-1.67,0A2.24,2.24,0,0,1,55,23.5a4.27,4.27,0,0,1-.1-2,1.92,1.92,0,0,1,1-1.31,4.33,4.33,0,0,1,.85-.31,2.58,2.58,0,0,1,1.35-.11,4.76,4.76,0,0,0,.61.19.76.76,0,0,1,.55.32,3.44,3.44,0,0,1,.57,1,2.88,2.88,0,0,1,0,1.88c-.06.23-.13.46-.19.7s-.06.19,0,.28.28.25.44.36c.56.39,1.05.85,1.59,1.25s.76.79,1.17,1.14a19,19,0,0,1,1.58,1.66c.62.69,1.1,1.49,1.7,2.2.19.23.24.54.44.76a3.34,3.34,0,0,1,.52.8c.3.57.57,1.16.83,1.76a4.41,4.41,0,0,0,.61,1.18,3.91,3.91,0,0,1,.63,1c0,.1.08.25.24.29A1.72,1.72,0,0,0,69.7,36c0-.35.08-.7.15-1.05.25-1.09.48-2.18.64-3.29.15-.93.33-1.85.43-2.79.13-1.24.31-2.47.45-3.71.09-.78.15-1.57.24-2.35,0-.42.11-.83.15-1.25.06-.6.07-1.21.15-1.81a.22.22,0,0,0-.06-.21c-.23-.16-.26-.43-.38-.65a10.78,10.78,0,0,0-1.78-2.56A25.26,25.26,0,0,0,67.2,14,19.22,19.22,0,0,0,65,12.26c-.51-.31-1-.68-1.51-.94a.39.39,0,0,0-.48,0,5.65,5.65,0,0,1-.81.63,3,3,0,0,1-1.22.4,4.8,4.8,0,0,1-1.35-.13,2,2,0,0,1-1.4-1.22,3.35,3.35,0,0,1-.2-2.56v0a2.43,2.43,0,0,1,1.3-1.91A3.34,3.34,0,0,1,61,6a2.59,2.59,0,0,1,2.46,1.37,2.65,2.65,0,0,1,.4,1.1,2.76,2.76,0,0,1-.13,1.24c-.17.43,0,.71.43.91a3.4,3.4,0,0,1,.54.27,23.91,23.91,0,0,1,2,1.46l2.14,1.83a15.56,15.56,0,0,1,2.92,3.35c0,.07.08.15.17.12a.17.17,0,0,0,.1-.19c0-.18,0-.36,0-.54.08-1.48,0-3,0-4.45,0-.61,0-1.22-.11-1.83-.12-1.19-.13-2.39-.19-3.59a.3.3,0,0,0-.2-.31A2.9,2.9,0,0,1,69.92,4a5.73,5.73,0,0,1,.37-1.52,2.89,2.89,0,0,1,.48-.81A3.5,3.5,0,0,1,72,.78a2.23,2.23,0,0,1,.75-.26,3.22,3.22,0,0,1,2.59.78,10.36,10.36,0,0,1,.77.85,1.84,1.84,0,0,1,.42,1.23c0,.23,0,.46,0,.69a1,1,0,0,1-.14.66,4.21,4.21,0,0,1-1.34,1.38A7,7,0,0,1,72.77,7c-.18,0-.25.1-.24.3,0,.59.15,1.16.17,1.74,0,.76.16,1.52.2,2.28.06,1,.08,2.09.1,3.13a37.77,37.77,0,0,1-.16,5,2.12,2.12,0,0,0,.06,1.17c0,.08,0,.17,0,.26a2.58,2.58,0,0,0,.18,1.23,5.62,5.62,0,0,0,1.78-1.68c.43-.59.91-1.13,1.33-1.72A13.93,13.93,0,0,1,77.57,17c.29-.31.55-.67.84-1s.7-.9,1.12-1.3a4.68,4.68,0,0,0,.57-.61c.42-.59.94-1.1,1.4-1.66a23.8,23.8,0,0,1,1.86-2c.23-.24.25-.27,0-.55a5.5,5.5,0,0,1-.61-1.27,2.62,2.62,0,0,1-.11-1.68,5.32,5.32,0,0,1,.72-1.76A3.25,3.25,0,0,1,85.6,3.81,2.75,2.75,0,0,1,87,3.88a2.2,2.2,0,0,1,1.13.75,4.84,4.84,0,0,1,.38.71,3.08,3.08,0,0,1,.13,2.09A3.2,3.2,0,0,1,87.2,9.48a3,3,0,0,1-.55.25,8.77,8.77,0,0,1-2,.66.27.27,0,0,0-.16.1c-.25.35-.62.59-.88.93-.47.6-1,1.16-1.51,1.73s-.72.95-1.16,1.36a17.15,17.15,0,0,0-1.39,1.57c-.41.5-.88,1-1.27,1.48-.26.35-.58.67-.86,1s-.51.66-.79,1a3,3,0,0,0-.36.44,9.79,9.79,0,0,1-1,1.36,2.47,2.47,0,0,1-.49.53,14.64,14.64,0,0,0-1.49,1.35,2.24,2.24,0,0,0-.59.64,2.5,2.5,0,0,0-.31.92c0,.74-.21,1.48-.26,2.23s-.22,1.61-.3,2.42c0,.25-.07.5-.11.75-.07.53-.19,1-.27,1.58-.16,1-.36,2-.52,3-.07.44-.19.87-.3,1.3s-.16,1-.27,1.55c-.25,1.27-.52,2.54-.74,3.81a11.19,11.19,0,0,1-.3,1.42,4.44,4.44,0,0,0-.2.84c-.07.72-.26,1.4-.39,2.1,0,.08-.09.17,0,.25.47-.33.87-.73,1.31-1.1.8-.66,1.68-1.21,2.48-1.87a.27.27,0,0,1,.1-.06.84.84,0,0,0,.46-.32,1.33,1.33,0,0,1,.3-.23,9,9,0,0,0,1.21-.8c.41-.3.84-.57,1.26-.86l2.37-1.59c.34-.22.71-.41,1-.64A28.77,28.77,0,0,1,81.84,37a.93.93,0,0,0,.48-.51c.17-.43.39-.85.6-1.27s.46-1,.64-1.45a23.16,23.16,0,0,1,1-2.14,5.92,5.92,0,0,1,.3-.62c.47-.71.83-1.49,1.26-2.22s1-1.67,1.47-2.54.91-1.65,1.38-2.46c.07-.13,0-.22-.06-.29a1.41,1.41,0,0,1-.43-.48A3.76,3.76,0,0,1,88,20.42a2.63,2.63,0,0,1,.87-1.52,3.94,3.94,0,0,1,1.2-.8c.27-.11.53-.24.79-.37a1.81,1.81,0,0,1,1.41-.1,4.24,4.24,0,0,1,1,.52A3,3,0,0,1,94.38,21a3.07,3.07,0,0,1-.69,1.51c-.15.17-.33.32-.48.49a2.67,2.67,0,0,1-1.48.71,3.83,3.83,0,0,1-1.22.1A.51.51,0,0,0,90,24c-.16.22-.33.45-.47.69-.23.42-.43.86-.66,1.28-.13.24-.29.45-.42.68-.29.51-.55,1-.85,1.54q-1.36,2.25-2.54,4.61c-.46.92-.84,1.88-1.3,2.81-.09.18-.3.43-.08.69a3.65,3.65,0,0,0,.92-.23c.22-.09.47,0,.66-.14a1.18,1.18,0,0,1,.61-.21,10.1,10.1,0,0,0,1.61-.44c.88-.24,1.75-.52,2.62-.81s1.58-.33,2.37-.52a19.48,19.48,0,0,1,3.24-.48c.43,0,.86,0,1.29,0,.22,0,.28-.11.31-.3a1.69,1.69,0,0,1,.18-.7,12.43,12.43,0,0,1,.7-1.08,3.12,3.12,0,0,1,1.42-1,3,3,0,0,1,2.77.49,2.47,2.47,0,0,1,.74,2.63,5.3,5.3,0,0,1-.83,1.21,3.56,3.56,0,0,1-2,1.12,2.6,2.6,0,0,1-1.66-.29.6.6,0,0,1-.35-.39.55.55,0,0,0-.27-.31.43.43,0,0,1-.22-.2.4.4,0,0,0-.4-.24,12.78,12.78,0,0,0-1.75,0,30.22,30.22,0,0,0-3.28.51c-1.56.28-3,.83-4.56,1.25-.55.15-1.1.32-1.65.46a6.5,6.5,0,0,0-.79.14,10.61,10.61,0,0,1-1.91.53,1.49,1.49,0,0,0-.55.24c-.31.22-.66.38-1,.57l-1.13.62a3,3,0,0,0-.63.36,6.28,6.28,0,0,1-.75.52,3.84,3.84,0,0,0-.69.47c.63.06,1.2.15,1.79.16a7.86,7.86,0,0,1,1.28.16,19.33,19.33,0,0,0,2.11.45c1,.09,1.84.36,2.77.53.7.13,1.35.41,2.05.55a4.07,4.07,0,0,1,.67.16,7.71,7.71,0,0,1,1.59.62c.41,0,.71.32,1.09.43a7.37,7.37,0,0,1,1.1.52c.11,0,.21.11.31,0a4.42,4.42,0,0,1,1.24-.87,2.18,2.18,0,0,1,2-.23,2.68,2.68,0,0,1,1.3.81,2.44,2.44,0,0,1,.57,1.87c0,.18-.07.37-.1.56a1.82,1.82,0,0,1-.52,1,4.33,4.33,0,0,1-3.15,1.43,1.6,1.6,0,0,1-1.39-.92,5.93,5.93,0,0,1-.35-1.2,2.69,2.69,0,0,1,0-1.35c0-.12,0-.18-.12-.22-.47-.16-.89-.44-1.36-.61s-1.11-.56-1.71-.72-1.19-.38-1.8-.53c-.42-.1-.84-.17-1.26-.29a25,25,0,0,0-3.2-.69c-.59-.1-1.18-.22-1.76-.34a8.38,8.38,0,0,0-1.2-.21,14.32,14.32,0,0,1-1.48-.1,6.16,6.16,0,0,0-2,0,.79.79,0,0,0-.38.18,13.84,13.84,0,0,1-1.65,1.09c-.74.43-1.39,1-2.1,1.46s-1.46,1.1-2.2,1.64a9.49,9.49,0,0,0-1.53,1.37c-.3.35-.53.74-.84,1.08-.14.16-.35.29-.37.52s-.17.61-.24.92c-.23.89-.43,1.78-.69,2.66s-.42,1.78-.65,2.66c-.17.65-.31,1.31-.46,2-.07.31-.2.62-.25.92-.09.58-.24,1.14-.37,1.71s-.32,1.12-.47,1.68-.33,1.26-.48,1.89-.41,1.49-.56,2.25c-.18.92-.45,1.82-.66,2.74-.12.52-.29,1-.42,1.54A7.08,7.08,0,0,1,62.28,71a.22.22,0,0,0,0,.3c.88-.55,1.77-1,2.68-1.48a3.63,3.63,0,0,1,1.28-.55,2.56,2.56,0,0,1,.84-.39,17.93,17.93,0,0,1,2.25-.85,8.06,8.06,0,0,0,1.11-.38c.56-.24,1.16-.38,1.71-.65a.71.71,0,0,0,.39-.41c.29-.76.52-1.54.81-2.31a20.2,20.2,0,0,1,1.32-2.78c.45-.8.9-1.59,1.31-2.41.26-.55.62-1,.92-1.58.16-.27.31-.56.47-.83s.09-.23-.11-.27a3.12,3.12,0,0,1-.69-.33,1.21,1.21,0,0,1-.52-.53,6.41,6.41,0,0,1-.47-1.29,2.55,2.55,0,0,1,.41-2,1.68,1.68,0,0,1,.27-.37,12.68,12.68,0,0,1,1.31-1,1.3,1.3,0,0,1,.34-.15c.21-.08.45,0,.63-.08a1.46,1.46,0,0,1,1.05,0A2.32,2.32,0,0,1,81.15,52a3.35,3.35,0,0,1,.26,1.3,2.29,2.29,0,0,1-.27,1.32c-.12.2-.31.34-.42.54a2.37,2.37,0,0,1-1.21,1,3.9,3.9,0,0,1-.76.22.38.38,0,0,0-.3.26,8.69,8.69,0,0,1-1.09,2,1.69,1.69,0,0,0-.17.29c-.3.54-.52,1.11-.83,1.64s-.67,1.14-1,1.71a21.09,21.09,0,0,0-1.44,3.27,3.16,3.16,0,0,0-.27.94.34.34,0,0,0,.28,0,14.06,14.06,0,0,1,2.17-.7,7.83,7.83,0,0,1,1.5-.52,5,5,0,0,1,1.33-.47c.42-.07.83-.24,1.24-.34a13.07,13.07,0,0,1,2.21-.58.25.25,0,0,0,.14-.06,2,2,0,0,1,.63-.26.47.47,0,0,0,.25-.16,7,7,0,0,0,.49-.59,2.78,2.78,0,0,1,.55-.68c.55-.47,1.06-1,1.58-1.48a22.34,22.34,0,0,1,2.17-1.74A30.33,30.33,0,0,1,92,56.32c.42-.22.86-.44,1.26-.7s.28-.22.13-.49c-.05-.07-.11-.14-.16-.22a1.42,1.42,0,0,1-.19-.91,3.64,3.64,0,0,1,.75-1.73,2.09,2.09,0,0,1,.86-.78,5.59,5.59,0,0,1,.78-.28,1.42,1.42,0,0,1,.67-.12,3.69,3.69,0,0,1,1,.43c.26.16.5.36.77.5a1.49,1.49,0,0,1,.67.81,3.5,3.5,0,0,1,.22.8,2.37,2.37,0,0,1-.54,1.92,2.86,2.86,0,0,1-1.25.92,2.57,2.57,0,0,1-2.54-.17.36.36,0,0,0-.42,0c-.21.12-.44.21-.65.33a8.3,8.3,0,0,0-1.39.79.86.86,0,0,1-.23.13c-.57.36-1.17.68-1.71,1.09L87.9,60.25a34.41,34.41,0,0,0-2.71,2.4,3,3,0,0,0-.65.82.31.31,0,0,0,.22.11c.51.08,1,.18,1.54.25a19.07,19.07,0,0,1,3.08.7,2.17,2.17,0,0,0,.35.15c.86.14,1.65.51,2.49.72.24.06.47.17.72.24a10.27,10.27,0,0,1,2.22.78.52.52,0,0,0,.22.07,3.67,3.67,0,0,1,.8.23c.6.18,1.15.47,1.75.67s1.38.51,2.08.75a2.28,2.28,0,0,0,.56.23,2.48,2.48,0,0,1,.66.18c1,.37,2,.8,3,1.14a3.24,3.24,0,0,1,.67.27,28.37,28.37,0,0,0,2.66,1.14c.15.06.23,0,.31-.12a1.6,1.6,0,0,1,.79-.73,4.63,4.63,0,0,1,2.38-.42,2.28,2.28,0,0,1,1.46.65,3.09,3.09,0,0,1,.48.54,2.93,2.93,0,0,1,.58,1.47,2.48,2.48,0,0,1-.54,1.58,4.22,4.22,0,0,1-1.93,1.71,4.26,4.26,0,0,1-1.29.3,2.67,2.67,0,0,1-1.43-.28,1.76,1.76,0,0,1-.75-.63c-.12-.18-.16-.4-.28-.58a2.94,2.94,0,0,1-.38-1.06,2.32,2.32,0,0,1,.15-1.6c-.2-.15-.44-.13-.62-.23-.52-.27-1.09-.43-1.61-.71a14.72,14.72,0,0,0-1.85-.71c-1.15-.47-2.29-1-3.48-1.34-.68-.21-1.33-.48-2-.71-.85-.29-1.67-.65-2.51-1-.24-.09-.5-.13-.74-.22-1.08-.4-2.2-.71-3.31-1l-2.37-.72a16.76,16.76,0,0,0-2.41-.54,18.87,18.87,0,0,1-2.1-.38,1,1,0,0,0-.7,0,2.5,2.5,0,0,1-.43.16l-1.77.48a11.26,11.26,0,0,1-1.17.34c-.26,0-.29.18-.1.36s.56.59.87.86.73.62,1.09,1,.93,1,1.4,1.45.75.73,1.1,1.11c.85.95,1.7,1.89,2.57,2.82.26.26.49.56.76.8.56.51,1.13,1,1.7,1.51s.94.86,1.4,1.3a12.11,12.11,0,0,1,1.07,1.08.63.63,0,0,0,.77.22,2.53,2.53,0,0,1,1.54,0,3.39,3.39,0,0,1,2.52,3.07,1.34,1.34,0,0,1-.13.74,4.18,4.18,0,0,1-2,2.19,3.93,3.93,0,0,1-2.11.37,2.37,2.37,0,0,1-1.76-1,3.66,3.66,0,0,1-.6-1.35,4.85,4.85,0,0,1-.15-1.7,1.86,1.86,0,0,1,.6-1.35,2.51,2.51,0,0,1,.48-.38c.13-.07.16-.16,0-.26s-.47-.49-.73-.72c-1.09-1-2.15-2-3.21-3-.53-.5-1.05-1-1.55-1.57l-2.26-2.48c-.87-1-1.82-1.81-2.69-2.76a.64.64,0,0,0-.16-.11,3.22,3.22,0,0,1-.68-.6c-.29-.28-.54-.6-.86-.86a.61.61,0,0,0-.63-.12c-.92.3-1.85.57-2.76.87-.58.19-1.16.39-1.73.6s-.94.33-1.4.51-.8.25-1.18.41c-1.11.47-2.28.79-3.39,1.25-.88.37-1.77.72-2.61,1.17a6.21,6.21,0,0,0-1.24.68c-.68.57-1.38,1.12-2,1.73a2.55,2.55,0,0,0-.75,1.11c0,.1,0,.2-.08.3-.48,1.26-.93,2.53-1.36,3.8-.21.64-.46,1.27-.65,1.91s-.51,1.41-.73,2.13c-.17.57-.41,1.12-.6,1.69-.37,1.14-.82,2.25-1.25,3.36-.2.52-.47,1-.64,1.54s-.43,1-.63,1.56c-.35.85-.69,1.7-1.06,2.53s-.7,1.72-1,2.58-.81,2-1.21,2.93-.81,1.92-1.22,2.88c-.2.49-.44,1-.65,1.45-.31.7-.62,1.4-.94,2.08a3.34,3.34,0,0,0-.41,1,24.8,24.8,0,0,1,2.54-.8.35.35,0,0,0,.14-.06,1.81,1.81,0,0,1,.66-.27l.77-.25c.74-.26,1.51-.43,2.27-.65.52-.15,1.06-.26,1.59-.41,1-.28,2.07-.52,3.11-.76a1.72,1.72,0,0,0,.83-.44l.82-.9c1.21-1.32,2.49-2.58,3.66-3.94.49-.55,1-1.08,1.5-1.63s1-1,1.51-1.6c.23-.29.54-.53.79-.82.4-.45.84-.88,1.29-1.3a9.27,9.27,0,0,1,.94-.94,3.64,3.64,0,0,0,.62-.55,5,5,0,0,1,.47-.45c.3-.23.31-.31.14-.64a3.93,3.93,0,0,1-.4-1.07,1.3,1.3,0,0,1,.18-1.19.36.36,0,0,0,0-.11,1.84,1.84,0,0,1,1-1.13,4,4,0,0,1,1.12-.35,1.67,1.67,0,0,1,1.08.07c.27.14.56.24.82.39a.64.64,0,0,1,.16.11,3.53,3.53,0,0,1,.78,1.39A2.25,2.25,0,0,1,77,89.13a4.85,4.85,0,0,1-.39.61,2.05,2.05,0,0,1-1.4.89,3.65,3.65,0,0,1-1.74,0,.31.31,0,0,0-.31.06c-.49.45-1,.88-1.48,1.34-.74.71-1.46,1.44-2.19,2.16-.43.42-.81.88-1.23,1.3s-1,1.06-1.44,1.58-1,1-1.42,1.49c-.79,1-1.66,1.83-2.51,2.71l-1,1.08,1.64-.33c.66-.14,1.31-.3,2-.43s1.29-.19,1.92-.31c1.26-.23,2.52-.4,3.78-.56s2.27-.38,3.42-.53a.69.69,0,0,0,.44-.2c.4-.42.83-.81,1.22-1.23a20.3,20.3,0,0,1,2.13-1.91c.32-.25.66-.48,1-.75.68-.63,1.42-1.15,2.15-1.71s1.22-.82,1.8-1.27S84.77,92,85.5,91.5c.24-.18.25-.18.12-.46a2.58,2.58,0,0,1-.25-1.52,2.07,2.07,0,0,1,1.23-1.79,2.91,2.91,0,0,1,1-.38c.17,0,.33,0,.49-.06a1.57,1.57,0,0,1,1.1.22,3.87,3.87,0,0,1,1.54,1.69,1.93,1.93,0,0,1,.16,1.4,3.83,3.83,0,0,1-.49.89,2,2,0,0,1-.87.83,2.62,2.62,0,0,1-1.82.19,2.77,2.77,0,0,1-1-.43.27.27,0,0,0-.36,0,5.91,5.91,0,0,1-.66.45c-.55.43-1.1.87-1.68,1.26s-1.19.86-1.79,1.29-1.34,1-2,1.52a12.16,12.16,0,0,1-1.57,1.21.35.35,0,0,0-.11.1,4.9,4.9,0,0,1-.79.72c-.51.44-.93,1-1.44,1.42-.15.12-.12.21,0,.28a.83.83,0,0,0,.22.08c.71.24,1.46.34,2.17.57a8.12,8.12,0,0,0,.81.22,11.09,11.09,0,0,1,1.39.41c1,.33,1.94.69,2.91,1l1.54.53,1.51.56c.75.28,1.5.54,2.25.83,1.34.51,2.69,1,4,1.56a9.36,9.36,0,0,0,1.45.59A1.72,1.72,0,0,1,95,106a3.91,3.91,0,0,1,1.84-1.32,2.39,2.39,0,0,1,1.27-.18,5.34,5.34,0,0,1,.81.21,2.71,2.71,0,0,1,.68.34,3,3,0,0,1,.79,1,1.88,1.88,0,0,1,.24.76,4.27,4.27,0,0,1-.21,1.66,1.21,1.21,0,0,1-.31.52,3.37,3.37,0,0,1-.87.67,5.45,5.45,0,0,0-.57.32,3.74,3.74,0,0,1-1.3.42,3.11,3.11,0,0,1-2.07-.6.87.87,0,0,1-.28-.26c-.22-.38-.44-.77-.65-1.16a.51.51,0,0,1-.07-.26c.05-.32,0-.46-.38-.57-.75-.24-1.44-.63-2.17-.9-.31-.11-.61-.28-.93-.36-.58-.15-1.11-.42-1.68-.61s-.88-.41-1.34-.53-1-.39-1.48-.56-1.09-.44-1.64-.59-.89-.35-1.36-.44a14.16,14.16,0,0,1-1.65-.6c-.87-.28-1.71-.64-2.61-.85-.6-.15-1.19-.34-1.8-.46a6.36,6.36,0,0,1-1.75-.55.39.39,0,0,0-.26,0c-.23.06-.48,0-.71.11-.66.19-1.35.23-2,.36s-1.09.11-1.62.22c-.87.18-1.77.2-2.64.39-.59.13-1.2.2-1.8.31l-2.09.4c-1,.2-2,.44-3.06.66-.5.1-1,.26-1.49.34s-1.17.31-1.86.46a5,5,0,0,1,1,.67c.58.4,1.16.79,1.72,1.2s.94.74,1.42,1.11c.74.57,1.51,1.1,2.24,1.7.24.2.51.38.77.56.53.37,1.06.74,1.6,1.1.13.09.2.24.36.29a7.75,7.75,0,0,1,1.24.73c.27.15.52.36.78.54a.36.36,0,0,0,.43.05,3.2,3.2,0,0,1,1.78-.3c.17,0,.3.11.47.11a1.91,1.91,0,0,1,1.76,1.13,2.86,2.86,0,0,1,.28,1.15,1.93,1.93,0,0,1-.22,1.17,4.06,4.06,0,0,1-.95,1,.87.87,0,0,0-.23.19,2.31,2.31,0,0,1-1.41.75,2.27,2.27,0,0,1-1.13,0,1.79,1.79,0,0,1-1.22-.71,8.31,8.31,0,0,1-.44-.76,2.61,2.61,0,0,1,.13-2.72c.06-.1.17-.19.18-.34l-.24-.17c-.59-.39-1.19-.74-1.77-1.14l-.5-.33a16.9,16.9,0,0,1-1.41-1c-.23-.2-.49-.39-.74-.57a11.91,11.91,0,0,1-1-.72,10.07,10.07,0,0,1-1.27-1.08.86.86,0,0,0-.16-.1,3.71,3.71,0,0,1-.68-.43c-.67-.48-1.27-1-2-1.49a19,19,0,0,1-1.55-1.11.72.72,0,0,0-.75-.13,10,10,0,0,1-1.07.29c-.75.17-1.46.46-2.2.66-.55.14-1.09.33-1.64.51a1.24,1.24,0,0,0-.3.16,7,7,0,0,1-1.13.64,5.12,5.12,0,0,0-1.81,1.25.68.68,0,0,1-.52.28.37.37,0,0,0-.38.27c-.28.71-.71,1.35-1,2.06s-.62,1.34-.94,2-.69,1.45-1,2.17-.8,1.41-1.09,2.17c-.12.31-.32.58-.45.88-.55,1.25-1.26,2.42-1.91,3.61-.41.76-.88,1.49-1.3,2.24l-.57,1.07c-.45.86-1,1.69-1.42,2.56s-.93,1.61-1.36,2.43c-.59,1.11-1.24,2.19-1.88,3.27l-1,1.64c-.61,1-1.27,2-1.89,3a1.8,1.8,0,0,0-.31.57c.5-.12,1-.24,1.42-.31.86-.13,1.7-.33,2.56-.46.45-.06.89-.19,1.35-.25s.91-.21,1.37-.31.85-.15,1.27-.26c1.71-.47,3.47-.78,5.2-1.16.4-.09.81-.13,1.2-.22s.84-.18,1.27-.25c1-.18,2-.34,3.09-.43.71-.06,1.41-.21,2.13-.25.32,0,.65,0,1-.08.65-.06,1.29-.18,1.93-.21a1.25,1.25,0,0,0,1-.53,25.38,25.38,0,0,1,1.73-1.86c.33-.39.73-.7,1.07-1.08.5-.58,1-1.11,1.57-1.66.35-.37.75-.69,1.11-1,.61-.59,1.28-1.09,1.92-1.63l.73-.61a.19.19,0,0,0,.06-.23,2.71,2.71,0,0,1-.11-2,2.57,2.57,0,0,1,.8-1.18,3.52,3.52,0,0,1,2.58-.83c.13,0,.25.07.38.08.75,0,1.14.58,1.5,1.1a6,6,0,0,1,.58,1.69,1.11,1.11,0,0,1,0,.26,1.65,1.65,0,0,1-.34.92,3.78,3.78,0,0,1-.85,1,3.19,3.19,0,0,1-2,.57,9.48,9.48,0,0,1-1-.15,2,2,0,0,1-.78-.3c-.33-.23-.33-.23-.6,0l-.11.09c-.77.73-1.64,1.33-2.39,2.07s-1.29,1.26-1.92,1.91c-1,1.05-2,2.1-3,3.12-.07.06-.15.12-.13.22s.13.15.23.16c.57,0,1.1.28,1.67.35a1.53,1.53,0,0,1,.37.08l1.76.64a10.21,10.21,0,0,0,1,.38c.7.16,1.37.4,2.06.58,1.14.31,2.22.82,3.32,1.23a10.44,10.44,0,0,1,1.21.47,3.31,3.31,0,0,1,.75.29A4.56,4.56,0,0,1,69.58,137.77ZM31.26,39.94a1.48,1.48,0,0,0-1.48-.13c-.22.08-.5.06-.68.19s-.37.26-.57.37a2.08,2.08,0,0,0-.93,1.26,5.21,5.21,0,0,0-.14,1.89,3.9,3.9,0,0,0,.12.75,1.26,1.26,0,0,0,.55.83,6.31,6.31,0,0,0,.84.59,1.65,1.65,0,0,0,.65.17,3.32,3.32,0,0,0,1.72-.39,4.06,4.06,0,0,0,1-.63.79.79,0,0,0,.25-.33c.11-.5.32-1,.41-1.47a3.08,3.08,0,0,0-.39-1.72A3.75,3.75,0,0,0,31.26,39.94Zm1.13,17.57a8.86,8.86,0,0,0,.67-.82,5.28,5.28,0,0,0,.33-.73.45.45,0,0,0-.06-.37,1.41,1.41,0,0,1-.18-.57.87.87,0,0,0-.48-.7,5.88,5.88,0,0,0-1.75-.74,1.43,1.43,0,0,0-.79,0,2.36,2.36,0,0,0-1,.55,3.17,3.17,0,0,0-.86,1.38,1.92,1.92,0,0,0,.49,1.89A2.11,2.11,0,0,0,30,58a8,8,0,0,0,1.29.07,1.73,1.73,0,0,0,.65-.22A1.1,1.1,0,0,0,32.39,57.51Zm5-30.22a2.58,2.58,0,0,0-1.6-.49,2.3,2.3,0,0,0-2.39,2.31,2.75,2.75,0,0,0,.44,1.51,1.87,1.87,0,0,0,1.92.73l1.11-.26a1.89,1.89,0,0,0,1.25-1,.83.83,0,0,1,.07-.13,1.53,1.53,0,0,0,0-1.82A1.92,1.92,0,0,0,37.41,27.29Zm53.45,52.9a2.7,2.7,0,0,0,0,1.06,3.7,3.7,0,0,0,.61,1.46,1.35,1.35,0,0,0,1.24.58A4.77,4.77,0,0,0,94,83.11a1.67,1.67,0,0,0,.39-.23,4.56,4.56,0,0,0,1.28-1.38,1.16,1.16,0,0,0,0-.82,2.35,2.35,0,0,0-1-1.56,2.55,2.55,0,0,0-1.76-.46,4.4,4.4,0,0,0-1,.38c-.11,0-.2.11-.36.19C91.1,79.32,90.9,79.68,90.86,80.19ZM71.55,5.65A1.44,1.44,0,0,0,73.07,6a8.08,8.08,0,0,0,1.34-.52,3.19,3.19,0,0,0,1.13-1.06.61.61,0,0,0,.08-.51,1.22,1.22,0,0,1,0-.38,1.44,1.44,0,0,0-.41-1c-.12-.13-.23-.26-.36-.39a2.54,2.54,0,0,0-1.47-.66,1.18,1.18,0,0,0-.53,0,3,3,0,0,0-1.32.72,1.43,1.43,0,0,0-.46.89,4,4,0,0,1-.15.75,1.55,1.55,0,0,0,.22,1.29A2,2,0,0,0,71.55,5.65ZM49.66,28.28a.74.74,0,0,0,0-.26c-.09-.23-.18-.45-.26-.68a1.93,1.93,0,0,0-.78-.91,1.87,1.87,0,0,0-1.92-.14,2.31,2.31,0,0,0-1.4,1.37,1.3,1.3,0,0,0-.11.7,4.53,4.53,0,0,0,.19,1.32,3,3,0,0,0,.72,1.05.49.49,0,0,0,.31.14,2.3,2.3,0,0,0,.79,0,4.86,4.86,0,0,0,1-.36A2.34,2.34,0,0,0,49.66,28.28ZM10.86,92.89a1,1,0,0,0-.58.76,2.65,2.65,0,0,0,.2,1.75c.13.26.24.54.38.79a1.78,1.78,0,0,0,1.75.86,1.22,1.22,0,0,0,1-.46c.23-.29.51-.54.71-.84a3,3,0,0,0,.48-1.67,1,1,0,0,0-.39-.76,3.37,3.37,0,0,0-2.47-.92,1.9,1.9,0,0,0-.62.25ZM93,19.16a2.61,2.61,0,0,0-.73-.54,1,1,0,0,0-.68-.18.54.54,0,0,0-.22,0,7.23,7.23,0,0,0-1.67.83,1.91,1.91,0,0,0-.9,1.71,3.75,3.75,0,0,0,.31,1.32.84.84,0,0,0,1,.59,8.33,8.33,0,0,1,.87,0,2.82,2.82,0,0,0,1.32-.37A2.3,2.3,0,0,0,93,19.16Zm18.71,52a1.71,1.71,0,0,0-1.59-.37c-.19,0-.38.07-.56.1a1.59,1.59,0,0,0-.89.48,5.22,5.22,0,0,0-.79,1,1.1,1.1,0,0,0-.12.84,4.27,4.27,0,0,0,.46,1.28,1.48,1.48,0,0,0,1.53.68,4.91,4.91,0,0,0,1-.3,1.35,1.35,0,0,0,.74-.57,2.22,2.22,0,0,1,.53-.48,1.46,1.46,0,0,0,.3-1.94A2.42,2.42,0,0,0,111.75,71.12ZM84,9a.44.44,0,0,0,.5.31c.06,0,.15,0,.19,0,.22.21.42.07.62,0a9.13,9.13,0,0,1,1.1-.41,1.55,1.55,0,0,0,.74-.51,2.92,2.92,0,0,0,.71-1.81,4,4,0,0,0-.27-1.18,1.15,1.15,0,0,0-1-.76,1.82,1.82,0,0,0-.57,0A2.4,2.4,0,0,0,83.72,6.6a2.89,2.89,0,0,0-.07,1.72,1.73,1.73,0,0,0,.1.28A3.42,3.42,0,0,1,84,9ZM5,119.57a.46.46,0,0,1,.17-.2,1.87,1.87,0,0,0,.61-1.6,2.6,2.6,0,0,0-.1-.68,1.4,1.4,0,0,0-.84-.92,2.76,2.76,0,0,0-1.11-.34,1,1,0,0,0-.45.09,1.22,1.22,0,0,1-.43.15,1.08,1.08,0,0,0-.75.47,2.93,2.93,0,0,0-.66,1.52,2.14,2.14,0,0,0,1.07,2.13,1,1,0,0,0,.51.15,2.54,2.54,0,0,0,1.34-.2C4.68,120,4.9,119.86,5,119.57ZM60.85,7a7.47,7.47,0,0,0-1,.31,1.33,1.33,0,0,0-.74.88A3.07,3.07,0,0,0,59,10.44a1.49,1.49,0,0,0,.81,1s.07,0,.11,0a3.19,3.19,0,0,0,1.5-.12,1.75,1.75,0,0,1,.32-.12,1.15,1.15,0,0,0,.59-.45A3.94,3.94,0,0,0,63,9.22a2.12,2.12,0,0,0-.29-1.35A1.53,1.53,0,0,0,60.85,7ZM26.76,75.78c0-.08.09-.15.08-.22a2.32,2.32,0,0,0-.28-1.23,2,2,0,0,1-.13-.18,2,2,0,0,0-1.38-1.05,1.16,1.16,0,0,0-.49,0,5.39,5.39,0,0,0-1.41.45,1.47,1.47,0,0,0-.44.42,2.72,2.72,0,0,0-.6,1.09,1.22,1.22,0,0,0,.17,1c.14.17.17.42.35.58a1.93,1.93,0,0,0,1.82.55,4.87,4.87,0,0,0,1.3-.44C26.09,76.45,26.57,76.28,26.76,75.78Zm69.58,33.51a2.22,2.22,0,0,0,.67.1,1.66,1.66,0,0,0,1.08-.25c.32-.17.63-.36,1-.53a.84.84,0,0,0,.42-.41,1.92,1.92,0,0,0,.14-1.62c-.06-.15-.13-.3-.2-.45a1.41,1.41,0,0,0-1-.65c-.18,0-.38,0-.56-.09a1.33,1.33,0,0,0-.87.2,3.05,3.05,0,0,0-1.46,1.24,1.32,1.32,0,0,0,0,1.56A1.42,1.42,0,0,0,96.34,109.29ZM20,67.19a1,1,0,0,0,.41.62,2.22,2.22,0,0,0,.68.4.85.85,0,0,1,.32.21.79.79,0,0,0,1.08,0c.36-.28.71-.58,1.06-.88a1.77,1.77,0,0,0,.4-.84,1.8,1.8,0,0,0-.27-1.8,2.93,2.93,0,0,0-.46-.4s-.05,0-.07,0c-.39-.44-.84-.28-1.29-.14a3.86,3.86,0,0,0-.69.29A2.19,2.19,0,0,0,20,67.19Zm46.66,55.27a2.72,2.72,0,0,0-1.23.73,1.43,1.43,0,0,0-.45,1.24,2,2,0,0,0,.64,1.38,1.23,1.23,0,0,0,.9.36c.37,0,.75,0,1.13,0a1,1,0,0,0,.55-.23A3.91,3.91,0,0,0,69,125a.43.43,0,0,0,.07-.33,6.42,6.42,0,0,0-.33-1.28A1.68,1.68,0,0,0,66.62,122.46ZM80.45,53.79a1.9,1.9,0,0,0-.17-1.32c-.1-.22-.17-.47-.4-.59a2,2,0,0,0-1.11-.35,2.19,2.19,0,0,0-1.15.49l-.58.49a1.38,1.38,0,0,0-.52,1.42A2.67,2.67,0,0,0,77,55.17a.72.72,0,0,0,.45.32,2.25,2.25,0,0,0,1.45-.08l.35-.16A2.3,2.3,0,0,0,80.45,53.79ZM70.17,116.48a1.52,1.52,0,0,0,1.3-.28c.2-.17.44-.29.66-.45a1.52,1.52,0,0,0,.75-1.21c0-1-.43-1.67-1.46-1.72-.12,0-.23,0-.35,0a1.85,1.85,0,0,0-1.75.62,1.55,1.55,0,0,0-.33,1.95c.05.11.11.21.19.37C69.29,116.2,69.7,116.39,70.17,116.48ZM94.27,44.1a.59.59,0,0,0-.25.33,2.43,2.43,0,0,0-.08,1.68c.1.26.19.53.29.79a.58.58,0,0,0,.39.34,1.47,1.47,0,0,0,.83,0A3.43,3.43,0,0,0,97,46.4a2,2,0,0,0,.45-.55,2,2,0,0,0-.27-2.05.46.46,0,0,0-.17-.14c-.62-.3-1.24-.57-1.86-.15A4.47,4.47,0,0,0,94.27,44.1ZM19.93,109.19a2.19,2.19,0,0,0-.3,1.57,2,2,0,0,0,.6.93c.56.5,1.11.25,1.68.1.08,0,.14-.09.21-.09.57,0,.82-.46,1.14-.81a2,2,0,0,0,.49-1.14.42.42,0,0,0-.11-.38,3.16,3.16,0,0,0-1.33-.92l-.21-.08a1.35,1.35,0,0,0-1.42.07C20.28,108.53,20.1,108.85,19.93,109.19Zm23.8-45.46a1.61,1.61,0,0,0,1.67,1,4.16,4.16,0,0,1,.61,0,.53.53,0,0,0,.47-.19,4,4,0,0,0,.85-1.33,1.7,1.7,0,0,0-1-2.19,1.84,1.84,0,0,0-1.16,0,2.62,2.62,0,0,0-.46.19A1.89,1.89,0,0,0,43.73,63.73ZM102.2,33.28a.94.94,0,0,0,.08-.64c0-.25-.11-.49-.17-.74a.39.39,0,0,0-.11-.15,2.12,2.12,0,0,0-1.16-.59,2.32,2.32,0,0,0-1.53.32l0,0c-.44.53-1,1-1,1.78a1.48,1.48,0,0,0,.52,1.17,1.51,1.51,0,0,0,.59.4,1.88,1.88,0,0,0,1.49-.19A3.31,3.31,0,0,0,102.2,33.28ZM12.43,81.84a2.06,2.06,0,0,0,1.12,1.52,1.16,1.16,0,0,0,.71.07,1.59,1.59,0,0,0,.94-.37,1.26,1.26,0,0,1,.57-.3.34.34,0,0,0,.27-.19,1.71,1.71,0,0,0,.13-1.4,8.15,8.15,0,0,0-.3-.77,1.23,1.23,0,0,0-1.61-.71,6.83,6.83,0,0,0-.87.31A1.67,1.67,0,0,0,12.43,81.84Zm38.7-44.48a2.75,2.75,0,0,0,.13,1.17,2.12,2.12,0,0,0,.84,1,.71.71,0,0,0,.69,0,5.65,5.65,0,0,1,.57-.23.53.53,0,0,0,.23-.13,3,3,0,0,0,1-2,2.55,2.55,0,0,0-.24-1.21,1,1,0,0,0-.9-.54,3,3,0,0,0-1.37.29A1.84,1.84,0,0,0,51.13,37.36ZM29,89a1.5,1.5,0,0,0-1.69-.46,3.4,3.4,0,0,0-.85.33,1.36,1.36,0,0,0-.7,1.07,1.44,1.44,0,0,0,.13.92c.18.32.21.7.49,1a1.61,1.61,0,0,0,.38.31,1.89,1.89,0,0,0,1.51,0,1.58,1.58,0,0,0,.6-.52,2.76,2.76,0,0,0,.58-1.46,1.23,1.23,0,0,0-.19-.77A3.08,3.08,0,0,0,29,89ZM94,53.94a.57.57,0,0,0,0,.34,2.82,2.82,0,0,0,1.12,1.4l0,0a2.32,2.32,0,0,0,1.38,0,2.72,2.72,0,0,0,1.21-1,1,1,0,0,0,.14-.55,2.07,2.07,0,0,0-.21-1,.54.54,0,0,0-.19-.23c-.36-.2-.65-.49-1-.72a1,1,0,0,0-1-.06,1.79,1.79,0,0,0-.28.14A2.22,2.22,0,0,0,94,53.94ZM88.56,88.23a.78.78,0,0,0-.6,0c-.28.06-.56.16-.84.24a1.09,1.09,0,0,0-.79.93,1.94,1.94,0,0,0,0,1.09,1.35,1.35,0,0,0,.81.9,6.43,6.43,0,0,0,1.14.32,1,1,0,0,0,.72-.16,2.12,2.12,0,0,0,.75-.63,1.27,1.27,0,0,0,.08-1.34s0-.09-.07-.14A3.4,3.4,0,0,0,88.56,88.23ZM55.77,22.37c0,.16,0,.33.06.49a1.5,1.5,0,0,0,.53.9c.12.07.21.18.36.2a4.59,4.59,0,0,0,1.48,0,1,1,0,0,0,.71-.58,2.4,2.4,0,0,0,0-2.17,1,1,0,0,0-.94-.64,2.17,2.17,0,0,0-1.36.26A1.3,1.3,0,0,0,55.77,22.37ZM70.23,138.45a.62.62,0,0,0-.08.4.41.41,0,0,1,0,.19c-.24.5,0,.9.22,1.33.13.28.4.34.63.45a3.05,3.05,0,0,0,.51.17,1,1,0,0,0,1.12-.35l.36-.45a1.68,1.68,0,0,0,.1-1.95,2.38,2.38,0,0,0-.49-.56.64.64,0,0,0-.6-.15c-.26.06-.52.13-.77.21a2.83,2.83,0,0,0-.35.15C70.63,138,70.36,138.15,70.23,138.45Zm5.84-49.51a2.16,2.16,0,0,1,.17-.34.46.46,0,0,0,.08-.25,2,2,0,0,0-.53-1.3,1.5,1.5,0,0,0-1.36-.37c-.13,0-.25.07-.38.08a1.34,1.34,0,0,0-1.13.95,1.58,1.58,0,0,0,.1,1.15c.13.41.53.6.81.89.07.07.19,0,.29,0a2,2,0,0,0,1.27-.2A1.09,1.09,0,0,0,76.07,88.94ZM35.92,81.61c-.25-.1-.52,0-.78.11a1.74,1.74,0,0,0-.8.48A1.43,1.43,0,0,0,34.42,84a1.47,1.47,0,0,0,1.4.4.56.56,0,0,1,.44,0,.36.36,0,0,0,.43-.07,1.49,1.49,0,0,0,.61-1.21,1.2,1.2,0,0,0-.24-.64C36.89,82,36.39,81.8,35.92,81.61Z"/></g></g></svg>