<svg xmlns="http://www.w3.org/2000/svg" viewBox="0 0 38.36 31.75"><defs><style>.cls-1{fill:#7cb342;fill-rule:evenodd;}.cls-2{fill:#17171a;}</style></defs><title>following_1</title><g id="レイヤー_2" data-name="レイヤー 2"><g id="レイヤー_1-2" data-name="レイヤー 1"><path class="cls-1" d="M28,22H10V20.85c0-1.64,0-3.19,2.51-3.78,1.84-.42,3.26-1.23,3.63-2.05a1.13,1.13,0,0,0-.08-1.08c-1.72-3.19-2-6-.91-7.89A4.32,4.32,0,0,1,19,4a4.31,4.31,0,0,1,3.82,2c1.13,1.88.82,4.69-.89,7.91a1.23,1.23,0,0,0-.07,1.1c.38.82,1.8,1.62,3.62,2C28,17.66,28,19.22,28,20.87ZM11,21H27v-.15c0-1.8-.08-2.44-1.74-2.82-.82-.19-3.54-.94-4.31-2.6a2.2,2.2,0,0,1,.1-2c1.53-2.91,1.86-5.37.91-6.93A3.28,3.28,0,0,0,19,5a3.29,3.29,0,0,0-3,1.55c-.95,1.58-.62,4,.93,6.89a2.12,2.12,0,0,1,.11,2c-.75,1.67-3.49,2.43-4.32,2.62-1.66.38-1.74,1-1.73,2.8ZM24.17,10a7.06,7.06,0,0,0,.62-2.85A4.46,4.46,0,0,1,24,4.67,4.85,4.85,0,0,1,29,0a4.86,4.86,0,0,1,5,4.67,4.82,4.82,0,0,1-5,4.65,6.57,6.57,0,0,1-1.44-.17A8.69,8.69,0,0,1,24.17,10ZM29,1a3.85,3.85,0,0,0-4,3.67,5.36,5.36,0,0,0,.75,2.21,6.69,6.69,0,0,1-.27,2,10.6,10.6,0,0,0,1.95-.79,7,7,0,0,0,1.6.2,3.82,3.82,0,0,0,4-3.65A3.86,3.86,0,0,0,29,1Zm0,.37-1,2-2.22.3,1.62,1.56-.4,2.2,2-1.06,2,1.06-.39-2.21,1.61-1.55L30,3.39Zm-.5,3.52L28,4.4l.71-.09L29,3.67l.31.64.7.09-.51.49.12.7L29,5.26l-.63.33Z"/><path class="cls-2" d="M5.11,24.83c.68,0,1,.28,1,.79a1.81,1.81,0,0,1,0,.39,7.39,7.39,0,0,1-4.19,5,.71.71,0,0,1-.2,0,.34.34,0,0,1-.34-.33.4.4,0,0,1,.28-.36,6.58,6.58,0,0,0,3.74-4.5,1.28,1.28,0,0,0,0-.17c0-.14-.1-.18-.34-.18l-4.7,0A.34.34,0,0,1,0,25.23a.33.33,0,0,1,.33-.35Z"/><path class="cls-2" d="M8.33,27.42a.28.28,0,0,1-.27-.31.28.28,0,0,1,.27-.3h2.85l0-1.3a.31.31,0,0,1,.34-.31.3.3,0,0,1,.32.29l0,1.32h1.64a.31.31,0,0,1,0,.61H11.85l.07,3.19c0,.6-.38.89-1,.89a3.58,3.58,0,0,1-.45,0,.32.32,0,0,1-.29-.33.29.29,0,0,1,.36-.3,2.31,2.31,0,0,0,.37,0c.25,0,.36-.1.35-.37l0-1.09,0-1.57a9.35,9.35,0,0,1-3.1,2.84.41.41,0,0,1-.19,0,.29.29,0,0,1-.29-.3.35.35,0,0,1,.2-.3,8.6,8.6,0,0,0,3-2.7Z"/><path class="cls-2" d="M16.91,30.53c-.86,0-1.21-.35-1.21-1V26.06c0-.69.35-1,1.21-1h3.57c.87,0,1.22.35,1.22,1V29.5c0,.68-.35,1-1.22,1Zm3.45-.65c.46,0,.62-.13.62-.49V26.16c0-.36-.16-.49-.62-.49H17c-.46,0-.62.13-.62.49v3.23c0,.36.16.49.62.49Z"/><path class="cls-2" d="M30.11,27.3a.32.32,0,0,1,.32.35.33.33,0,0,1-.32.35H23.56a.33.33,0,0,1-.32-.35.32.32,0,0,1,.32-.35Z"/><path class="cls-2" d="M32.34,28.66c-.67,0-1.08-.22-1.1-.95V26.34c0-.64.33-.95,1.1-.95h2.09V23.71a.31.31,0,0,1,.34-.29.3.3,0,0,1,.33.29v1.68h2.16c.77,0,1.1.31,1.1.95v1.37c0,.63-.33.95-1.1.95H35.1v2.82c0,.18-.16.27-.33.27s-.34-.09-.34-.27V28.66Zm2.09-.6V26H32.52c-.51,0-.62.11-.62.45v1.18c0,.35.11.45.62.45Zm2.65,0c.37,0,.6,0,.61-.45V26.43c0-.34-.11-.45-.61-.45h-2v2.08Z"/></g></g></svg>