<svg width="24" height="24" xmlns="http://www.w3.org/2000/svg" fill-rule="evenodd" clip-rule="evenodd"><path d="M12.005 5.001c-.687 0-1.245.559-1.245 1.246 0 .687.558 1.245 1.245 1.245s1.245-.558 1.245-1.245-.558-1.246-1.245-1.246m0 3.492c-1.238 0-2.245-1.008-2.245-2.246 0-1.239 1.007-2.247 2.245-2.247 1.237 0 2.245 1.008 2.245 2.247 0 1.238-1.008 2.246-2.245 2.246m6.74-3.492c-.686 0-1.245.559-1.245 1.246 0 .687.559 1.245 1.245 1.245.687 0 1.245-.558 1.245-1.245s-.558-1.246-1.245-1.246m0 3.492c-1.238 0-2.245-1.008-2.245-2.246 0-1.239 1.007-2.247 2.245-2.247 1.239 0 2.245 1.008 2.245 2.247 0 1.238-1.006 2.246-2.245 2.246m-13.49-3.492c-.687 0-1.245.559-1.245 1.246 0 .687.558 1.245 1.245 1.245s1.245-.558 1.245-1.245-.558-1.246-1.245-1.246m0 3.492c-1.238 0-2.245-1.008-2.245-2.246 0-1.239 1.007-2.247 2.245-2.247 1.238 0 2.245 1.008 2.245 2.247 0 1.238-1.007 2.246-2.245 2.246m13.665 6.161c.541 0 .979.403 1.018.935.032.438.29 3.26.29 3.26.023.262.425.251.436.002l.315-6.936c.021-.489.67-.662.925-.237l1.097 1.802-1.057-3.329c-.038-.123-.182-.211-.342-.211h-19.203c-.161 0-.305.088-.343.211l-1.06 3.4 1.1-1.873c.262-.43.905-.246.926.237l.314 6.936c.013.244.412.247.437-.002 0 0 .257-2.822.29-3.261.039-.531.476-.934 1.017-.934.465 0 .97.351 1.013.935.033.438.29 3.26.29 3.26.027.264.437.268.437.001.082-1.812.417-7.612.417-7.612.016-.261.231-.467.493-.47 1.007-.011.621-.011 1.624 0 .262.003.477.209.492.47 0 0 .282 5.803.418 7.613.022.292.427.266.436-.001 0 0 .258-2.823.291-3.262.042-.583.548-.934 1.012-.934.47 0 .977.351 1.018.937.033.451.291 3.258.291 3.258.033.255.421.263.436.001.082-1.812.417-7.612.417-7.612.015-.261.232-.467.494-.47.997-.011.615-.011 1.61 0 .262.003.479.209.494.47 0 0 .335 5.8.417 7.613.014.241.414.232.436 0 0 0 .258-2.809.291-3.263.041-.583.547-.934 1.013-.934m1.526 5.346c-.64 0-1.163-.459-1.214-1.065 0 0-.259-2.83-.292-3.273-.069.458-.328 3.273-.328 3.273-.049.606-.571 1.065-1.212 1.065-.655 0-1.189-.485-1.218-1.103-.069-1.498-.31-5.722-.391-7.133h-.654c-.081 1.411-.322 5.635-.391 7.132-.029.619-.563 1.104-1.217 1.104-.641 0-1.163-.459-1.213-1.067 0 0-.259-2.813-.293-3.271-.068.443-.327 3.273-.327 3.273-.05.606-.572 1.065-1.213 1.065-.654 0-1.189-.485-1.218-1.103-.069-1.498-.309-5.721-.39-7.133h-.666c-.081 1.412-.322 5.635-.39 7.132-.029.619-.564 1.104-1.217 1.104-.64 0-1.163-.459-1.215-1.065 0 0-.258-2.83-.291-3.273-.069.443-.327 3.273-.327 3.273-.052.606-.574 1.065-1.214 1.065-.654 0-1.189-.485-1.218-1.103l-.24-5.298-.244.401c-.234.389-.759.569-1.202.413-.389-.136-.651-.494-.651-.891l.041-.268 1.061-3.401c.17-.546.692-.914 1.297-.914h19.203c.595 0 1.129.375 1.298.914l1.059 3.399.041.27c0 .398-.263.755-.652.891-.415.149-.966-.023-1.201-.414l-.245-.401-.24 5.298c-.027.619-.561 1.104-1.216 1.104"/></svg>