<svg width="24" height="24" xmlns="http://www.w3.org/2000/svg" fill-rule="evenodd" clip-rule="evenodd"><path d="M1.981 8.444h20.038c.398 0 .747.264.856.648l1.105 3.904.02.139c0 .209-.127.402-.33.48l-.001.001c-.24.092-.511-.005-.635-.231l-1.144-2.071-.328 7.967c-.017.403-.347.719-.749.719h-.001c-.393 0-.716-.306-.746-.698-.068-.865-.249-2.933-.304-3.752-.022-.34-.271-.54-.541-.54-.242 0-.514.2-.537.54-.055.819-.236 2.887-.304 3.752-.03.392-.352.698-.746.698h-.001c-.402 0-.732-.316-.749-.719-.086-2.08-.435-8.736-.435-8.736h-1.669s-.349 6.656-.435 8.736c-.017.402-.347.719-.749.719h-.001c-.394 0-.716-.306-.746-.698-.068-.865-.249-2.933-.304-3.752-.023-.34-.295-.54-.537-.54h-.004c-.242 0-.515.2-.537.54-.055.819-.236 2.887-.304 3.752-.03.392-.353.698-.746.698h-.001c-.402 0-.732-.316-.749-.719-.086-2.08-.435-8.736-.435-8.736h-1.681s-.349 6.656-.435 8.736c-.017.403-.347.719-.749.719h-.001c-.394 0-.716-.306-.746-.698-.068-.865-.249-2.933-.304-3.752-.023-.34-.295-.54-.537-.54-.27 0-.519.2-.541.54-.055.819-.236 2.887-.304 3.752-.03.392-.353.698-.746.698h-.001c-.402 0-.732-.316-.749-.719l-.328-7.967-1.144 2.071c-.124.226-.395.323-.635.231l-.001-.001c-.203-.078-.33-.271-.33-.48l.02-.139 1.105-3.904c.109-.384.458-.648.856-.648zm3.019-4.444c1.104 0 2 .896 2 2s-.896 2-2 2-2-.896-2-2 .896-2 2-2zm14 0c-1.104 0-2 .896-2 2s.896 2 2 2 2-.896 2-2-.896-2-2-2zm-6.994 0c1.104 0 2 .896 2 2s-.896 2-2 2-2-.896-2-2 .896-2 2-2z"/></svg>