<svg width="24" height="24" xmlns="http://www.w3.org/2000/svg" fill-rule="evenodd" clip-rule="evenodd"><path d="M16.835 0c-1.656 0-3 1.344-3 2.999s1.344 2.999 3 2.999c1.655 0 3-1.344 3-2.999s-1.345-2.999-3-2.999m0 1c1.103 0 2 .896 2 1.999 0 1.103-.897 2-2 2s-2-.897-2-2 .897-1.999 2-1.999m-9.669-1c-1.656 0-3 1.344-3 2.999s1.344 2.999 3 2.999c1.655 0 3-1.344 3-2.999s-1.345-2.999-3-2.999m0 1c1.103 0 2 .896 2 1.999 0 1.103-.897 2-2 2s-2-.897-2-2 .897-1.999 2-1.999m9.648 14.828c.694 0 1.231.524 1.277 1.245.05.741.172 2.201.28 3.489l.156 1.896c.02.251.164.542.508.542.404 0 .455-.425.46-.556l.472-11.447c.022-.512.701-.655.937-.222l1.645 2.977c.118.215.451.125.451-.117l-1.6-5.675c-.093-.335-.402-.567-.749-.567h-17.303c-.346 0-.655.232-.749.566l-1.59 5.61c-.022.402.364.326.442.183l1.645-2.977c.244-.439.916-.283.937.222l.471 11.448c.011.256.146.555.49.555.329 0 .497-.271.518-.541l.16-1.94c.107-1.277.227-2.712.277-3.448.047-.719.584-1.243 1.277-1.243.584 0 1.218.465 1.27 1.244.049.734.169 2.169.276 3.446l.16 1.94c.019.251.161.542.499.542.382 0 .439-.389.446-.556.122-2.956.629-12.29.635-12.384.014-.266.233-.473.499-.473h1.963c.266 0 .485.208.499.474.006.094.494 9.427.617 12.384.012.276.174.555.509.555.344 0 .49-.291.508-.541l.165-1.982c.105-1.266.223-2.679.272-3.406.052-.778.687-1.243 1.27-1.243m2.222 8.172c-.807 0-1.44-.616-1.506-1.465-.035-.455-.092-1.143-.155-1.889-.108-1.294-.231-2.761-.282-3.507-.015-.231-.154-.311-.279-.311-.079 0-.256.078-.272.31-.049.731-.168 2.15-.274 3.422-.066.779-.126 1.502-.163 1.976-.065.848-.698 1.464-1.504 1.464-.826 0-1.474-.65-1.511-1.513-.106-2.567-.489-9.954-.591-11.9h-1.015c-.105 1.944-.502 9.333-.608 11.899-.038.892-.631 1.514-1.444 1.514-.803 0-1.432-.616-1.497-1.465l-.16-1.934c-.107-1.283-.228-2.724-.277-3.462-.016-.233-.194-.311-.272-.311-.125 0-.265.081-.279.309-.05.74-.171 2.182-.278 3.465l-.16 1.934c-.065.848-.702 1.464-1.513 1.464-.827 0-1.453-.637-1.491-1.513l-.398-9.665-.78 1.413c-.323.584-1.088.781-1.573.538-.46-.195-.754-.637-.754-1.138 0-.115.016-.229.047-.339l1.59-5.609c.215-.762.919-1.294 1.711-1.294h17.303c.793 0 1.497.533 1.712 1.294l1.59 5.61c.031.109.047.223.047.338 0 .503-.297.947-.759 1.14l-.037.017c-.566.218-1.238-.028-1.53-.558l-.781-1.412-.398 9.664c-.038.892-.638 1.514-1.459 1.514"/></svg>