<svg xmlns="http://www.w3.org/2000/svg" viewBox="0 0 365.24 250.23"><defs><style>.cls-1,.cls-2{fill:none;stroke:#1a1a1a;stroke-miterlimit:10;}.cls-1{stroke-width:0.25px;}.cls-2{stroke-width:0.24px;}</style></defs><title>gaku4</title><g id="レイヤー_2" data-name="レイヤー 2"><g id="レイヤー_2-2" data-name="レイヤー 2"><polygon class="cls-1" points="364.58 249.57 357.49 249.8 350.36 249.34 343.22 249.31 336.08 249.74 328.95 249.34 321.81 249.4 314.68 249.83 307.54 249.76 300.4 249.45 293.27 249.92 286.13 249.35 279 250.04 271.86 249.4 264.73 249.86 257.59 250.01 250.45 249.21 243.32 249.92 236.18 249.48 229.04 250.1 221.91 249.86 214.77 249.45 207.63 249.83 200.5 249.45 193.37 249.45 186.23 249.4 179.1 249.98 171.96 249.44 164.83 249.71 157.69 249.36 150.56 249.84 143.42 249.84 136.28 249.72 129.15 249.64 122.01 249.72 114.87 249.17 107.73 249.17 100.6 250.06 93.46 249.62 86.32 249.68 79.18 249.74 72.04 249.36 64.9 249.3 57.76 249.54 50.62 249.28 43.48 249.22 36.34 249.13 29.2 249.61 22.06 249.7 14.92 249.22 7.77 249.78 0.91 249.32 0.13 242.5 0.61 235.39 0.46 228.27 1.04 221.16 0.87 214.05 0.72 206.93 0.29 199.82 0.27 192.72 0.87 185.61 0.16 178.49 0.5 171.38 0.76 164.27 0.95 157.16 0.81 150.05 0.6 142.93 0.19 135.82 1.02 128.71 0.21 121.6 0.87 114.48 0.21 107.37 1.06 100.25 0.34 93.14 0.92 86.02 0.23 78.91 1.03 71.79 0.49 64.67 0.43 57.56 0.51 50.44 0.89 43.33 1.05 36.21 0.59 29.09 0.91 21.98 0.98 14.86 1.04 7.74 0.61 0.6 7.76 1.1 14.89 0.91 22.03 0.24 29.16 0.95 36.3 0.68 43.43 0.37 50.57 0.79 57.7 0.53 64.84 0.82 71.98 0.69 79.11 1.02 86.25 0.52 93.38 0.13 100.52 0.89 107.66 0.48 114.79 0.14 121.93 0.2 129.07 0.97 136.2 0.87 143.34 0.95 150.48 0.52 157.61 0.96 164.75 0.9 171.88 1.08 179.01 0.29 186.15 0.77 193.28 0.65 200.42 0.9 207.55 0.76 214.69 0.2 221.83 0.61 228.96 0.52 236.1 0.76 243.24 0.23 250.37 0.94 257.51 0.78 264.65 0.76 271.79 0.81 278.93 0.98 286.07 0.86 293.21 0.45 300.35 0.44 307.49 0.79 314.63 0.41 321.76 1.05 328.9 0.73 336.05 0.58 343.18 0.24 350.33 0.23 357.47 1.06 364.48 0.76 364.78 7.72 364.28 14.84 364.47 21.95 364.25 29.06 364.19 36.18 364.99 43.29 364.39 50.4 364.56 57.51 364.37 64.62 364.29 71.73 364.67 78.84 364.26 85.95 365.11 93.06 364.64 100.17 364.15 107.29 364.31 114.4 364.19 121.52 364.69 128.63 364.82 135.74 364.24 142.86 364.18 149.97 364.91 157.09 364.41 164.2 364.99 171.32 364.18 178.43 364.76 185.55 364.25 192.66 365.04 199.78 365.06 206.9 364.44 214.01 364.18 221.13 364.15 228.24 364.69 235.36 364.98 242.49 364.58 249.57"/><polygon class="cls-2" points="359.63 245.61 352.38 245.39 345.14 245.13 337.89 246.03 330.65 245.3 323.41 245.57 316.16 245.54 308.92 245.99 301.68 246.01 294.44 245.37 287.19 245.74 279.95 245.19 272.7 245.66 265.46 245.35 258.22 245.22 250.97 245.7 243.73 245.95 236.49 245.78 229.24 245.44 222 245.53 214.75 245.37 207.51 245.62 200.27 245.98 193.03 245.66 185.79 246.06 178.55 245.88 171.3 245.9 164.06 245.92 156.82 245.45 149.57 245.78 142.33 245.68 135.08 245.23 127.84 245.27 120.59 245.51 113.35 245.43 106.1 245.46 98.86 245.88 91.61 245.17 84.36 245.67 77.11 245.46 69.86 245.62 62.62 245.67 55.38 245.47 48.13 245.55 40.88 245.94 33.63 245.96 26.38 245.29 19.13 246.01 11.88 245.17 4.54 245.69 5.1 238.31 4.51 231.01 4.57 223.71 4.62 216.4 4.71 209.1 4.47 201.81 4.2 194.51 5 187.21 4.36 179.91 4.31 172.61 4.77 165.31 4.15 158.01 4.53 150.71 4.3 143.41 4.69 136.1 4.79 128.8 4.9 121.5 4.72 114.2 4.39 106.89 4.65 99.59 4.78 92.28 4.34 84.98 4.71 77.68 4.95 70.37 4.94 63.07 4.29 55.77 4.99 48.46 4.31 41.16 4.58 33.85 4.61 26.54 4.52 19.23 5.06 11.92 4.57 4.56 11.87 4.33 19.11 4.21 26.35 4.6 33.59 4.67 40.84 4.52 48.08 4.95 55.33 4.93 62.57 4.38 69.81 4.99 77.06 4.71 84.3 4.77 91.54 4.16 98.79 4.16 106.03 4.73 113.27 4.66 120.52 4.42 127.76 4.79 135.01 4.9 142.25 4.42 149.5 5.1 156.74 5.01 163.97 4.68 171.22 5.03 178.46 4.51 185.7 4.49 192.94 4.61 200.19 4.73 207.43 5.02 214.68 5.01 221.92 4.83 229.16 4.26 236.41 4.79 243.65 4.38 250.9 4.62 258.14 4.87 265.39 4.31 272.64 5.01 279.88 4.39 287.13 4.25 294.38 4.99 301.62 4.9 308.87 5.08 316.12 4.89 323.37 4.43 330.61 4.59 337.87 4.54 345.12 5.08 352.37 4.66 359.6 4.63 359.5 11.91 359.28 19.21 359.17 26.52 359.96 33.82 360 41.12 359.3 48.42 360.06 55.72 359.47 63.02 360.1 70.31 359.33 77.61 359.15 84.92 359.13 92.22 359.56 99.52 359.84 106.82 359.54 114.12 359.52 121.42 359.6 128.72 359.95 136.03 359.76 143.33 359.68 150.63 359.34 157.94 359.12 165.24 359.24 172.55 359.82 179.85 359.94 187.16 359.57 194.46 359.24 201.76 359.33 209.07 359.22 216.37 359.39 223.68 359.15 230.99 359.5 238.3 359.63 245.61"/><polyline class="cls-2" points="0.43 0.81 5.02 4.47 4.25 11.91 4.68 19.21 4.4 26.52 4.75 33.82 4.6 41.12 4.89 48.42 4.52 55.72 4.74 63.02 4.86 70.31 4.37 77.61 4.64 84.92 5.06 92.22 4.93 99.52 4.53 106.82 4.5 114.12 4.25 121.42 5.1 128.72 4.6 136.03 4.94 143.33 4.38 150.63 4.2 157.94 4.38 165.24 4.78 172.55 4.52 179.85 4.97 187.16 4.81 194.46 4.97 201.76 4.74 209.07 4.92 216.37 4.49 223.68 4.29 230.99 4.4 238.3 4.98 245.74 0.36 249.82 7.76 249.77 14.89 249.5 22.03 249.91 29.16 249.87 36.3 249.35 43.43 249.66 50.57 250.03 57.7 249.85 64.84 249.47 71.98 250.04 79.11 249.38 86.25 249.66 93.38 249.25 100.52 249.17 107.66 249.19 114.79 249.92 121.93 249.75 129.07 249.65 136.2 249.45 143.34 249.42 150.48 249.9 157.61 249.76 164.75 249.55 171.88 249.58 179.01 249.83 186.15 249.23 193.28 249.35 200.42 249.5 207.55 249.37 214.69 249.51 221.83 250.06 228.96 249.84 236.1 249.92 243.24 249.46 250.37 249.93 257.51 249.94 264.65 249.51 271.79 249.71 278.93 249.28 286.07 249.56 293.21 250.08 300.35 249.56 307.49 249.68 314.63 249.43 321.76 249.87 328.9 249.83 336.05 249.93 343.18 249.15 350.33 250.06 357.47 249.4 364.66 249.63 359.67 245.59 359.4 238.31 359.87 231.01 359.16 223.71 359.61 216.4 359.99 209.1 360.06 201.81 359.25 194.51 360.08 187.21 360.08 179.91 359.96 172.61 359.8 165.31 359.9 158.01 359.9 150.71 359.62 143.41 359.8 136.1 359.96 128.8 359.43 121.5 359.58 114.2 359.44 106.89 359.8 99.59 359.19 92.28 359.56 84.98 359.2 77.68 359.92 70.37 359.88 63.07 359.89 55.77 359.42 48.46 360.04 41.16 359.96 33.85 359.3 26.54 359.25 19.23 359.76 11.92 359.98 4.77 364.62 0.61"/></g></g></svg>