<svg xmlns="http://www.w3.org/2000/svg" viewBox="0 0 58.78 15.06"><defs><style>.cls-1{stroke:#111010;stroke-miterlimit:10;stroke-width:0.25px;}</style></defs><title>gallery</title><g id="レイヤー_2" data-name="レイヤー 2"><g id="レイヤー_2-2" data-name="レイヤー 2"><path class="cls-1" d="M6.16,11.71A12.2,12.2,0,0,0,5.5,9.43a6.73,6.73,0,0,0-2.09-.32l-2.15.24L.9,9.17.81,8.64l3.46-.15.88.15.09-.58L4.7,5.89c-1.26,0-2.51,0-3.76-.07L.38,5.57.17,5.05l.32-.11a16,16,0,0,0,2.92.26l.86,0,.49-.24.11-.19-.11-.47A1.34,1.34,0,0,1,5.15,3.2l.56.52v.41l-.09.73a11.76,11.76,0,0,1,4.13.58v.3l-.67.15a5.43,5.43,0,0,0-2-.24l-1.29.24-.15.6.56,2.06,2,.17.56-.17.83.26v.3c-1.24.2-2.26.34-3,.41l-.08.64a15.27,15.27,0,0,0,1.27,3.72L7.11,14A6.87,6.87,0,0,1,6.16,11.71ZM9.45,1.2,9.86,1l.43.34a2.22,2.22,0,0,0,0,.41,4.2,4.2,0,0,0,.46,1.83l-.5.21A9.7,9.7,0,0,1,9.45,1.2Zm2.86,2.32a16.86,16.86,0,0,1-.5-3.2l.47-.17a2.32,2.32,0,0,1,.39,1.31l-.06.39.15,2.06Z"/><path class="cls-1" d="M18.3,11.86a14.81,14.81,0,0,0-.95-2.51l-.66,0-.86.45-.54-.19V9.11l.43-.47,1.36-.37V7.65a3,3,0,0,1-.31-1.38l.46-.06a7.9,7.9,0,0,1,.88,2.06A18.13,18.13,0,0,0,20,8.4l.23-.13.28.11A6.57,6.57,0,0,0,23,7.76l.46.71-.15.36L23,9.22l-.62.23a1.2,1.2,0,0,1-.56.84l-.06.26-.88.62-.43.39-.17-.34.08-.35,1.33-1.72q-2.14.09-3.18.09l-.17.56L19,12.05a12.4,12.4,0,0,0,.92,2.3l-.54.2A11.16,11.16,0,0,1,18.3,11.86Z"/><path class="cls-1" d="M26.38,4.4,26,3.76l.65-.06a14.67,14.67,0,0,0,3,.47l.78,0a12,12,0,0,0,2.47-.26l.32.5-.07.36-2.51.15-.28-.08-1.27.08A9.12,9.12,0,0,1,26.38,4.4Zm2.73,9.72v-.37a3.13,3.13,0,0,0,2-1.31l.24-.17,1.25-1.72a4.24,4.24,0,0,0,.75-1.83c-1.19-.13-2.12-.2-2.77-.23a16.21,16.21,0,0,1-2.09.19c-.69,0-1.38.11-2.08.19L26,8.08a42.71,42.71,0,0,1,4.28-.22c.8,0,1.6,0,2.4.07l1.14-.15.32.58a10.89,10.89,0,0,1-.75,2.28,7.33,7.33,0,0,1-1.37,2l-.17.15L30.74,14l-1.12.62Z"/><path class="cls-1" d="M38.13,10a4.52,4.52,0,0,1-.32-1.65,2.19,2.19,0,0,1,0-.41c0-.24,0-.61,0-1.09s0-.86,0-1.1A1.29,1.29,0,0,0,38,5.14l0-.24-.08-.32.34-.2.34.26.09.9a21.54,21.54,0,0,0-.17,2.71c0,.43,0,.75,0,1v1Zm.6,4.45A8.67,8.67,0,0,0,41,13a8.77,8.77,0,0,0,1.2-3.44,19.85,19.85,0,0,0,.26-3.14l0-.79-.18-2.3.39-.17A.59.59,0,0,1,43,3.8l-.06.33.15.68V8.68a19,19,0,0,1-.49,2.81A6.91,6.91,0,0,1,41.31,14a3.62,3.62,0,0,1-2.3,1Z"/><path class="cls-1" d="M47.17,9.26l-.08-.36a1.22,1.22,0,0,1,.9-.35q3.38-.3,7-.3c1.16,0,2.33,0,3.5.07l.09.55-.43-.06-.09.24a29.41,29.41,0,0,1-3.22.19,29.66,29.66,0,0,1-3.25-.19,10,10,0,0,1-2,.25,15.22,15.22,0,0,0-2,.22Z"/></g></g></svg>