<svg xmlns="http://www.w3.org/2000/svg" viewBox="0 0 58.01 16.17"><defs><style>.cls-1{fill:#111010;stroke:#111010;stroke-miterlimit:10;stroke-width:0.25px;}</style></defs><title>logout</title><g id="レイヤー_2" data-name="レイヤー 2"><g id="レイヤー_2-2" data-name="レイヤー 2"><path class="cls-1" d="M.36,13.17a.86.86,0,0,1,0-.22,1.4,1.4,0,0,0,.21-1,5.82,5.82,0,0,1-.17-1.36l0-.45.09-.3L.44,9.56.59,6.89A5.67,5.67,0,0,0,.16,5a4.38,4.38,0,0,1,1.7-.38c1,0,1.83,0,2.34,0l.19.09L5,4.57a17,17,0,0,0,2.91.11,13.24,13.24,0,0,1,.17,2.21L8,7.6c-.06,2.14-.11,3.74-.15,4.82H7.47l-.24-.28H6.89l-.76.19a8.39,8.39,0,0,1-2.27-.45,8.07,8.07,0,0,1-2.28.3l-.3,0A4.09,4.09,0,0,0,1,13.73l-.26.1A.8.8,0,0,1,.36,13.17Zm7-2.32c0-.09,0-.23,0-.43L7.14,8.7,7.3,5.39A14.61,14.61,0,0,0,5.55,5.3c-.51,0-1,0-1.61.07l-2.55.24L1.13,7.13,1.21,8l-.08.24c0,.67.06,1.7.08,3.09h1.9l.68-.09a9.17,9.17,0,0,1,3.31.61A2.07,2.07,0,0,0,7.34,10.85Z"/><path class="cls-1" d="M12.69,13.81a1.54,1.54,0,0,0,.92-.53,25.32,25.32,0,0,0,2.26-3.57,17.81,17.81,0,0,0,1.44-3.85L17,5.73a21,21,0,0,1-2.38.13c-.56,0-1.13,0-1.7-.06l-.73.45-.71,1.53-.58.15-.28-.61a5.58,5.58,0,0,0,1.14-2.08c.17-.54.37-1.32.58-2.34h.45l.32.26v.4A11.1,11.1,0,0,1,12.69,5l.3.22h4l1-.33.54.26.06.41-.94,2.26-.2,0V8l.07.35a.79.79,0,0,0-.33.77L17,9.47l-.24.17-.39,1.1A19.28,19.28,0,0,1,14.21,14l-.53.39-.26.34H13A1,1,0,0,1,12.69,13.81Zm7.22-10.7-.56-1.72.45-.06.58.62.36,1.31-.4.28ZM21.2.32l.45-.17a5.35,5.35,0,0,1,1.26,3.11l-.43.22A19.89,19.89,0,0,0,21.2.32Z"/><path class="cls-1" d="M28.16,15.57a4.34,4.34,0,0,0,1.29-1.41,15.79,15.79,0,0,0,.81-2.28,11.53,11.53,0,0,0,.26-2.49,6.31,6.31,0,0,1-.22-1.7l.35-.09.34.18.24.86h.28a8.25,8.25,0,0,0,1.85-1.25,9.23,9.23,0,0,0,1.18-2.21l-1-.09-1.33.09L32,5.09l-1.31.32-.47-.15a20.93,20.93,0,0,0-4.11.3l-.51-.26-.11-.42,1.07-.26L28,4.68l.21-.06c2.81,0,5.34,0,7.61-.09l.08.54a9.36,9.36,0,0,0-1,1.52l-.24.09-.24.54h-.28l-.08.36L32.63,9a2.3,2.3,0,0,0-1.23.69A12.61,12.61,0,0,1,30.8,13a8.3,8.3,0,0,1-1.63,2.88l-.65.18Z"/><path class="cls-1" d="M40.57,14.89a5.78,5.78,0,0,0,2.69-2,9.48,9.48,0,0,0,1.85-3.12c.38-1.06.79-2.26,1.2-3.61a1.18,1.18,0,0,0-.82-.23,3.39,3.39,0,0,0-.6,0,12.78,12.78,0,0,1-2.53.26,12.86,12.86,0,0,1-3-.34l-.08.58.08,3.73-.43.07a1.18,1.18,0,0,1-.43-.9,2.41,2.41,0,0,1,0-.31c-.07-1.18-.1-2.54-.1-4.06L39,4.94a28.31,28.31,0,0,0,3.68.24l.06-.2-.3-3.86L42.83.9a8.4,8.4,0,0,1,.67,3.67l-.15.54a3.58,3.58,0,0,0,1,.15,1.9,1.9,0,0,0,.38,0c.6-.07,1.18-.12,1.72-.15l.65.41-.39,1.67A14.69,14.69,0,0,1,46,9.88H45.8L45.52,11l-.33.24A9.44,9.44,0,0,1,44.27,13l-.47.49-.33.54-.75.47c0,.22-.21.3-.49.26a1.35,1.35,0,0,1-1.14.41Z"/><path class="cls-1" d="M49.83,9.62l.07-1.89a4.27,4.27,0,0,1-.26-1.42l.19-1.09-.08-1.44.45-.28a4.26,4.26,0,0,1,.3,1.63L50.44,6l.15.86A32.71,32.71,0,0,1,54,8.59a32.85,32.85,0,0,0,3.59,1.83l-.86.17a5.8,5.8,0,0,0-1.65-.54L55,9.82a5.93,5.93,0,0,1-1.87-.65L53,8.74l-.48.13-.92-.71-.26.09L50.65,8,50.44,12l.06.23-.06.39.15.88a3.76,3.76,0,0,1-.28,1.46l-.41.17Z"/></g></g></svg>