<svg xmlns="http://www.w3.org/2000/svg" viewBox="0 0 34.39 17.43"><defs><style>.cls-1{fill:#111010;stroke:#111010;stroke-miterlimit:10;stroke-width:0.25px;}</style></defs><title>megutu</title><g id="レイヤー_2" data-name="レイヤー 2"><g id="レイヤー_2-2" data-name="レイヤー 2"><path class="cls-1" d="M13.62,17.3a31.47,31.47,0,0,1-4.87-1.38,25.72,25.72,0,0,0-4.88-1.29l-.39.1-.31-.1A14.09,14.09,0,0,1,.24,15.76l-.09-.33a16.5,16.5,0,0,0,3.72-2.86l1.13-1v-.33A23.76,23.76,0,0,1,.33,10v-.4l.61-.11a7.15,7.15,0,0,0,2.7.92A17.22,17.22,0,0,1,6.43,11l.09.43a9.76,9.76,0,0,0-3.14,2.43l-.09.33h.82l.58-.09c1.63.54,3.25,1.08,4.87,1.59A41.28,41.28,0,0,0,14.63,17ZM4.3,5v-.4A11.79,11.79,0,0,0,1.86.66L2.58.43a23.15,23.15,0,0,1,2,2.91l.21,1.12A.69.69,0,0,1,4.3,5Zm8,7a29.74,29.74,0,0,1-3.12-1.71c-1-.64-2-1.27-3-1.87L6,8C7,6.66,8.07,5.37,9.16,4.1a34.57,34.57,0,0,0,2.94-4h.4l.19.54Q11.37,2.49,9.86,4.3T6.94,8a30.48,30.48,0,0,0,2.72,2,12.87,12.87,0,0,0,3,1.47l.11.51Zm4.05-1.45L11.87,6.83A13.59,13.59,0,0,0,15.15,3l.49-.84.59-.1.11.4A17.42,17.42,0,0,1,14.12,5.7L13,7q1.92,1.55,3.75,3.07l.31.11v.31ZM21,10.3l-.5-.31a27.29,27.29,0,0,1-3.77-3.37,15,15,0,0,0,2-2.16Q19.5,3.34,20.4,2.3h.3l.31.43c-.61.67-1.19,1.33-1.73,2a13.61,13.61,0,0,0-1.41,2.11A8.4,8.4,0,0,0,19.8,8.61a9.21,9.21,0,0,1,1.91,1.69Z"/><path class="cls-1" d="M26.8,15.15a2.1,2.1,0,0,1-.52-1.38,3.54,3.54,0,0,1,0-.45,2.34,2.34,0,0,1,1-1.76,5.86,5.86,0,0,1,3.47-1.29l.07-1.15L30.24,8l-.33-.17a2.08,2.08,0,0,0-1.52-.63l-.4,0A13.57,13.57,0,0,1,26,8V7.23a10,10,0,0,0,2.08-2.18c.45-.64,1.06-1.46,1.83-2.44l.37-1q-1-.07-2.13-.24a8.56,8.56,0,0,1-2.41.5l-.42-.19V1.34L25.6,1,29.87.88a4.88,4.88,0,0,1,1.36.37v.54a4,4,0,0,1-1,1.38l-1,1.57-.21.07a2.62,2.62,0,0,1-1,1.27v.35a3.06,3.06,0,0,1,2.91,1.38,7.19,7.19,0,0,1,.75,2.39l1.71.17.47-.1.31.45h-.43l-.35-.1-.91.17-.26-.07L31.6,11a11.59,11.59,0,0,1-1.22,3.24l-.75.7a5.07,5.07,0,0,1-2,.59Zm2.41-.87.82-.73.87-2.2a.73.73,0,0,0-.59-.26l-.3.05a5.13,5.13,0,0,0-2.75,1.69A2.08,2.08,0,0,0,27,14.14l.4.49.91.1Z"/></g></g></svg>