<svg xmlns="http://www.w3.org/2000/svg" viewBox="0 0 64.9 13.59"><defs><style>.cls-1{stroke:#111010;stroke-miterlimit:10;stroke-width:0.25px;}</style></defs><title>mypage</title><g id="レイヤー_2" data-name="レイヤー 2"><g id="レイヤー_2-2" data-name="レイヤー 2"><path class="cls-1" d="M6.5,12.26a3,3,0,0,0-2.15-1.91A7.93,7.93,0,0,1,2.82,8.27l.54-.2,1.25,1.1h.17l.73-.45a10.29,10.29,0,0,1,1.2-1.4c.53-.54,1.1-1.18,1.7-1.91l.39-.75a2.24,2.24,0,0,0-.88-.15l-.46,0L3.77,5H.35L.14,4.55l.13-.28.94-.15.93.15.38-.15.86.09.3-.09.54.09a7.86,7.86,0,0,0,2.23-.32,11.05,11.05,0,0,1,1.27-.07A11.13,11.13,0,0,1,9.63,4l.56-.08.09.3c-.86,1-1.66,2-2.41,3l-.23.07-.13.36A20.07,20.07,0,0,1,5.57,9.56v.28a2.75,2.75,0,0,0,1.1,1.65A10,10,0,0,1,8.28,13v.28l-.54.18Z"/><path class="cls-1" d="M18.34,12.07l-.09-.3A2.28,2.28,0,0,1,18,10.5l.15-.41a18.45,18.45,0,0,1-.23-2.81l0-.69-.17-.06-.54.32-.24.3-.3.17A15.77,15.77,0,0,1,15,8.89L14.47,9v.21l-.71.67-.62.06q-.37-.06-.3-.54A23.08,23.08,0,0,0,15,7.73l1.28-1.09A8.2,8.2,0,0,1,17,6c.71-.76,1.23-1.31,1.57-1.65.59-.63,1.07-1.18,1.44-1.64A1.35,1.35,0,0,1,20.59,2L21,1.89l.17.6-.62.82h-.22A1,1,0,0,1,20,4l-.24.24-.27.24a3.73,3.73,0,0,0-.78,2.32,4.37,4.37,0,0,0,.07.79l.08.47-.08.24c0,1.1.05,1.92.08,2.45l-.08.3.23,1.5-.06.35h-.71Zm.1-3.74.17-.17-.36-.06v.23Z"/><path class="cls-1" d="M32.24,9.6l-.76-.75A24.65,24.65,0,0,0,29,6.72l-.23-.19a.68.68,0,0,0-.6-.32,1.3,1.3,0,0,0-.28,0c-.52.44-1.09,1-1.72,1.61Q25.12,9,24.61,9.66l-.34.89h-.52V10.2A6.88,6.88,0,0,1,25.94,7,5.15,5.15,0,0,1,28.2,5.39a13,13,0,0,1,3.09,2.34C32.52,9,33.45,10,34.06,10.65V11l-.28.24Zm.7-4.23a3.58,3.58,0,0,1-1.13-1.81l.73-1.37a2,2,0,0,1,1.37-.3l1,.77L35,4.72l-.52.71-.73.07h-.3Zm1.53-1.46a3,3,0,0,0,0-.35,1,1,0,0,0-.5-.83l-.55-.16-.69.48-.09.9a3,3,0,0,0,1.64,1A2.47,2.47,0,0,0,34.47,3.91Z"/><path class="cls-1" d="M37.65,8l-.09-.36a1.23,1.23,0,0,1,.91-.35q3.36-.3,7-.3,1.74,0,3.51.06l.08.56-.43-.06-.08.24A29.59,29.59,0,0,1,45.36,8a29.62,29.62,0,0,1-3.24-.19,11,11,0,0,1-2,.25,15.59,15.59,0,0,0-2,.22Z"/><path class="cls-1" d="M54.45,7.86,54.24,8,54,7.8H53.7l-.41-.18-.39.09-1.16-.49-.1-.43L52,6.68a10.21,10.21,0,0,0,2,.56,10.15,10.15,0,0,1,2,.51L54.84,8ZM53,3.67l-.11-.36h.45a21.28,21.28,0,0,0,3.16,1l.08.41L56,4.81A16.26,16.26,0,0,1,53,3.67Zm1.31,8.25v-.3a11.1,11.1,0,0,0,3.26-1.29,27.16,27.16,0,0,0,2.95-2l.92-1L62,7.06c.33,0,.5.18.5.54L60.83,9l-.15.32-1.4.8a5.16,5.16,0,0,1-1.91.94l-.06.3a8,8,0,0,1-2.62.73ZM61.11,1.56l.09-.25.49,0,1.5,1.72L63,3.48A9.18,9.18,0,0,1,61.11,1.56ZM62.87.49,63,.17l.8.36,1,1.27-.15.45A15.26,15.26,0,0,1,62.87.49Z"/></g></g></svg>