<svg xmlns="http://www.w3.org/2000/svg" viewBox="0 0 67.94 20.33"><defs><style>.cls-1{stroke:#111010;stroke-miterlimit:10;stroke-width:0.25px;}</style></defs><title>アセット 8</title><g id="レイヤー_2" data-name="レイヤー 2"><g id="レイヤー_2-2" data-name="レイヤー 2"><path class="cls-1" d="M.31,18.19l-.17-.56a3.39,3.39,0,0,0,.45-1.78l-.07-.39.07-1.24.19-.28-.36-.75.1-.28.17-.28-.1-.5.19-.47-.19-.38.19-.91L1,10.16.78,9.71V9h.28L.87,8.1,1,7.62.78,5.73a1.1,1.1,0,0,1,.56-1.24l.47.86-.11.27L2,6H3.29l.28-.11,1.77.31L6,5.9a3.23,3.23,0,0,0,.56-2.44l-.39-.2L5,3.46l-.56-.09c-1.24.26-2.48.5-3.72.73L.31,3.82V3.46a16.24,16.24,0,0,1,3.25-.63L6.9,2.51l.76.28v.47L7.29,4.79l.09.28a4.54,4.54,0,0,0-.26,1.52L7.18,7,6.9,8.85l-.75.28L5,9,1.9,9.51l-.09-.28A2.87,2.87,0,0,0,1.45,11l.06.28a4.61,4.61,0,0,0-.45,2.77l.11.66-.11.37-.19.28.3.1v.95l-.11.28.11,1-.39.47ZM6,8.46a2.74,2.74,0,0,0,.39-1.7l-.11-.55-1,.19-.37-.19v.47L2.91,6.59,1.7,7a4.33,4.33,0,0,0-.19,1.7l.65.17Zm5.93,10-.45-.22a6.09,6.09,0,0,0,0-2.17l.11-.28-.39-.66-.3-.09-.52.2L9.16,15A2.65,2.65,0,0,0,9,16.5l.08.83-.75.3a16,16,0,0,0-.37-2.55H7.18c-.68.18-1.34.37-1.95.56l-.45-.18-.09-.27c1.12-.32,2.23-.61,3.35-.86l.09-1.92-.2-.83A1.11,1.11,0,0,1,7,11.21l2.41-.4a11.4,11.4,0,0,1,2.49-.09l.58.1.45-.1.37.38-.82.28-.22.39-.17.64.17.5-.06.28.28.86c1,.11,2.09.24,3.14.38l-1.29.28-.28-.1-1,.19-.28-.09a5,5,0,0,0-.54,2.07l.17.27-.11.28.11,1Zm-.65-4.19.2-2.64a1.35,1.35,0,0,0-1-.2l-.37.11-.38-.11-.37.11L9,11.38l-.2.39A3.6,3.6,0,0,1,9,13.38l-.28.47.36.3.11.28h1.72ZM20,19.44l-1.14-1.61h.3l.65.28.19-.39.36-.45h-.28V16.5c-.18-1.26-.34-2.5-.47-3.7l.11-.67-.11-.85.2-.35-.2-1H20l-.45-.45-.22-.69-.47-.06-.54.17-.83-.28L17,8.68l-.36-.22-1,.22-1.4-.22-.64.22-.65-.28-.09-.58L13,7l-.09-.3L13,6.4l-.09-.28.19-1a10.24,10.24,0,0,0-.58-2.83l.2-.39,1.2-.3,2.71.3V2.4l-.39.11L16,2.4l-2.23.28L13.69,4l.37.55a13.56,13.56,0,0,0,2.51.34c.87,0,1.74.05,2.6.05a3.25,3.25,0,0,0,.28-2A16.14,16.14,0,0,0,17.3,2.4L17,2.51,17.13,2,18,2l1.78.28L20,2.12l.36,1.06-.17.64.09.67A4.85,4.85,0,0,1,19.82,7l.27.06L20.2,8.1l-.11.3.2.73a4.5,4.5,0,0,0-.2,1.8l.2.45a18.88,18.88,0,0,0,.26,4.92l-.07.39a6.59,6.59,0,0,1,.37,2.64ZM19.34,8.1a2.94,2.94,0,0,0,.28-1.34l-.45-1-.36-.11-.28.11a4.14,4.14,0,0,0-1.77-.38l-1.13.1-.28-.1-.26.27a3.39,3.39,0,0,0-1.59-.17,2,2,0,0,1,.39,1.14l-.2.84L14,7.9l5.14.39Z"/><path class="cls-1" d="M26.54,17.74v-1.8C26.37,15,26.22,14,26.09,13a15.28,15.28,0,0,0-.65-2.9l-.3-.09-1.37,1.48h-.39l-.11.28-.47.28-.64.39-.28-.56a20.12,20.12,0,0,0,1.73-1.59c.53-.56,1.08-1.13,1.64-1.7l.19-.28A21.11,21.11,0,0,0,27.79,5l.53-.1.28.68a16.29,16.29,0,0,1-1.44,2,3.33,3.33,0,0,0-.79,2.24,5.15,5.15,0,0,1,.45,1.9l-.17.3a29.2,29.2,0,0,1,.66,4H27v.65l.18.77-.18.28Zm5.09,2.45-.38-.66.55-.28a40.12,40.12,0,0,0-.1-5.37,3.69,3.69,0,0,0,.19-1.62L31.7,11a4.41,4.41,0,0,0-1.1,1,2.34,2.34,0,0,1-1.89.64l-.47-.47a6.08,6.08,0,0,0,2.64-2,18.29,18.29,0,0,1,1.63-1.78,17.88,17.88,0,0,1,1.81-1.51h.75l.28.56-.58.75a9.16,9.16,0,0,0-1.59.95l-.47,1.2a2.87,2.87,0,0,0,1.89.39,25.13,25.13,0,0,1,3.18-3.18h.45l.11.64L38,8.61,37.69,9,37,9.36l-.36.93.92.19,2.34-.11.31.5h-.31l-1-.22-.66.22-.37-.11a3,3,0,0,0-1.2.47l-.22-.3-.25,1.42a3,3,0,0,0,.36,1.42,3.48,3.48,0,0,1,2.06.58l-.55.11-.65-.31-.28.09-.3-.09-.45.37-.28,1,.17.83,2.07.2v.28h-.28l-.28-.11-.37.11-.28-.11-.47.21-.39-.1a1,1,0,0,1-.28.94,8.12,8.12,0,0,1,.45,1.31A37.9,37.9,0,0,0,42.18,19l.17.28-.84.28-1.28-.11-1.14.11-.48-.18-.66.18-.26-.11c-1.13.18-2.29.31-3.48.38l-.28-.1-.28.1-.26-.1A2.46,2.46,0,0,1,31.63,20.19ZM31.14,6.63,30.6,6q.54-2.24,1.2-4.41h.56l.28.48-.49,1.59q-.25.86-.45,1.8l.38.19a11.74,11.74,0,0,0,3-.58,2.8,2.8,0,0,0,.28-1.52,10,10,0,0,1,0-2.45l.17-.93h.39l.47.37v.67l-.19.75.08.47-.17.77.09,1.59,3.35.56.75-.56V3.88A22.08,22.08,0,0,1,39.84.4l.28-.08.64.28.5,4.7A3.11,3.11,0,0,1,39.37,6a9.09,9.09,0,0,0-2.93-.35c-.85.23-1.74.43-2.65.59S32,6.51,31.14,6.63Zm4.1,7.05.11-1.78-.58-.47-.28.08L34,11.32a2.66,2.66,0,0,1-1.23.3l-.1,1.59.1.47Zm-.17,5.57a3.85,3.85,0,0,0,.34-2.07A1.55,1.55,0,0,0,34,16.69l-1.14.21L32.71,19l.3.38Zm.17-3,.11-1.49-.67-.58-.56.2-1-.11a2.43,2.43,0,0,0-.28,1.7A5.9,5.9,0,0,0,35.24,16.22Z"/><path class="cls-1" d="M49.18,18.41a6.62,6.62,0,0,0,2-2.26v-.3A9.71,9.71,0,0,1,49,13.72l-.15-.66a3.91,3.91,0,0,1,1-2.3A1.41,1.41,0,0,1,51,10.27a1.55,1.55,0,0,1,.8.34l.08-2.15a8.52,8.52,0,0,0-2-.24c-.18,0-.47,0-.86,0s-.94.06-1.39.06A15.36,15.36,0,0,1,46,8.25l-.08.32-.28.08L45,8.31l-.15-.41a1,1,0,0,1,.77-.41l.35,0c1.07.1,2,.15,2.77.15a27.21,27.21,0,0,0,2.9-.17l.21-.43-.08-.88c.11-.59.25-1.14.4-1.66l.84.77v.26a4,4,0,0,0-.3,1.87l.34.13C54,7.48,55,7.41,56,7.37l.86.42.17.46h-.3a3.57,3.57,0,0,0-1.1-.18l-.36,0a10.53,10.53,0,0,0-2.56.36l-.08,4,.08,1.5a4.69,4.69,0,0,1-.43,2,8.21,8.21,0,0,1-1,1.7l-.41.43-1.44.79Zm2.71-5.65-.62-1.7L51,11a4.15,4.15,0,0,0-1.12,1.55l-.09,1.16.37.47.47.33a1.45,1.45,0,0,0,1,.6A9.22,9.22,0,0,0,51.89,12.76Z"/><path class="cls-1" d="M61,17.55a1.94,1.94,0,0,1-.47-1.27,2.83,2.83,0,0,1,0-.41,2.17,2.17,0,0,1,.94-1.61,5.37,5.37,0,0,1,3.18-1.18L64.72,12,64.12,11l-.3-.15a2,2,0,0,0-1.4-.58,1.64,1.64,0,0,0-.37,0,13.55,13.55,0,0,1-1.84.73v-.71a9.31,9.31,0,0,0,1.91-2c.41-.59,1-1.33,1.67-2.24l.35-.88c-.6,0-1.26-.11-2-.21A7.83,7.83,0,0,1,60,5.41l-.39-.17V4.89l.28-.34,3.91-.09A4.89,4.89,0,0,1,65,4.81V5.3a3.73,3.73,0,0,1-.93,1.27L63.21,8,63,8.07a2.31,2.31,0,0,1-.94,1.16v.33a2.82,2.82,0,0,1,2.66,1.26,7,7,0,0,1,.69,2.2l1.57.15.42-.09.28.41h-.38L67,13.4l-.84.15-.24-.06-.56.21a10.82,10.82,0,0,1-1.11,3l-.69.64a4.48,4.48,0,0,1-1.81.54Zm2.21-.8.75-.66.8-2a.66.66,0,0,0-.54-.24l-.28.05a4.67,4.67,0,0,0-2.51,1.54,1.91,1.91,0,0,0-.24,1.2l.37.46.83.08Z"/></g></g></svg>