<svg xmlns="http://www.w3.org/2000/svg" viewBox="0 0 258.13 49.3"><defs><style>.cls-1{fill:#111010;stroke:#111010;stroke-miterlimit:10;stroke-width:0.25px;}</style></defs><title>open_exhibition</title><g id="レイヤー_2" data-name="レイヤー 2"><g id="レイヤー_2-2" data-name="レイヤー 2"><path class="cls-1" d="M.51,39.55.14,38.33a7.49,7.49,0,0,0,1-3.89L1,33.59l.14-2.71.42-.61L.75,28.62,1,28l.37-.61-.23-1.08.42-1-.42-.85.42-2L2,22l-.42-1V19.58h.61l-.42-2.06.23-1-.42-4.12c-.12-1.38.28-2.28,1.22-2.72l1,1.88-.23.6.61.85H7l.61-.24,3.84.66,1.41-.66A7.07,7.07,0,0,0,14.1,7.39L13.26,7l-2.58.42L9.46,7.2C6.75,7.77,4,8.3,1.35,8.8L.51,8.19v-.8A36.21,36.21,0,0,1,7.61,6q3.63-.33,7.29-.7l1.64.61V7l-.79,3.33.18.61a10.56,10.56,0,0,0-.56,3.32l.14.85-.61,4.08-1.64.61-2.58-.38c-2.15.41-4.39.81-6.7,1.22L3.79,20A6.22,6.22,0,0,0,3,23.84l.14.61a10.11,10.11,0,0,0-1,6.05L2.39,32l-.24.8-.42.61.66.23v2.07l-.24.61.24,2.25-.85,1ZM12.89,18.31a5.85,5.85,0,0,0,.84-3.7l-.23-1.22-2.25.42-.8-.42v1l-4.27-.19-2.62.85a9,9,0,0,0-.42,3.7l1.4.38ZM25.82,40l-1-.47a13.48,13.48,0,0,0,0-4.74l.23-.61-.84-1.45-.66-.19L22.45,33l-2.63-.42a5.94,5.94,0,0,0-.42,3.28l.19,1.83L18,38.33a35.37,35.37,0,0,0-.8-5.58H15.51c-1.5.41-2.92.81-4.26,1.22l-1-.38L10.07,33c2.44-.68,4.88-1.31,7.32-1.87l.18-4.17-.42-1.83a2.36,2.36,0,0,1-2-.8q2.63-.46,5.25-.86a25,25,0,0,1,5.43-.22l1.27.24,1-.24.8.85-1.78.61-.47.84-.37,1.41L26.62,28l-.14.6.61,1.88q3.42.38,6.84.84L31.12,32l-.61-.23-2.25.42L27.65,32a11.1,11.1,0,0,0-1.17,4.5l.37.61-.23.61.23,2.11Zm-1.4-9.14.42-5.77a2.87,2.87,0,0,0-2.2-.42l-.8.23L21,24.69l-.8.23-.8-.23-.42.84a7.65,7.65,0,0,1,.42,3.52l-.61,1,.8.65.23.61h3.75ZM43.5,42.27,41,38.75h.66l1.4.61.43-.84.79-1h-.61V35.84c-.4-2.75-.75-5.43-1-8.06l.24-1.45-.24-1.88.42-.75-.42-2.29h.85l-1-1L42,18.92l-1-.14-1.17.38L38,18.55l-1,.23-.8-.47-2.25.47-3-.47-1.41.47-1.41-.61-.18-1.26.37-1.83-.19-.66.19-.61-.19-.61.43-2.06A23,23,0,0,0,27.23,5l.42-.84,2.63-.66,5.9.66v1l-.84.24-.56-.24L29.9,5.7l-.19,3,.8,1.22A30.28,30.28,0,0,0,36,10.6q2.85.12,5.67.12a7.05,7.05,0,0,0,.61-4.36,33.66,33.66,0,0,0-4.69-1.27L37,5.33l.23-1L39,4.11l3.89.61.61-.24.79,2.3-.37,1.41.18,1.45a10.49,10.49,0,0,1-1,5.44l.61.14.24,2.3-.24.65.42,1.6a9.93,9.93,0,0,0-.42,3.93l.42,1a41.11,41.11,0,0,0,.57,10.73l-.14.85A14,14,0,0,1,45.32,42ZM42,17.52a6.44,6.44,0,0,0,.61-2.91l-1-2.25-.8-.24-.61.24a9.1,9.1,0,0,0-3.84-.84l-2.49.23-.61-.23-.56.6a7.22,7.22,0,0,0-3.47-.37,4.34,4.34,0,0,1,.85,2.48l-.43,1.83.57,1,11.2.85Z"/><path class="cls-1" d="M57.75,38.56V34.62q-.57-3.09-1-6.37a34.63,34.63,0,0,0-1.41-6.33l-.65-.19L51.7,25h-.85l-.23.61-1,.61L48.18,27l-.61-1.22a41.69,41.69,0,0,0,3.78-3.47q1.76-1.83,3.58-3.7l.42-.61a46.26,46.26,0,0,0,5.11-7.22l1.18-.23.61,1.5a36.34,36.34,0,0,1-3.15,4.29,7.34,7.34,0,0,0-1.73,4.9,11.34,11.34,0,0,1,1,4.12l-.37.66a61.1,61.1,0,0,1,1.45,8.81h-.61v1.41L59.2,38l-.38.61Zm11.1,5.35L68,42.45l1.22-.61A86.57,86.57,0,0,0,69,30.12a8,8,0,0,0,.42-3.51L69,23.94a9.44,9.44,0,0,0-2.4,2.11,5.06,5.06,0,0,1-4.12,1.4l-1-1a13.26,13.26,0,0,0,5.76-4.31,37.49,37.49,0,0,1,3.57-3.89,38,38,0,0,1,3.93-3.28h1.64L77,16.16,75.7,17.8a19.35,19.35,0,0,0-3.47,2.06l-1,2.62a6.27,6.27,0,0,0,4.12.85,56.15,56.15,0,0,1,6.94-6.94h1l.23,1.41-.84.84-.57.8-1.45.84-.8,2,2,.42L87,22.48l.65,1.08H87l-2.25-.47-1.45.47-.8-.23a6.36,6.36,0,0,0-2.63,1l-.47-.66-.56,3.1a6.35,6.35,0,0,0,.8,3.09,7.68,7.68,0,0,1,4.5,1.27l-1.22.23-1.41-.66-.61.19-.65-.19-1,.8-.61,2.11L79,35.47l4.5.42v.61h-.61l-.61-.23-.8.23-.61-.23-1,.46L79,36.5a2.16,2.16,0,0,1-.61,2.06,18.94,18.94,0,0,1,1,2.86,83,83,0,0,0,12.52-.19l.38.61-1.83.61-2.82-.23-2.48.23-1-.37-1.45.37-.57-.23a74.32,74.32,0,0,1-7.59.84l-.61-.23-.61.23-.56-.23A5.39,5.39,0,0,1,68.85,43.91ZM67.78,14.33l-1.18-1.5Q67.79,8,69.23,3.22h1.22l.61,1L70,7.72c-.38,1.25-.7,2.56-1,3.94l.84.42a26.18,26.18,0,0,0,6.51-1.27A6.08,6.08,0,0,0,77,7.48a22.71,22.71,0,0,1,0-5.34l.38-2h.84l1,.8V2.38L78.79,4l.19,1L78.6,6.73l.19,3.47,7.31,1.22,1.65-1.22V8.33a46.33,46.33,0,0,1-1-7.6l.61-.18,1.41.61,1.07,10.26a6.7,6.7,0,0,1-4.12,1.41,19.69,19.69,0,0,0-6.38-.75q-2.8.75-5.78,1.29T67.78,14.33Zm9,15.37L77,25.81l-1.26-1-.61.19-1-.42a5.78,5.78,0,0,1-2.67.65l-.23,3.47.23,1Zm-.38,12.14a8.21,8.21,0,0,0,.75-4.5,3.38,3.38,0,0,0-3-1.07l-2.48.46-.42,4.5.65.85Zm.38-6.61L77,32l-1.45-1.27-1.22.43L72,30.92a5.26,5.26,0,0,0-.61,3.7A12.66,12.66,0,0,0,76.73,35.23Z"/><path class="cls-1" d="M119,43.72l-1-.61a70.21,70.21,0,0,1-.19-10.27l-.61-2.06-6-.42-.66.23-3.42-.23-2.81.61v.84l.18.61-1,.61-.61-1.45a70.79,70.79,0,0,0-.37-14.11l-.8-.66V15.36L102,14a11.9,11.9,0,0,0,9.14,2l6-.75.47-7-.23-1,.23-1h.56l1.41.66a23,23,0,0,0,0,4.69l-.23.8.23.61-.23,1.5.42.84a47.31,47.31,0,0,0,7.1.68,20.25,20.25,0,0,1,6.91,1.33l.19.85a8.47,8.47,0,0,0-1.22,5.72l.24.84-.24.61.24,2.63-.43,2.29H130l-.84-.23-1.79.42-.65-.19a14,14,0,0,0-7.08.8,7.93,7.93,0,0,0-.37,3.7l.14,2.72-.14.61.37,2.86-.23.61.23,1.87Zm-1.59-15a35.74,35.74,0,0,0-.24-11.67,62.44,62.44,0,0,0-12.51.42l-.42,2.44.6,4.73-.42,1.22.24.8-.24,2.06a3.09,3.09,0,0,0,2.25.37Zm13.73-.24.42-1.4a24.08,24.08,0,0,1-.56-7.17l.14-2.07a36.61,36.61,0,0,0-5.46-.82q-2.84-.21-5.46-.58l-.84,1.22.23,6-.37,1,.14,1.36-.14.66.56,2.06q5.3.18,10.54.23Z"/><path class="cls-1" d="M166,34.58l.51-.33.52-7.36a10.65,10.65,0,0,0-3.42-6.42L161.2,19.3a48.51,48.51,0,0,0-3.89,5.95,25,25,0,0,1-4.5,5.81,4.93,4.93,0,0,1-3.42,1.32,5.88,5.88,0,0,1-.8-.05,3,3,0,0,1-1.74-1.78,11.39,11.39,0,0,1-1.07-5A19.06,19.06,0,0,1,148,19.81l.89-.65q0-.94,1.08-1.08a9.85,9.85,0,0,1,6-1.88,13.44,13.44,0,0,1,7.88,3.1,12.89,12.89,0,0,1,3.75,5.53,14.44,14.44,0,0,1,.89,5.06c0,.31,0,.86-.1,1.64l-1.36,4.36L166,36.5Zm-15.38-4.17,2.06-1.18.52-.65a7,7,0,0,0,2-3.1L156,25v-.85l1.36-1.54,1.83-4.17a7.34,7.34,0,0,0-3.33-.75c-.25,0-.69,0-1.31.09a11.39,11.39,0,0,0-4.93,2.67,20.58,20.58,0,0,0-1.87,3.89,10.64,10.64,0,0,0-.52,4.27l1,2,1.64.33Z"/><path class="cls-1" d="M177.89,31.44,177.65,30h.85v-.84l-.85-.19L177,26.47l.24-1.22-.43-1.83.19-.61-.37-2.48h-1l-2.49,2.48-.61.61a21.7,21.7,0,0,1-6,3.85l-.42-.61.8-1,1.08-.37,3.09-3.05a28.17,28.17,0,0,0,5.16-5.34l1.26-.24,4.08-5.34,2.11-1.87,1,.84v.66l-1.83,2-.23.85-1,.23-1.22,2.25-.61.19-1.64,1.64-.23,3.09c.25,1.25.45,2.53.61,3.85l-.38.84.61,1.41-.61,1.07a2.09,2.09,0,0,1,.8,2.49ZM177.51,39a27.38,27.38,0,0,1,0-5.58l.38-1.22c.81.29,1.15.77,1,1.46l-.42.79-.61.43v.79l.61.47.42,2.25A1.12,1.12,0,0,1,177.51,39Zm40.17,3.7a33,33,0,0,0-1.4-3.32,100,100,0,0,0-16.32.47l-.84.37a21.86,21.86,0,0,1-6.19-.61l-.61.24-1-.47-.7.23a31.71,31.71,0,0,1-.75-7q-.28-4.08-.24-8.21l.24-.61-.24-1.26c.16-1.5.36-2.92.61-4.27L190,16.62l1.07,2.72-.23,1.22.23,1-.23.85.23,2.25-.84,1.36.24.61-.24.61.84.46-.23,1.83L191.1,31a14.64,14.64,0,0,1-.46,5.2l.7.14.61,2.11a33.63,33.63,0,0,0,5.9.73q3.1.12,6.43.12A32.05,32.05,0,0,1,210,38.8a17.86,17.86,0,0,0,5.48-.8,206.11,206.11,0,0,0-1.26-22l.23-.61-.23-.66.65-4.69a3.75,3.75,0,0,0-2.72-.65q-4.54.64-9,1.5l-1.88-.66-.84.23-2.25-.6-2.49.37a7.14,7.14,0,0,0-3.89-.61l-.84,1.45.61,3.05-.14.61-.47-.61H190V11.52l.23-1a2.76,2.76,0,0,1-.61-2.29L190,7A28.79,28.79,0,0,0,198.37,9a74.16,74.16,0,0,0,8.77.24L214,8.19l2.67,1.08.42,1.21a14,14,0,0,0-1,4.13l.24,1L216,21.78q.38,2.91.8,5.86c.28,2,.5,4,.66,6l-.24.79.84,3.94-.42,1,.85,2.71Zm-20-7-.19-6.14.19-.84a24,24,0,0,0-.66-3.84,1.75,1.75,0,0,1,1.88-.61,5.79,5.79,0,0,0,3.93.61,5.79,5.79,0,0,0,.38-3.1l-.75-3.09L200,18.31q-2.1.57-4.17,1.17l-.61-1,1.46-1.41,5.57-.23.24-.84L202,13.53l1.08-.37a39.48,39.48,0,0,1,1.4,3.7l2.68.23,4.17-.23.61.84-7.22.8v4.31l.19,1.46a4.15,4.15,0,0,0,3.28.61l.61,2.39-.38,4.54.38,1.27L207,34.3a6.73,6.73,0,0,0-4.13-.85l-1,.24-.84-.24-1,1h-.84l-.23,1.08Zm9.09-3.47.19-.61-.19-1,.19-4.31-1.27-.66-3.7.66-2.25-.23a5.57,5.57,0,0,0-.61,3.51l.23.66-.23,1,.23,1.46h6.19Z"/><path class="cls-1" d="M238.92,49.16l-.94-.43q0-3.23.07-6.65c0-2.28.07-4.52.07-6.7L236.39,35l-1.5.24a2,2,0,0,1-1-1.46l4.31-.61c.29-1.31.5-2.6.66-3.89l-.05-4.68a12,12,0,0,0-4.73-.47l-2,.61L231.51,28l.14.65a29.32,29.32,0,0,1-2.27,6.87,40.88,40.88,0,0,1-3.78,6.26l-1.4.19-.85-1.64,1.46-.24a33.06,33.06,0,0,0,4.54-12q1.13-6.49,2.16-13.06L231,13.81l.85-.65V9.92l-1-4.12L229,5V4.11h.61q3.88.46,7.61.66t7.62.42l5.06-.85,1.41,1.22v.85l-1,6,.61,1.82-.38,1-1.26.61a2.78,2.78,0,0,0-2.25-1l-8.68.19-4.82.61a24.74,24.74,0,0,0-1.22,6.61l1.4.42.85-.23,3,.42,1.26-.19.24-1.83-.14-2.11,1.17-.23a12.93,12.93,0,0,1,.7,4.59l4.41.19,1.26-.42.57-1.41L246.6,20c-.5-.28-.64-.83-.42-1.64l.94-.84h1l1,.42,0,4.73,2,.19,5.11-.42,1.74.65-.1.61-9,1-1.08,3.93h-.61l.66.76-.14,3.51,3.37.23,2.68-.42,1.22.42-.1.61c-2.19.25-4.39.54-6.61.85l-2.15-.24c-1.94.25-3.86.54-5.77.85l-.56,3.09-.05,2-.42.84a33.32,33.32,0,0,1,.61,4.74l.56.23,1.69-.61v1.59Zm9.14-36a39.32,39.32,0,0,0,1-7.18,88.7,88.7,0,0,1-15.8,0v6l.8,2.06,1.64.23,5.62-.42L242,14Zm-3.19,20a27.61,27.61,0,0,0,1.22-5.57L246,24.92l-4.78-.37a2.91,2.91,0,0,0-.7,2l.19,2.21-.29.84.52,3.51,1.64.38ZM255.93,49a20.66,20.66,0,0,0-3.56-3.31q-2-1.42-3.8-2.88a36.72,36.72,0,0,1-6.14-4.5l0-1.08.79-.14a22.29,22.29,0,0,0,4,2.44A25.35,25.35,0,0,1,254,36.41l.75.42.09.61a4.28,4.28,0,0,1-2.9,1.22l-2.86,1.87-.09.61q2,1.88,4.19,3.61a52.09,52.09,0,0,0,4.48,3.14l.18.61Z"/></g></g></svg>