<svg xmlns="http://www.w3.org/2000/svg" viewBox="0 0 174.29 161.41"><defs><style>.cls-1{fill:#eaf3dd;}.cls-2{fill:#e4f3f1;}.cls-3{fill:#fae8e6;}.cls-4{fill:#ecf5e1;}.cls-5{fill:#fffdfd;}.cls-6{fill:#fbe9e7;}.cls-7{fill:#fbe5e3;}.cls-8{fill:#eaf5f3;}.cls-9{fill:#e8f4f2;}.cls-10{fill:#f9e4e2;}.cls-11{fill:#dcebc1;}.cls-12{fill:#e7f1d7;}.cls-13{fill:#bde1de;}.cls-14{fill:#fefefd;}.cls-15{fill:#dcecc3;}.cls-16{fill:#c3e4e1;}.cls-17{fill:#fcfdf9;}.cls-18{fill:#c0e3df;}.cls-19{fill:#d6e8b7;}.cls-20{fill:#fceeec;}.cls-21{fill:#e1e4e1;}.cls-22{fill:#d3e6b1;}.cls-23{fill:#fae4e2;}.cls-24{fill:#f4bfba;}.cls-25{fill:#f4beb8;}.cls-26{fill:#fcf2f0;}.cls-27{fill:#f7cdc9;}.cls-28{fill:#f8d5d2;}.cls-29{fill:#f9e7e6;}.cls-30{fill:#d4ebe9;}.cls-31{fill:#e4f2f0;}.cls-32{fill:#cce8e5;}.cls-33{fill:#f5c5c0;}.cls-34{fill:#d0e4ab;}.cls-35{fill:#fbeeea;}.cls-36{fill:#fbf3f0;}.cls-37{fill:#fefefc;}.cls-38{fill:#fae2e0;}.cls-39{fill:#eaf3dc;}.cls-40{fill:#f5c2bd;}.cls-41{fill:#f4c0bb;}.cls-42{fill:#deedc7;}.cls-43{fill:#e7f1d6;}.cls-44{fill:#e2f2ee;}.cls-45{fill:#d5ece9;}.cls-46{fill:#d8edea;}.cls-47{fill:#deeeda;}.cls-48{fill:#ebe3df;}.cls-49{fill:#e8e3df;}.cls-50{fill:#f8ddda;}.cls-51{fill:#e1f0df;}.cls-52{fill:#dfeed6;}.cls-53{fill:#fcebe9;}.cls-54{fill:#fcedec;}.cls-55{fill:#fbebe9;}.cls-56{fill:#f9e6e3;}.cls-57{fill:#f8d9d5;}.cls-58{fill:#fae3e1;}.cls-59{fill:#f7d4d0;}.cls-60{fill:#f5c4c0;}.cls-61{fill:#f2b8b3;}.cls-62{fill:#f6cbc7;}.cls-63{fill:#fae1df;}.cls-64{fill:#e2f0e3;}.cls-65{fill:#daeeec;}.cls-66{fill:#dde6bc;}.cls-67{fill:#e0eac3;}.cls-68{fill:#e3efd0;}.cls-69{fill:#e6f1d4;}.cls-70{fill:#b7dfdb;}.cls-71{fill:#bfe2df;}.cls-72{fill:#b3dbd5;}.cls-73{fill:#bdddd7;}.cls-74{fill:#daeabe;}.cls-75{fill:#dbeabf;}.cls-76{fill:#deecc6;}.cls-77{fill:#e0eecb;}.cls-78{fill:#cbe7e4;}.cls-79{fill:#c7e6e3;}.cls-80{fill:#e8e3e0;}.cls-81{fill:#e2e2de;}.cls-82{fill:#c1dcd6;}.cls-83{fill:#f8dad7;}.cls-84{fill:#f6c7c3;}.cls-85{fill:#f4c4bf;}.cls-86{fill:#f4bcb7;}.cls-87{fill:#f4bdb8;}.cls-88{fill:#f5c9c5;}.cls-89{fill:#bae0dc;}.cls-90{fill:#dcedd0;}.cls-91{fill:#e1eecd;}.cls-92{fill:#d0eae7;}.cls-93{fill:#d5e9cd;}.cls-94{fill:#def0ec;}.cls-95{fill:#d9ebd2;}.cls-96{fill:#cadcd7;}.cls-97{fill:#cfd4cd;}.cls-98{fill:#e8d9d5;}.cls-99{fill:#d5d4cf;}.cls-100{fill:#e6d7d2;}.cls-101{fill:#f8d6d3;}.cls-102{fill:#ddedd6;}.cls-103{fill:#e1efda;}.cls-104{fill:#d7eacd;}.cls-105{fill:#d2e8d0;}.cls-106{fill:#dfe3ba;}.cls-107{fill:#dde1b6;}.cls-108{fill:#efdbd6;}.cls-109{fill:#f3dad6;}.cls-110{fill:#f6ceca;}.cls-111{fill:#f3d6d1;}.cls-112{fill:#f6d1ce;}.cls-113{fill:#f6cecb;}.cls-114{fill:#f6c8c4;}.cls-115{fill:#f2b3ad;}.cls-116{fill:#e0e7c1;}.cls-117{fill:#e3e9c6;}.cls-118{fill:#e4edcc;}.cls-119{fill:#deecc5;}.cls-120{fill:#e0edca;}.cls-121{fill:#dfedce;}.cls-122{fill:#bbe1dd;}.cls-123{fill:#c2e4e0;}.cls-124{fill:#c5ddd7;}.cls-125{fill:#c2dfd9;}.cls-126{fill:#dde9bf;}.cls-127{fill:#deebc3;}.cls-128{fill:#dbe8bd;}.cls-129{fill:#e1eecb;}.cls-130{fill:#e3efcf;}.cls-131{fill:#c5dfd9;}.cls-132{fill:#c6e5e2;}.cls-133{fill:#cce1dc;}.cls-134{fill:#cfe9e6;}.cls-135{fill:#cfe2dd;}.cls-136{fill:#d6ecea;}.cls-137{fill:#d0e9e7;}.cls-138{fill:#c6dfd9;}.cls-139{fill:#f7d1cd;}.cls-140{fill:#f6c9c5;}.cls-141{fill:#f8d4d1;}.cls-142{fill:#f6cfcc;}.cls-143{fill:#e7c7c2;}.cls-144{fill:#eacac5;}.cls-145{fill:#f5cbc7;}.cls-146{fill:#e6c5c0;}.cls-147{fill:#d9eac7;}.cls-148{fill:#d2e8cc;}.cls-149{fill:#bee2de;}.cls-150{fill:#cbe8e4;}.cls-151{fill:#bbe1dc;}.cls-152{fill:#d5ead2;}.cls-153{fill:#d4e8c7;}.cls-154{fill:#c8e4d2;}.cls-155{fill:#c8d4cd;}.cls-156{fill:#c8d8d2;}.cls-157{fill:#cad2cb;}.cls-158{fill:#cfdfda;}.cls-159{fill:#cfdbd5;}.cls-160{fill:#cdd0c8;}.cls-161{fill:#d4d0ca;}.cls-162{fill:#e3d3ce;}.cls-163{fill:#e6d2cd;}.cls-164{fill:#cde7d3;}.cls-165{fill:#cbe5cd;}.cls-166{fill:#e1e3be;}.cls-167{fill:#e1e5c0;}.cls-168{fill:#dadeb5;}.cls-169{fill:#e0e0ba;}.cls-170{fill:#e1d9bc;}.cls-171{fill:#d9ddb4;}.cls-172{fill:#f7d2cf;}.cls-173{fill:#efccc8;}.cls-174{fill:#e7dac4;}.cls-175{fill:#e7d9ca;}.cls-176{fill:#e8d4c8;}.cls-177{fill:#f3c5c1;}.cls-178{fill:#f5c6c1;}.cls-179{fill:#f2b2ac;}.cls-180{fill:#e5e7c7;}.cls-181{fill:#e0ebc6;}.cls-182{fill:#ddecc9;}.cls-183{fill:#dfe9c7;}.cls-184{fill:#dee8c1;}.cls-185{fill:#c5e1db;}.cls-186{fill:#cbe0da;}.cls-187{fill:#b7dfda;}.cls-188{fill:#f7d3d0;}.cls-189{fill:#e4c3bd;}.cls-190{fill:#e4bfb9;}.cls-191{fill:#e9c5c0;}.cls-192{fill:#e6ccc6;}.cls-193{fill:#eccac5;}.cls-194{fill:#e7c6c1;}.cls-195{fill:#e8c2bc;}.cls-196{fill:#e2c2bc;}.cls-197{fill:#d4e8c2;}.cls-198{fill:#cce5c7;}.cls-199{fill:#c5e5e1;}.cls-200{fill:#c0e3de;}.cls-201{fill:#c4e3d4;}.cls-202{fill:#c3e2cf;}.cls-203{fill:#c7e4cd;}.cls-204{fill:#cbe6d7;}.cls-205{fill:#d2d0c9;}.cls-206{fill:#d4d2cb;}.cls-207{fill:#d3dbd5;}.cls-208{fill:#d7d8d1;}.cls-209{fill:#d0cbc3;}.cls-210{fill:#d5cac3;}.cls-211{fill:#e6ccc7;}.cls-212{fill:#dec4bd;}.cls-213{fill:#cfcbc4;}.cls-214{fill:#c8e4c4;}.cls-215{fill:#cce5c2;}.cls-216{fill:#c7e3cb;}.cls-217{fill:#dee0b6;}.cls-218{fill:#dde3b9;}.cls-219{fill:#e4e2c0;}.cls-220{fill:#dbddba;}.cls-221{fill:#dedebd;}.cls-222{fill:#dbddb8;}.cls-223{fill:#dddbbd;}.cls-224{fill:#e5dfc1;}.cls-225{fill:#dbdac3;}.cls-226{fill:#f7d1ce;}.cls-227{fill:#ebccc7;}.cls-228{fill:#e2d7c6;}.cls-229{fill:#e9c8c3;}.cls-230{fill:#dfe7c2;}.cls-231{fill:#dce7c1;}.cls-232{fill:#d7e7bd;}.cls-233{fill:#dfe5c0;}.cls-234{fill:#cae2dd;}.cls-235{fill:#c8e4df;}.cls-236{fill:#e1c4be;}.cls-237{fill:#e3c6c1;}.cls-238{fill:#decfc9;}.cls-239{fill:#e1cec7;}.cls-240{fill:#dfc7c1;}.cls-241{fill:#d2e7be;}.cls-242{fill:#c9e7e3;}.cls-243{fill:#c6e5df;}.cls-244{fill:#c1e3dd;}.cls-245{fill:#badfce;}.cls-246{fill:#c2dfce;}.cls-247{fill:#d3cec7;}.cls-248{fill:#cdcfc8;}.cls-249{fill:#d6d5ce;}.cls-250{fill:#d6cfc8;}.cls-251{fill:#cddbd2;}.cls-252{fill:#cadfd8;}.cls-253{fill:#d6d6ca;}.cls-254{fill:#d2d9cc;}.cls-255{fill:#d9cbc4;}.cls-256{fill:#d7c6bf;}.cls-257{fill:#daccc5;}.cls-258{fill:#d9d0ca;}.cls-259{fill:#c9e3bd;}.cls-260{fill:#c7e0c1;}.cls-261{fill:#cde5bd;}.cls-262{fill:#c6dfcb;}.cls-263{fill:#dcdfb3;}.cls-264{fill:#deddb6;}.cls-265{fill:#dddcb0;}.cls-266{fill:#e1dfbb;}.cls-267{fill:#dfe0ba;}.cls-268{fill:#d9dbbb;}.cls-269{fill:#dbdbb8;}.cls-270{fill:#dcdfbe;}.cls-271{fill:#dbdbc1;}.cls-272{fill:#d6dac5;}.cls-273{fill:#dad8c7;}.cls-274{fill:#dbd8cc;}.cls-275{fill:#d6e3b6;}.cls-276{fill:#d0e5ba;}.cls-277{fill:#d1e2b4;}.cls-278{fill:#c4e0da;}.cls-279{fill:#e1cac4;}.cls-280{fill:#c6ded3;}.cls-281{fill:#d2d5c7;}.cls-282{fill:#d3cfc0;}.cls-283{fill:#d8c7bf;}.cls-284{fill:#c8dbcd;}.cls-285{fill:#cdd8bf;}.cls-286{fill:#d9cdc6;}.cls-287{fill:#d9c2bb;}.cls-288{fill:#d3cbc3;}.cls-289{fill:#c9e1b7;}.cls-290{fill:#c9debb;}.cls-291{fill:#dbdcb0;}.cls-292{fill:#d9dbab;}.cls-293{fill:#d9dab0;}.cls-294{fill:#d4ddae;}.cls-295{fill:#daddb4;}.cls-296{fill:#d4dabd;}.cls-297{fill:#cfdaac;}.cls-298{fill:#d1dac2;}.cls-299{fill:#cdd5bd;}.cls-300{fill:#d1d4c2;}.cls-301{fill:#d3e0b1;}.cls-302{fill:#cce1b2;}.cls-303{fill:#cedeaf;}.cls-304{fill:#d0d4c0;}.cls-305{fill:#cdd2bc;}.cls-306{fill:#c8dbb2;}.cls-307{fill:#cbd8b3;}.cls-308{fill:#c8ddaf;}.cls-309{fill:#d1daa8;}.cls-310{fill:#d6dba6;}.cls-311{fill:#d6d9ac;}.cls-312{fill:#cedaa9;}.cls-313{fill:#cbd9af;}.cls-314{fill:#cbd5b9;}.cls-315{fill:#c9d8aa;}.cls-316{fill:#c7d9ab;}.cls-317{fill:#c9d5b3;}.cls-318{fill:#c7d8ae;}.cls-319{fill:#d3dba4;}.cls-320{font-size:40px;fill:#b09583;font-family:MyanmarMN, Myanmar MN;}</style></defs><title>toiro-logo</title><g id="レイヤー_2" data-name="レイヤー 2"><g id="レイヤー_3" data-name="レイヤー 3"><path class="cls-1" d="M161.08,83.72c1.68,8-.39,15.6-3,23-1.59,4.64-5.12,7.87-8.94,10.77-4.1.57-5.19-.37-4-3.68,2.17-5.83,2.34-11.38-1.6-16.6-.56-.75-1-2.4-1.88-1.86-3.79,2.3-4.92-1.55-7.15-2.8a6.68,6.68,0,0,1-2.29-1.84c-.15-.32-.17-.88,0-.88,6.24-.26,7.85-7.13,12.91-9,6.35-2.63,11.06,1.81,12,10.86C160,89.82,157.12,85.11,161.08,83.72Z"/><path class="cls-2" d="M132.24,147.34a19.14,19.14,0,0,1-8.94,5c-7.73,1.63-8.19,1.43-10.61-5.78-1.51-4.5-5.48-4-8.93-4.68-1.48-1.61.14-2.65.7-3.89,1.88-3.79,4.24-7.06,8.77-7.91a2.35,2.35,0,0,1,.47.15c8.31,4.55,8.53,4.52,15.61-2.34a3.31,3.31,0,0,1,1.95-.74,6.34,6.34,0,0,1,3.35,1c3.34,2.45-.73,4-1,6.06C133.11,138.58,132.36,142.92,132.24,147.34Z"/><path class="cls-3" d="M16.92,113.56c-4.37-6-6.53-13-8.93-19.89,1.42-.91,2.77.83,4.15.28.84-2-1.55-5,2.22-5.67,3,.3,6.29-.48,8.93,1.8,2.48,2.75,1.74,6.63,3.39,9.67a5.66,5.66,0,0,1,0,3.21,3.83,3.83,0,0,1-1.47,1.89C24.19,105.47,17.32,112.68,16.92,113.56Z"/><path class="cls-4" d="M132.25,90.68c2.11.85,5.34,0,5.39,4,0,.82,1.91.72,2.75-.36,1.8-2.32,3-1.5,3.77.79,1.55,4.37,5.21,8,3.71,13.48-.42,1.52-.1,3.77-1.07,5.07-2.81,3.76-.08,3.65,2.39,3.9l-5,5.94a.93.93,0,0,1-1.34-.12c-1.08-1.77-1.1-3.83-1.64-5.76-.44-9-4.73-16.6-9.1-24.14a2.8,2.8,0,0,1-.28-2.17Z"/><path class="cls-5" d="M26.87,14.14c1.83-1.57,3.75-3.05,5.47-4.73C41,.91,51.48.05,62.67,2.21,63,4.11,61.37,4.26,60.33,5a12.8,12.8,0,0,0-2.9,1.48,9.16,9.16,0,0,1-1.16.7A29,29,0,0,1,53,8.53,95,95,0,0,1,30.62,15,4.07,4.07,0,0,1,26.87,14.14Z"/><path class="cls-6" d="M59.67,4.19l3-2c2.68-.07,5.18-1.49,7.93-1a39.33,39.33,0,0,1,4.19-.4c2.26-.24,2.3,1,1.47,2.67-1.1,1.47-2,3.16-4.13,3.42-1.2,0-2.39.23-3,1.39-.13.24.69.42,1,.71,1,4.41,5,3,7.73,4,1.24,1.5,1.57,3.6-.32,4.09-3.84,1-6.84,4.54-11.24,3.7-2-1.26-4.39-1.28-6.44-2.33-1-1.84.75-2.14,1.62-2.87,1.48-1.24,3.06-2.36,3.62-4.44-1.72-1.26-3.8-.67-5.6-1.25s-4-.88-2.82-3.76h0C58.6,6.89,58.43,4.48,59.67,4.19Z"/><path class="cls-7" d="M26.87,14.14l4,0a23,23,0,0,1,8.5-.42c1.57.84-.44,2.28.47,3.23,1.45.11,2.24-1.11,3.41-1.5,4.19-1,5.92,2.73,8.67,4.51a1.44,1.44,0,0,1-.19,1.44c-1.5,1.15-3.46.93-5.1,1.7a13.2,13.2,0,0,1-10.8-.18c-3.72-2-7.65-1.77-11.62-1a18.81,18.81,0,0,1-2.22.52c-3,.31-5.86,2.16-9,.66C16.37,18.2,22.14,17,26.87,14.14Z"/><path class="cls-8" d="M143.18,123.48h1c.93,7.59-.32,14.29-7.29,18.87-1.9,1.25-2.24,4.1-4.63,5-1.15-3.74-2.39-7.47.43-11.09a2,2,0,0,0,.27-1.8c-1.58-2.11-3.13-3.83,1.49-3.55,1.08.06,0-1.58-.19-2.44a4.26,4.26,0,0,1,1.87-1.62c.75-.41,1.51-.79,2.27-1.19C140,125,141.36,123.72,143.18,123.48Z"/><path class="cls-9" d="M103.42,141.39c3.51-1.32,6.53-.51,9.31,1.91.59.52,1.59.73,1.46,1.67-.31,2.14-.61,4.59,1.08,5.93,2.23,1.76,5.23,1.56,8,1.42-5.65,2.78-11.52,4.8-17.89,5,.2-3.09,2.94-2.74,4.92-3.58-2.43-1.09-4.87-.77-7.22-.2s-3.45-.26-3.78-2.51a11.25,11.25,0,0,1,1.14-6.45C101.21,143.28,101.82,141.87,103.42,141.39Z"/><path class="cls-10" d="M16.92,113.56a32.53,32.53,0,0,0,0-4c-.49-3.77.79-5.63,4.86-5,1.71.26,3.3-.14,4.12-2,.5-.13,1.22-.07,1.29.36.73,4.84,3.66,9.14,3.49,14.2-1,2.82-2.58,4.41-5.74,2.65-1.55-.86-3.53-.14-5-1.3Z"/><path class="cls-11" d="M141.19,19.14c0,.29,0,.58,0,.86,1.84,1.47,1,2.45-.61,3.26-2.62,1.33-5.09.82-7.48-.61-4.67-2.6-9.86-4.06-14.52-6.78a13.8,13.8,0,0,0-8-2,3.9,3.9,0,0,1-1.35-.39,2.18,2.18,0,0,1-1-2.4c.89-.89,2.29,0,3.18-.92l-.06-.2c1.58-1.18,3-.21,4.43.33,3,1.73,6.25,1.72,9.52,1.82C131.35,12.71,137,14.32,141.19,19.14Z"/><path class="cls-12" d="M161.08,83.72c-1.83,3.51-.2,8.27-4.44,11.15-1.74-6.08-.52-15.15-11.46-13.13l-.4-.64c.42-3.09,2.77-3.79,5.29-4.29,2.14,0,3.8,1.59,5.89,1.68,3.62-.62,1-3.79,2.22-5.41.27-.74.6-1.4,1.52-1.45,2.25,3.12-.28,6.89,1.39,10.09C161.09,82.39,161.09,83.06,161.08,83.72Z"/><path class="cls-13" d="M37.7,144.39a5.93,5.93,0,0,1-.84-.06c-1.36-4-3.43-7.89-1.81-12.32a2.6,2.6,0,0,1,1.15-1.19,4,4,0,0,1,3.17,0A1.85,1.85,0,0,1,40.3,132c-.64,3,2.34,4.59,2.44,7.62,2.23-3.46,5.71-1.9,10.08,3.94-1.09,1-2.53,1.11-3.89,1.43-1.6.31-3.24.06-5.78.46,2.48.69,3.86,1.63,3,3.69-.67,1.58-2.06,2-3.64,1.85-1.38-.15-3.08.13-3.2-2.09A10.3,10.3,0,0,0,37.7,144.39Z"/><path class="cls-14" d="M161.09,81.72c-2.57-2.93.58-7-2-9.93a2.84,2.84,0,0,1-.89-2.65c.29-1.81,1.63-2.77,3-3.75.5-.42,1-.84,1.46-1.3,1.63-1.42,1.89-3.73,3.4-5.22,2.29.14,3.89,1.63,5.66,2.8,1.19.79,3,1.33,2.52,3.1a4.81,4.81,0,0,1-3.2,2.88C161.53,70.86,161.07,71.5,161.09,81.72Z"/><path class="cls-15" d="M133.24,21.09c4.43,2.8,6.91,2.47,8-1.08,4.26,1,5.25,5.38,8,8a13.58,13.58,0,0,1,3.26,4.15,1.85,1.85,0,0,1-.28,1.29c-3.58,5.61-3.57,5.67-9.36,6.38-1.88.24-4.18.57-3.91-2.63A22.2,22.2,0,0,0,144,33.8c2-1.7.93-2.61-.42-3.7a18.45,18.45,0,0,1-2.43-2.33c-2.06-1.69-4.63-2-7.07-2.75S130.79,23,133.24,21.09Z"/><path class="cls-2" d="M100.43,151.33c1.63,3,3.94.28,5.79.36,2.85.12,4.9.66,6.78,3.41-3-.32-5.68-.09-7.59,2.2-5.66,2.86-12,1.83-17.89,3-.4-5.35,4.53-4.12,7.11-5.8C96.89,154,97.7,150.9,100.43,151.33Z"/><path class="cls-16" d="M37.7,144.39c2.78.64.39,5.48,4.44,5.33,1.32-.05,2.76.66,3.29-1,.86-2.69-1.29-1.35-2.28-1.51a2.12,2.12,0,0,1-1.78-2.09c-.12-1.51,1.15-1.27,2.11-1.2,1.75.11,3.5.28,5.26.43,4.25,2.21,4.6,4.06,1.74,9.4-1.07.79-3.6-1.22-3.53,2.14,0,1.23-2,1-3.26.43-3.34-.43-4.67-2.5-4.93-5.69C38.58,148.55,38.06,146.48,37.7,144.39Z"/><path class="cls-17" d="M141.19,19.14c-5-2.85-10.12-5.22-15.86-6-3.25-1.08-6.94.14-10-2a7.26,7.26,0,0,0-4-1.14c2.83-3.67,6.71-1.07,9.05-.25A24.71,24.71,0,0,0,130.83,11c3.92-.32,7.54,1.15,11.36,1.1,3.26,3.22-1.45,3.26-2,5Z"/><path class="cls-18" d="M80.56,160.32H76.67c-1.9.89-3.91.42-5.85.39s-5.17.8-4.91-1.56-2-6.24,2.2-7.69a4.85,4.85,0,0,1,3.55.93,2.09,2.09,0,0,1,.73.61c1.88,3.54,4.39,3.89,7.45,1.49,6.19-1.37,6.54-1.15,6.16,3.87C84.73,160.51,82.17,159.09,80.56,160.32Z"/><path class="cls-19" d="M152.14,33l0-.91a.54.54,0,0,1,.94-.07c.16,3.52,3.91,5.4,4.06,8.92-1.77,1.25-1.15,2.93-.73,4.51,1.31,5,2.9,10,2.12,15.11-.4,2.61,4.08,2.88,2.11,5.7-5.34,1.11-8-1-7.17-6.83.69-4.87-.58-9.28-1.47-13.85C148.56,41.38,151.66,37.21,152.14,33Z"/><path class="cls-20" d="M75.58,3.19c.59-1.37.45-2.44-1.32-1.72a3.79,3.79,0,0,1-3.66-.28,24,24,0,0,1,14.93,0c1.82,1.31,4.13-.25,6,1h1c1.21,2.05-.4,2.53-1.76,3-1.66.55-3.49.67-4.68,2.18a12,12,0,0,1-5.81,2.46c-1.89.27-3.77-.5-3-2.53C78,5,75.59,4.72,75.58,3.19Z"/><path class="cls-21" d="M36.76,131.42c-.32,0-.63,0-.94,0-2.78.89-3.76-1.23-5-3l-.05-1a6.43,6.43,0,0,1-.95-5,30.32,30.32,0,0,1,2-5.37,5.6,5.6,0,0,1,.82-1.17A3,3,0,0,1,34.5,115c2.44.29,2.17,2.33,2.38,4.06,1.72-.91,1.39-3.52,3.63-3.65,2.36,2.4.86,4.78,0,7.17C37.72,124.87,38.82,128.81,36.76,131.42Z"/><path class="cls-22" d="M161.08,65.82c-2.48-2-3.94-3.89-3.56-7.79.41-4.23-.86-8.79-2.51-13-.93-2.35-.71-3.87,2.16-4.12q3.08,8.92,6.14,17.83c-3.72-.57-3.61-3.59-4.32-6.08.27,4.34,4.16,7.65,4.17,12.18l-1,1A.68.68,0,0,1,161.08,65.82Z"/><path class="cls-23" d="M13.93,88.69a2.17,2.17,0,0,0-.69,3c.82,1.32,1.57,2.16,0,3.63-1.83,1.76-2.46-.27-3.58-.75-.59-.25-1.14-.6-1.71-.9A61.51,61.51,0,0,1,5,81.74a7.62,7.62,0,0,1,3.15-.15A13.13,13.13,0,0,1,10,84.08c1.15,1.54,3.32,2,4.08,4C14.06,88.28,14,88.49,13.93,88.69Z"/><path class="cls-24" d="M13,23.1l8.93-2c2.48,2.24,1.57,4.58-.49,6.09-1.7,1.25-3.09,2.81-4.79,4-1.6.08-2.41-1.59-3.91-1.74-1.24-.14-2.58.23-3.65-.72a2.56,2.56,0,0,1-.65-1.14c-.32-2,1.64-1.74,2.55-2.52Z"/><path class="cls-25" d="M3,70.82a8.79,8.79,0,0,1-1-5c-1.23-2.64.3-5.62-1-8.25a3.86,3.86,0,0,1-.31-1.46c1.36-2.53,2.77-1.07,4.19-.08,3.13,1.45,3.2,3.84,2,6.62-2.2,3,1,4.94,1.54,7.42.36,1.77,2.53,3.63,0,5C6.15,76.37,5,74.3,4,72.57A5,5,0,0,0,3,70.82Z"/><path class="cls-26" d="M85.52,7.17c.15-2.31,1.6-3,3.67-3,1.48,0,3.09.18,3.29-2,1.58,1.83,5.23-.54,6,3-.92,2.29-2.19,4.39-3.32,6.58a1.79,1.79,0,0,1-1.14.68c-3.14-.88-7.1-.45-8-4.95Z"/><path class="cls-27" d="M1.05,55.89v1A1.47,1.47,0,0,1,1,59C-.29,57.78,0,56.23,0,54.79A165.32,165.32,0,0,1,1.9,31l.47.29A8.79,8.79,0,0,0,3.61,33c2.1-.68,4.72-2.35,4,2.15-.45,3.3-2.19,6.11-3.55,9a11.8,11.8,0,0,1-.6,1.3c-1.76,2.31-1,5-1.32,7.61A7.5,7.5,0,0,1,1.05,55.89Z"/><path class="cls-28" d="M3,70.82l1,1c.06,5.51,4,3,6.63,3.2,1.53.4,3.09.76,3.65,2.55,0,.81,0,1.63.06,2.45.72,5.52.08,6.07-5.37,4.73l-1-3c-1.46-1.2-2.54-2.78-4-4C2.15,75.67,3.35,73.13,3,70.82Z"/><path class="cls-16" d="M68.62,152.32c-.82.13-1.7.25-1.81,1.3,0,.46,0,1.3.27,1.36,3.19,1-3.68,5.12,1.68,5.27,2.63.08,5.27.05,7.91.07a30.12,30.12,0,0,1-19-1c-.9-.92-2.77-1.22-2-3.18,2.52-1.68,4.79,1.75,7.28.33.88-1.57-.41-3.53.94-5C65.68,150.48,67.57,149.06,68.62,152.32Z"/><path class="cls-29" d="M30.84,121.5l0,6c-4-2.6-8.37-4.63-10.91-9,1.87-.43,4-1.35,5.54.11,2.34,2.2,3.19.27,4.39-1.1a2.16,2.16,0,0,1,.75.94A11.44,11.44,0,0,1,30.84,121.5Z"/><path class="cls-30" d="M80.56,160.32c1.26-1.64,3.55-.77,5-2,2.17-2-.67-6,2.89-7.44,1.62-.17,3.28-.67,4.87-.24,2.47.65,3.67,2.1,2.19,4.7-2.44,2-6.88.8-8,5Z"/><path class="cls-31" d="M30.86,128.48l5,3c-.56,4.37,1,8.56,1,12.88C33.17,139.69,30.72,134.57,30.86,128.48Z"/><path class="cls-32" d="M55.69,156.31c.66,1,1.32,2,2,3l-14-3c5.87-.46,1.59-2.74.65-4.58,2.59-1,4,2.47,6.39,1.56,1.5-.7,2.26.58,3.27,1.22A5.49,5.49,0,0,1,55.69,156.31Z"/><path class="cls-33" d="M7,35c-.65-.2,1.17-3.47-1.44-1.18C4.34,34.88,3.29,35.58,2,34c1-1,.77-1.94,0-2.92L1.9,31C2,27.7,3.68,26,7,26.07a24.79,24.79,0,0,1,2,2H9c1.27,2.37.39,4.56-.59,6.74A1,1,0,0,1,7,35Z"/><path class="cls-34" d="M163.16,64.89c-2.38-4-4.84-8.07-5.14-13.41,2.93,2,2.58,5.77,5.29,7.31l2.73.08A6.14,6.14,0,0,1,163.16,64.89Z"/><path class="cls-35" d="M94.52,12.2a7.91,7.91,0,0,1,3.94-7l1,0a6.12,6.12,0,0,1,1.5,5.24C99.28,12.76,97.12,13.26,94.52,12.2Z"/><path class="cls-36" d="M100.45,10.21a8.38,8.38,0,0,1-1-5c3.15.38,4.64,4.06,8,4,.16,1.08-.57,1.48-1.38,1.84C104.09,11.49,102.13,11.76,100.45,10.21Z"/><path class="cls-37" d="M140.2,17.11c-1.49-1.47-.28-1.75.9-2.07,1.72-.45,1.8-1.53,1.09-2.9,1.24.36,3.74-.78,3.42,1.35C145.24,16,143.19,17.66,140.2,17.11Z"/><path class="cls-38" d="M4,77.77c2.92-.29,3.65,1.65,4,4a2.67,2.67,0,0,1-3,0A6.84,6.84,0,0,1,4,77.77Z"/><path class="cls-39" d="M153.11,32c-.31,0-.63,0-.94.07-2.55-.25-2-2.76-3-4.12C151.47,28.4,152.88,29.65,153.11,32Z"/><path class="cls-40" d="M1,59l.09-2.09c1.93,2.83.55,6,1,9C.27,63.77,1.32,61.27,1,59Z"/><path class="cls-41" d="M9,28.05a1.81,1.81,0,0,1-2-2,6.72,6.72,0,0,1,4-1C10.35,26.1,8.8,26.5,9,28.05Z"/><path class="cls-42" d="M106.4,10.16l1-.95a6.61,6.61,0,0,0,3.93,1c-.74,1.12-1.91.91-3,1C107.24,11.79,106.4,11.82,106.4,10.16Z"/><path class="cls-26" d="M91.49,2.2c-2-.33-4.23.82-6-1C87.51,1.53,89.75.4,91.49,2.2Z"/><path class="cls-43" d="M145.18,81.74c-.81,1-.7,3.09-2.92,2.52a6.29,6.29,0,0,0-1.38-.07c.64,6.83-5.24,5-8.63,6.49h0a.9.9,0,0,1-1.25-.07,2.37,2.37,0,0,1-.16-1.39c.57-1.24,1.72-1.46,2.88-1.63s2.11-.13,2.71-1.23a14,14,0,0,0,.16-2.41c.33-2.21,1.32-4,3.49-4.84,2.55-1,3.81.94,5.09,2.62Z"/><path class="cls-44" d="M130.25,128.44c-1.66,4-6.85,3.77-8.82,7.39-2.33-2.33-6.5-1.9-8.07-5.38a1.87,1.87,0,0,1-.54-1.31c.4-1.86,1.73-2.86,3.32-3.63s3.49-.94,4.36-3.23,3.41-1.94,5.51-1.77c1.12.19,2.19.55,3.29.82a7.23,7.23,0,0,1,1.25.46c1.64,1,1.33,2.33.53,3.75C130.58,126.43,129.21,127.1,130.25,128.44Z"/><path class="cls-45" d="M103.42,141.39l-2,3c-3,.36-5.91.9-8.16,3.38a3.39,3.39,0,0,1-4,.66c-1.58-2.45-1.86-4.74.81-6.67a27,27,0,0,0,8-3.4,6.24,6.24,0,0,1,6.86-.48c.16.18.33.36.49.55Z"/><path class="cls-46" d="M113.36,129.46v1c-3.33,2-6.52,4.09-8,8h0c-1.75-1.87-3.74-4-1.15-6.29S109.06,125.88,113.36,129.46Z"/><path class="cls-47" d="M130.25,128.44c-2-.21-2-1.07-.94-2.51.72-1,2.81-1.7.95-3.43-.23-1.85,1.08-1.65,2.22-1.66a2.46,2.46,0,0,1,1.17.76A3.69,3.69,0,0,1,134,123a5.47,5.47,0,0,1-2.11,4.3l-.67.22Z"/><path class="cls-44" d="M136.23,127.47a2.05,2.05,0,0,1-2,1c-1.09,0-2.27.18-3-1h0C132.91,126.48,134.58,125.92,136.23,127.47Z"/><path class="cls-48" d="M29.85,118.52c0-.33,0-.66,0-1q-2-7.47-3.95-14.92c0-1,0-2,0-3,3.56.13,3.5-3.07,4.69-5.12,3.86-2.11,5.4,2.4,8.34,2.91a3.63,3.63,0,0,1,.9,1.89,9.8,9.8,0,0,1,.16,1.42,14,14,0,0,1,0,1.45,8.72,8.72,0,0,1-.63,3.5c-1.69,2.76-3.92,2.45-6.38,1.18-.83-.43-1.9-1.11-2.64,0s0,1.89.57,2.7c1.43,2.13,3.71,4,1.92,7h0C31.92,117.32,31.72,119.18,29.85,118.52Z"/><path class="cls-49" d="M30.84,94.66A10,10,0,0,1,30,99.31c-1.28,2.74-2.63,2.15-4.16.32-3.09-2.28-1.09-6.25-3-8.94l.53-.48c3.26-.73,5.2,1.7,7.54,3.17A1,1,0,0,1,30.84,94.66Z"/><path class="cls-50" d="M22.89,90.69c-2.66-2.13-6.32.26-9-2h0c1.93-5,3.29-5.88,8.63-5.53a2.52,2.52,0,0,1,1.06,1.15c.75,2.24.84,4.4-.72,6.37Z"/><path class="cls-47" d="M132.25,92.67c5.86,7.26,9.68,15.35,9.94,24.86-3,1.22-4.94,5-8.94,4h0a6.2,6.2,0,0,1-1.82-4.51,3.87,3.87,0,0,1,.41-1.34c1.06-1.11,2.19-2.57,1.21-3.9-1.83-2.48-.86-5-.77-7.52-.37-2-1.7-3.84-1.57-6C131.05,96.32,130.67,94.22,132.25,92.67Z"/><path class="cls-51" d="M133.25,121.51c3.44-.28,4.78-5.32,8.94-4,1.19,1.84,1,3.91,1,6-1,2-2.92,2.64-5,3-3.7,1.23-2.94-3.13-5-4Z"/><path class="cls-52" d="M132.25,92.67c-.33,2,.81,4.22-1,6-1.1,1.92-2.56,2-3.65.23-.89-1.47-2.06-1.06-3.24-1.18-1.49-1.56-1.32-3.24-.38-5,2.16-1.6,4.16-3.79,7.26-2h1Z"/><path class="cls-53" d="M51.73,20.1c-3.75.39-4.84-5.19-9-4a3,3,0,0,1-3-1c-2.8-2-6-.54-9-1,3.88-1,7.7-2.3,11.63-2.88,4.09-.61,7-4.17,11.25-4.06,1.56.7,1.39,2,1.1,3.31-.8,3.49-1.35,6.9,1.88,9.6C55,21.57,53.38,21.38,51.73,20.1Z"/><path class="cls-54" d="M56.71,19.11c-3.67.15-5.73-.4-3.74-5,.8-1.87,1.85-4.49.74-6.92l3-1c0,3.42,3,2.47,4.74,2.88s4.88-.3,5.22,1.62-1.82,4.06-3.64,5.5a24.9,24.9,0,0,1-3.33,1.93,1.92,1.92,0,0,1-1.18,1.49A1.62,1.62,0,0,1,56.71,19.11Z"/><path class="cls-54" d="M59.67,4.19c-.73,1.06-.74,3.2-3,2A3,3,0,0,1,59.67,4.19Z"/><path class="cls-55" d="M75.58,3.19C76.86,5,77.83,2.92,79,2.81c-1.16,6.54-1.16,6.54,6.53,4.36h0c1,3.14,2.87,5.81,4.33,8.71A1.9,1.9,0,0,1,89,17.67a28.86,28.86,0,0,0-4.75,2.53c-2.36-2.21-5.38-3.82-6.65-7.07-2.16.54-4.47.26-6.53,1.53-.65-2-.28-4-1.42-5.5-.55-1.8.88-2.29,2-3C73.75,6.27,73.83,3.62,75.58,3.19Z"/><path class="cls-56" d="M77.57,13.13l1.14-.71c.37,3.71,5.31,4,5.76,7.62l.44.61c.18,1.69-1,2.14-2.27,2.48a9.31,9.31,0,0,1-1.49.17c-3,.14-5.92-.5-8.89-.42-1.9-.88-4.89.43-5.62-2.79,1.25-.13,2.71.42,3.66-.77,1.31-1.64,2.14-3.19,5-2C76.73,17.86,78.54,15.52,77.57,13.13Z"/><path class="cls-57" d="M66.64,20.09c1.6,1.8,4.27.44,6,2,.27,1.41-.75,1.49-1.69,1.66-.79.06-1.91-.39-2.33.36-2.77,4.83-4.86,2.47-7-.52-1-1.45-2.57-2.58-2.9-4.49l1-1C62.17,18.16,64.87,17.5,66.64,20.09Z"/><path class="cls-58" d="M71.61,6.18c.16,1.54-1.39,1.94-2,3-.74-.12-1.61.29-2.13-.6C68.94,7.9,68.62,4.18,71.61,6.18Z"/><path class="cls-59" d="M58.66,19.09c1.78.72,2.39,2.67,3.79,3.69a7.28,7.28,0,0,1,2.61,3.65c2.38-.75,1.25-6.43,5.55-3.35,1,1.82-2.65,1.86-1.4,3.76.47,8.48-4.25,12.79-11.85,14.8a4.83,4.83,0,0,1-.49-4.15c1-2.26,2.38-4,5-4.21,1.87-.17,2.76-1,1.88-3-1.72-2.79-4.36-3.11-7.27-2.77-2.86-1.22-1.81-5.35-4.81-6.47,0-.33,0-.66,0-1,1.67-.26,3.58.65,5-1Z"/><path class="cls-60" d="M35.81,22.08a20.8,20.8,0,0,0,11,0c2.86-1.14,2.27.54,1.78,2.16-1.6,2.61-3.23,5.2-5.9,6.91-.69.39-1.4.77-2.09,1.17-2.66,1.5-4.66,2-4-2.31.06-.4-.64-.63-1-.91a11,11,0,0,1-2.16-3.93C33.52,23.63,35.11,23.21,35.81,22.08Z"/><path class="cls-61" d="M15.93,31c1.17-1.28,1.54-3.29,3.42-3.9,3.21-1.05,3.37-3.32,2.55-6l2,0c2.26.68,4.5,1.42,6.16,3.24a1.82,1.82,0,0,1-.21,1.27c-.64,2.31-.24,5.08-4.52,4.47-1.89-.27-3,3.92-5.86,4.19a6.49,6.49,0,0,1-3.7-2.58Z"/><path class="cls-24" d="M29.85,25.06c-1.57-2-4.71-1.58-6-4,4.11-1.28,8.21-2.34,11.93,1,2.47,3.08-1.67,1.76-2,3A2.74,2.74,0,0,1,29.85,25.06Z"/><path class="cls-62" d="M47.74,24.07c.49-1.06.81-2-1-2,1.37-1.67,3.28-.74,4.94-1,2.13-.07,4.25-.29,3.7,3.09a2.86,2.86,0,0,0,1.28,2.89C56.6,30,53.56,30.54,53.2,29,52.41,25.51,49,26.17,47.74,24.07Z"/><path class="cls-63" d="M39.79,15.12c1.09,0,2.27-.17,3,1-.28,2.47-2.42,2.21-4,2.53-.32.06-1.23-1.11-1.28-1.75C37.34,15.36,38.65,15.25,39.79,15.12Z"/><path class="cls-64" d="M133.25,122.5c3.55-1,2.2,4,5,4a2.05,2.05,0,0,1-2,1h-5C131.92,125.81,132.58,124.15,133.25,122.5Z"/><path class="cls-65" d="M89.5,148.35c1.3-1,3.19-.76,4.2-2.39,2-3.21,4.72-3.15,7.73-1.59-.57,2.28-1.31,4.54-1,7-1.91,1-2.64,3.49-5,4,0-3.06-1-4.74-4.42-3.3a1.9,1.9,0,0,1-2.54-.68C87.47,149.88,88.17,149,89.5,148.35Z"/><path class="cls-29" d="M25.62,116.51c-1.13-.06-2.44.09-2.53-1.55a1.77,1.77,0,0,1,1.66-2c1.33,0,2.68.46,2.86,2C27.76,116.3,26.64,116.44,25.62,116.51Z"/><path class="cls-42" d="M133.24,21.09c-1.1,2-.65,2.73,1.76,3.08s5.44.34,7.19,2.88a3.87,3.87,0,0,1-5.57,1.42c-2.57-1.81-5.57-1.41-8.13-2.66-3.46-2.4-7.47-2-11.37-2.28-3-3-6-6-6.74-10.39,4.31-.42,8.49-.45,11.09,3.95C126.63,14.78,128.62,21.82,133.24,21.09Z"/><path class="cls-66" d="M106.4,10.16a2.07,2.07,0,0,0,2,1l1,2a3.29,3.29,0,0,1-1,.92c-5.26,1.73-10.31,4.45-16.15,3.49A2.06,2.06,0,0,1,90.8,15.3c.38-2.06,2-2.57,3.71-3.11h0l5.93-2Z"/><path class="cls-67" d="M108.39,13.14h2l7,9.94c.85.73,2.58.53,2.47,2.3a1.75,1.75,0,0,1-.8,1.24c-3.87,1.54-6.33-.84-8.81-3.15C110.28,19.91,108.36,16.69,108.39,13.14Z"/><path class="cls-42" d="M115.35,11.14c3.27.94,6.84.38,10,2C121.94,12.79,118.19,14.27,115.35,11.14Z"/><path class="cls-68" d="M145.17,81.73c-5.7-3.07-7.13-2.09-7.13,4.83,0,.38-.53.76-.82,1.14-2.44-.11-2.4-2.74-3.77-4-2.65,2.34,1.67,3.19.79,5-1.09,0-2.27-.17-3,1-3.67-.73-4-3.42-3.84-6.45,1.29-3.75-1.12-8,1.54-11.56,2.15-1.4,4.72-.38,7-1.25,1.18-.45,2.14.56,2.44,1.79.86,3.41,2.74,2.35,4.69,1.12,3.23,0,6.32,0,8.85-2.81,1.15-1.26,3.29-1.41,5.17-1.06,1.92.86,1,3,2,4.31-.8,2.09,1.61,5.77-3,6-1.59-1.49-.57-3.43-.73-5.2-2.86-.54-3.28,2.58-5.24,3.21C147.89,78.34,145.9,79.24,145.17,81.73Z"/><path class="cls-69" d="M150.14,77.76c1.15-3,3-5.22,6.6-5.23.95,2.5-1.25,4.75-.63,7.22C153.7,80.36,152.35,77.78,150.14,77.76Z"/><path class="cls-69" d="M159.09,73.78l-2-4A1.74,1.74,0,0,1,158,68.5a.91.91,0,0,1,1,.27l.09,3C159.09,72.45,159.09,73.12,159.09,73.78Z"/><path class="cls-70" d="M52.71,143.38c-3.49-.62-5.49-3.3-7.5-5.93-1.7,1.5,1.44,3.82-.87,4.32-2.06.45-3.26-2-3.16-3.47.17-2.25-5.36-3-1.39-5.86,2.46-2,5.24-.8,7.9-.77a3.65,3.65,0,0,1,1.37.56c1.94,1.83,2.23,4.73,5.27,6.14,2.82,1.3,1.75,5-1.5,6.27a.9.9,0,0,1-.33-.82C52.56,143.53,52.63,143.38,52.71,143.38Z"/><path class="cls-71" d="M52.71,143.38c0,.33,0,.66,0,1,3.26.82,6.69,1.37,8.22,5a5.46,5.46,0,0,0,1.46,1.81,3.34,3.34,0,0,1,1.25,1.14c.7,1.65,1.9,3.31,0,5-3.57.61-6.21-3.43-9.94-2l-3-2c-.14-3.1,1.85-6.67-2-8.95C49.78,142.91,51.34,143.52,52.71,143.38Z"/><path class="cls-72" d="M47.75,132.44c-2.65.88-5.31-.49-8,0v-1c-.95-5.53.86-7.5,6.32-6.91a3.9,3.9,0,0,1,1.2.9,6.68,6.68,0,0,1,1.27,5.74A5,5,0,0,1,47.75,132.44Z"/><path class="cls-73" d="M45.76,125.47c-5.39-1.4-4.92,3.05-6,6l-3,0c.63-3.1-1.74-7.21,3-8.93,1.55-1.77,3.73.1,5.41-.92C46.12,122.76,46.91,124,45.76,125.47Z"/><path class="cls-74" d="M159,68.77l-.92,0c-6.49,2.4-9,1.29-9.91-4.35,2.54-3.76,4-7.58,2.66-12.37A6.59,6.59,0,0,1,153.13,45c.81,4.6,2.9,8.95,1.33,13.94-1.19,3.78,2.15,6.92,6.62,6.93l1.08.06Z"/><path class="cls-75" d="M153.13,45c-.67,3.68-2.25,7-.33,11.17,1.27,2.73-1,5.81-3.65,7.72-3.21-.58-4.77-2.16-2.67-5.26,2.4-3.53,1.94-5.26-2.37-7.46a11.77,11.77,0,0,0-6.81-8.88c-1.5-.47-2.76-1.17-2.81-3,.9-2.15,1.45-5.07,4.72-2.23.13,1.77,1.34,1.89,2.77,2,2.19.15,3.77-4.13,6.33-.83.78-.62,1.55-1.25,1.18-2.43-.8-2.54.81-2.74,2.65-2.72.37,2.28,1.79,4.37-.51,6.77C150,41.53,152.27,43.29,153.13,45Z"/><path class="cls-76" d="M139.21,37c-2.28-1.25-3.06.5-4,2-1.49,1.37-3.81,1.51-5,3.36a2.4,2.4,0,0,1-2.09-.11c-1.2-2.34-2.93-4.45-3-7.24,4-.61,7.63-3.19,11.92-2.68,2.59-.64,6.34,1.27,7.15-3.27,1.7.8,2.32,2.56,4.34,4.7C143.68,31.93,144.08,39.89,139.21,37Z"/><path class="cls-77" d="M144.18,29c.86,4.18-.44,4.92-7,4-.14-.17-.28-.34-.44-.5-2-2.67-4.38-4.47-7.95-3.91a2.08,2.08,0,0,1-1.07-.89,2.78,2.78,0,0,1,0-2.12l.49-.54c4-.53,7.39,1.88,11.13,2.62a4.83,4.83,0,0,0,2.79-.63A3.43,3.43,0,0,0,144.18,29Z"/><path class="cls-78" d="M89.5,148.35l-1,3c-2.23,1.79.45,5.69-3,7,0-2.6.27-5.65-3.73-2.5-.38.3-1.47-.3-2.23-.49a9.61,9.61,0,0,0-2.23-1.4,8.57,8.57,0,0,1-3.45-1,15.53,15.53,0,0,1-2.71-2.48c-.71-1.23-1.24-2.56-2-3.76a8.79,8.79,0,0,0-2-3c-.31-.3-.59-.62-.87-.94-1.46-1.5-2.35-3.66-4.47-4.36-3.38-1.12,0-4.15-1.75-5.68-.09-2-2.52-2.38-2.86-4.2a2,2,0,0,1,1.07-1.64,27.15,27.15,0,0,1,3.19-1.07,16.61,16.61,0,0,0,4.8-2,2.91,2.91,0,0,1,2.57-.44c1.55,3.24,1.43,7.16,4.64,9.78,1.22,1,.41,3.07-.71,4.43-2.71.62-2.28-4.23-5.67-2.9.54,2.87,4,3,5.08,5.28,1.1,1.58,2.63.29,3.09.38a3,3,0,0,1-2.77-.94,1.22,1.22,0,0,1,.21-1.29,6.15,6.15,0,0,1,3.84-1.72c5.18,0,9.62,2.25,14,4.8a.93.93,0,0,1,0,1.24C88,144,89.74,146.34,89.5,148.35Z"/><path class="cls-79" d="M69.62,146.36c1.81.75,2.08,2.27,2,4a2.09,2.09,0,0,1,0,3l-3-1c-1.66-1.89-3.31-.69-5,0h-2C62.1,147.39,66.86,148.2,69.62,146.36Z"/><path class="cls-16" d="M71.6,153.32v-3c1.55-.17,2,1.38,3,2,1,2.45,2,1.48,3,0a3,3,0,0,1,2,3C75.3,161.09,73.65,156.41,71.6,153.32Z"/><path class="cls-80" d="M32.83,116.53a6.92,6.92,0,0,0-2.76-5.92c-1.75-1.37-2.26-4-1.52-5.18,1.17-1.8,3.49-.94,5.1.45,1.83,1.58,3.5,1.16,5.14-.29,1.8,5-2.52,7-5,10Z"/><path class="cls-81" d="M33.82,115.54c.59-3.85,5.2-5.69,5-10,0-1.32,0-2.65,0-4,2.66.29,2.05,2.5,2.29,4.09.31,2.08-.06,4.23.4,6.32.16,1.5-.12,2.79-1.67,3.47.06,2.72-1.3,4.55-3.55,6.08C34.42,119.8,37.74,116.17,33.82,115.54Z"/><path class="cls-82" d="M39.82,115.5l.94-2.92c-.52-.72-.67-1.59.22-2s1.68.56,2.36,1.18c1.69,1.79,2.81,4,4.7,5.7.63.55,1.13,1.28.66,2.15a1.72,1.72,0,0,1-2,1c-.5-.1-2.13-1.52-1.07.74a.87.87,0,0,1-.35.19,2.05,2.05,0,0,1-.49-.06c-1.3,2.17-3.42.2-5,1C39.25,120.15,42.19,117.85,39.82,115.5Z"/><path class="cls-80" d="M29.85,118.52l3-2c-.43,1.75-.63,3.59-2,5C29.67,120.79,29.88,119.61,29.85,118.52Z"/><path class="cls-83" d="M21.9,83.72c-2.47.78-6.49-.37-5.76,4.54,0,0-1.43.29-2.19.43l-5-4c3.29,0,7.2.49,3.39-4.76-.92-1.25.24-2,1.59-2.21a2,2,0,0,1,1.92-.57C17.91,79.33,22,79.62,21.9,83.72Z"/><path class="cls-33" d="M13,28.05c2,0,2.26,1.71,3,3h0c-.54,1.58,1.18,3.45-.62,4.88-.82.79-1.76,1.44-2.6,2.23-2.66,2.48-3.6,2.13-5.26-1.73C9.44,33.72,9.81,30,13,28.05Z"/><path class="cls-41" d="M13,28.05c-1.41,2.81-2.21,6-5,8-.26-.22-.34-.44-.26-.66S7.89,35,8,35c-.32-2.41.42-4.68,1-7C10.3,29,11.62,28.08,13,28.05Z"/><path class="cls-84" d="M11,75.77a12.44,12.44,0,0,0-2.93,0c-3.68.93-4.55-.8-4-4a25,25,0,0,1,2.08,2c.62.75,1.41,1.09,2.11.56a1.4,1.4,0,0,0-.14-2.46c-2.33-1.56-1.33-4.76-3.58-6.58C2.77,64,5.22,63.58,6,62.85c.68-1.32,1.06-2.8,2.14-3.89,1.13-2.09.51-4.05-.46-6a3.17,3.17,0,0,1,.71-2.58c2.57-1.7,3.84.14,4.9,2,1,1.67,1.84,3.37,2.88,5a3.31,3.31,0,0,1,.26,1.39,8.64,8.64,0,0,1-1,2.65c-3.42,3.32-4,7.43-3.21,11.88.33.84,1.3,1.64.45,2.6C12.2,76.44,11.51,76.23,11,75.77Z"/><path class="cls-85" d="M8,52.9c3.39,1.89,2.27,4.41,1,7-1.39-2.9-1.39-2.9-5-3-.91-.57-1.47-2.14-2.95-1l0-3a4.11,4.11,0,0,1,2-1,7.55,7.55,0,0,1,1.5-.14A4.49,4.49,0,0,1,8,52.9Z"/><path class="cls-40" d="M4,56.88c3-1.24,5.11-1,5,3l-3,3C6.16,60.58,7.54,57.91,4,56.88Z"/><path class="cls-20" d="M94.51,12.19l-3,2.94a2.43,2.43,0,0,1-2,1c-2.53-2.45-4.8-5-3.92-9,.32-.1.9-.31.91-.29,1.16,2.86,3.12,4.19,6.31,3.7C93.24,10.51,93.91,11.63,94.51,12.19Z"/><path class="cls-41" d="M8,52.9H4c.17-2.39-.2-4.85.81-7.12S3.52,44.64,3,44q2-4.49,4-9H8v1c1.88,3.59,2.13,3.73,3.89.57.87-1.55,2.65,0,3.07-1.56,1.68-.4,2,.94,2.51,2a3.05,3.05,0,0,1-.72,2.67c-2.44,2.55-1.81,6-2.57,9a2.88,2.88,0,0,1-3.71,1.22c-.84-.29-1.95-.69-1.48,1Z"/><path class="cls-86" d="M3,44c1.17-.25,1.91-2.39,3.59-.39s-.63,1.9-1,2.8c-.88,2.08.92,4.82-1.59,6.53H3C.86,50.25,2.27,47.6,3,45,3,44.62,3,44.29,3,44Z"/><path class="cls-41" d="M3,45c1.38,2.65-1.36,5.3,0,7.95H1C1.52,50.21-.36,46.92,3,45Z"/><path class="cls-87" d="M2.07,31.07c1.55,1,3,2,0,2.92Z"/><path class="cls-88" d="M11,75.77c3.38-.65-.6-1.32,0-2a1.86,1.86,0,0,1,1.72-.72C20.71,74.46,23,71.86,23.2,62a4.28,4.28,0,0,1,.2-2.1,3.69,3.69,0,0,1,2.12-1.74c1.37-.52,3.05.23,4.24-1,.74-.76.43-2.11,1.5-2.68A3.63,3.63,0,0,1,35,55.73c.26,3.34-3.13,4.4-4.26,6.88-1.64,4.06-4,7.84-4.61,12.29a6.79,6.79,0,0,1-1.91,3.69c-2.74-.44-5.6.34-8.27-.82l-2,0Z"/><path class="cls-89" d="M53.71,155.31c.11-1,.42-2.09,1.73-1.58,2.78,1.1,5.48,2.37,8.21,3.57-.43,2.63-1.84.83-2.83.57-1.73-.45-3.42-1-5.13-1.56A2.06,2.06,0,0,1,53.71,155.31Z"/><path class="cls-90" d="M128.27,82.73c-.43,2.93,1.07,5,3,7,0,.33,0,.66,0,1-2.67-.59-4.27,2.59-7,2l-.51-.5a6.44,6.44,0,0,1-.57-3.51,6.93,6.93,0,0,1,.47-2.06A23.27,23.27,0,0,0,125,82.93C125.75,80.52,127.05,80.73,128.27,82.73Z"/><path class="cls-91" d="M134.24,88.69c-4.11-2.63-4.76-4.71-2-6.34,1.5-.87,3.71-.56,3.17,1-.85,2.49,1.89,2.66,1.78,4.31C136.51,88.87,135.33,88.66,134.24,88.69Z"/><path class="cls-92" d="M90.49,142.38v-1c-.73-1.87,1.39-2.51,1.68-3.94a6,6,0,0,1,1.23-2.38,3.84,3.84,0,0,1,2-.64c4,.25,5.94-3.06,8.69-4.93a34.85,34.85,0,0,0,4.59-4.43c2.7-2.69,5.33-3.06,7.93.12a1.19,1.19,0,0,1-.24,1.28,6.29,6.29,0,0,0-3,3c-6.82-.67-9.9,2.79-8,8.94-3.84-1.26-6.85.95-9.83,2.66A8.89,8.89,0,0,1,90.49,142.38Z"/><path class="cls-93" d="M129.27,122.49l-3-1a4.56,4.56,0,0,1-.77-1.17c-.3-1.64-1.39-3-1.78-4.56-.62-2.5-.24-4.67,3.13-4.66,1.32,1.13.82,3.43,2.7,4.22a4.38,4.38,0,0,1,.66,1.29A6.91,6.91,0,0,1,129.27,122.49Z"/><path class="cls-94" d="M126.27,120.53v1c-1.5,1-6.14-2.43-4.73,3.22,0,.13-3.39,1.14-5.21,1.74,0-.33,0-.66,0-1a12.53,12.53,0,0,1,3.94-6.5,4.82,4.82,0,0,1,1.4-.42A5.07,5.07,0,0,1,126.27,120.53Z"/><path class="cls-95" d="M129.27,122.49v-6.95c1.33-.67,2.15.18,3,1l1,5c-1.09,0-2.27-.17-3,1Z"/><path class="cls-96" d="M42.77,112.56c-.66.55-1.37-3.33-2,0-2.59-3.31.65-7.66-2-11,0-.33,0-.66,0-1,3.59-2.25,4.93,1.77,7.4,2.65A6,6,0,0,1,48.45,105c1.12,4,3.73,3.13,6.43,2,1.63.09,3.22.44,4.84.57a3.85,3.85,0,0,1,1.92.79c-.09,4.78-3.8,5.42-7.25,6.36-2,1.1.14,2.85-.65,4.12-2.11,1.23-3.68.23-5.18-1.2C46.71,115.79,45.14,113.71,42.77,112.56Z"/><path class="cls-97" d="M45.75,104.59c-2.45-1.07-3.54-4.53-6.93-4,0-.33,0-.67,0-1,1.28-1.52,3.17-2.15,4.75-3.23a2.37,2.37,0,0,1,1.32-.09,4.4,4.4,0,0,1,2.34,2.36C45.13,100.25,48.19,103.1,45.75,104.59Z"/><path class="cls-98" d="M30.84,94.66v-1c1.21-.73,1.78-2.37,3.48-2.41,2.12,1,4.2,2,5,4.44a2,2,0,0,1-.6,2c-1.44.93-2.53.83-3.47-.84A4.25,4.25,0,0,0,30.84,94.66Z"/><path class="cls-99" d="M38.75,97.65l0-2c-.4-1.56.78-1.53,1.74-1.73a3.45,3.45,0,0,1,3.25,2.73c-.59,2.76-3.13,2.28-5,3C38.79,99,38.77,98.31,38.75,97.65Z"/><path class="cls-100" d="M33.83,91.68c-.49,1.43-1.29,2.39-3,2-3,0-4.73-3.44-7.92-3l0-7c-.3-.93.27-1.31,1-1.6,3.35,0,4,3,5.45,5.08.08,2,.42,3.64,3.12,3.06C33.31,90.08,34.1,90.51,33.83,91.68Z"/><path class="cls-101" d="M23.87,82.72l-1,1h-1c-1-2.94-4.81-3.13-6-6,2.69,0,5.62-1.94,8,1l.51.54A2.84,2.84,0,0,1,23.87,82.72Z"/><path class="cls-102" d="M133.24,104.6c.4,2.25-1.51,4.94,1.28,6.73-.87,1.34,1.65,4.51-2.26,4.21-2.16-1.3-1.09-6.14-5.49-5-1.29,0-2.44-.3-3-1.67a11.28,11.28,0,0,1,.93-5.87C127.88,101.85,130.66,102.7,133.24,104.6Z"/><path class="cls-103" d="M133.24,104.6c-2.7-.44-5.59-.14-7.94-2a3.42,3.42,0,0,1,0-5c.16-.76.06-1.89.52-2.21,1.27-.89,1.63.53,1.92,1.26.66,1.73,1.1,3.54,3.53,1.94C132.11,100.56,133.51,102.31,133.24,104.6Z"/><path class="cls-104" d="M127.28,109.58c6.25-1.84,3.73,3.63,5,6,0,.33,0,.66,0,1l-3-1h0c-2.64-.74-.34-3.75-2.24-4.82A1,1,0,0,1,127.28,109.58Z"/><path class="cls-105" d="M125.29,97.65c0,1.65,0,3.31,0,5,0,2,.19,4.12-1,6a1.33,1.33,0,0,1-1.36.16,4.86,4.86,0,0,1-2.25-3.08c-.88-4.11-3.51-7.19-5.86-10.46a3.19,3.19,0,0,1,2-3.31c2.61-.76,5.17-1,7.51.78h0C124.54,94.35,123.63,96.25,125.29,97.65Z"/><path class="cls-106" d="M89.44,16.12a2.23,2.23,0,0,1,2-1,2,2,0,0,0,1,2c1,1.83,3.28,1.89,4.57,3.31a3.91,3.91,0,0,1,.81,2.65,4.22,4.22,0,0,1-1,1.89c-2.21,1.47-4.65,1.31-7,.73-1.62-.39-3.71-1.75-2.76-3.25,1.83-2.92-1.15-1.35-1.52-2.06-.82-2.69,1.83-2.28,2.91-3.28Z"/><path class="cls-56" d="M88.46,17.1l-3,3c-.31.36-.62.39-.94,0l0,0C84.71,17.58,86.34,17,88.46,17.1Z"/><path class="cls-107" d="M84.52,20.08c.31,0,.62,0,.94,0a5.41,5.41,0,0,0,4.39-1.52c.82,2.5-3.75,2.73-1.76,4.95,2.41,2.67,5.5,1.31,8.37.57,1.94.85,1.94,1.3,0,3.51-3.63.69-6.34,3.12-9.34,5-2.56-.08-3.69-1.48-2.75-3.81,1-2.59-.5-3.92-2-5.44a1,1,0,0,1,.17-1.23A1.81,1.81,0,0,0,84.52,20.08Z"/><path class="cls-108" d="M82.6,22.11c0,.33,0,.65,0,1,.23,3.1-3.06,3.34-4.26,5.27-.79.75-1.56,1.5-2.33,2.27-1.15,1.05-2.14,2.34-3.78,2.71A1.77,1.77,0,0,1,71,32.77c-1.57-2.08-1.15-4.11.13-6.13,2.52-3.71,7-2.86,10.42-4.55Z"/><path class="cls-109" d="M81.54,22.09c-2.47,3.34-7.32,1.92-9.93,5-1.49,1.15-2.24.09-3-1-1.11-2.18,1.86-1.64,2-3a2,2,0,0,0,2-1C75.58,20.64,78.56,22.79,81.54,22.09Z"/><path class="cls-110" d="M47.74,24.07c2.29,1,6-.35,6,4.43,0,1.17,2.14-.32,2.9-1.44,3.71-1.82,6.29-.65,8,3-2.11,2.2-2.23,2.3-5,1.63-3-.72-5.82-.94-8.15,1.56-1.31,1.6-1,5.64-4.93,3.3-2.92-1.58-2.41,2.24-4.08,2.61a1.18,1.18,0,0,1-1.19-.41c-1-3-.15-5.82.44-8.69C44.85,29.13,45.56,25.87,47.74,24.07Z"/><path class="cls-111" d="M68.62,26.06l3,1a8.75,8.75,0,0,0,0,5.95c.88,2.43-1,3.7-2.17,5.29a24.42,24.42,0,0,0-3.1,4.05c-.77,1-1.34,2.22-2.5,2.91a2.7,2.7,0,0,1-1.29.13c-1.75-.79-3.85-1-5-2.78.06-.21.11-.42.17-.63.7-3.7,4.61-3.18,6.76-5,2-1.7,4.1-2.85,2.68-5.92C66.19,28.94,69,28,68.62,26.06Z"/><path class="cls-112" d="M50.73,33c1.47-5.1,5.7-2.9,8.61-2.69,1.87.14,3.55.66,5.31-.29,1.36,2.53,2.42,5-2.25,4.22-2.37-.36-3.06,2-4.71,2.74-2.67.92-4.5-.72-6.42-2.1C50.77,34.37,50.36,33.8,50.73,33Z"/><path class="cls-113" d="M51.72,34l6,3v5h0c-1.3,1.71-2.81,3-5.16,2.52a3.83,3.83,0,0,1-2.42-1.94A13,13,0,0,1,51.72,34Z"/><path class="cls-114" d="M41.78,30c1.06,3-.16,6,0,8.94-5.11,3-6.32,2.61-9.46-2.93-.84-2.74.33-4.87,2.08-6.83A1.34,1.34,0,0,1,35.81,29c7.18-2-.06,2.75,1.8,3.42A8.43,8.43,0,0,0,41.78,30Z"/><path class="cls-61" d="M35.81,29h-1L34.29,29c-1,.15-.84,1.1-1.22,1.69-.69,1.31-1.59,2.21-3.23,1.72-2.7-2.45.45-4.89,0-7.34h4C34.89,26.19,36.23,27.17,35.81,29Z"/><path class="cls-115" d="M29.85,25.07c1.4,2.32-1.22,4.63,0,7a2.48,2.48,0,0,1-1.09.77c-1,.52-2.67-.6-3.2,1.23a2.36,2.36,0,0,1-1.06,1.63c-2.08.21-4.58,2.86-6-1l.38-.64c1.14-1.74,4.52-1.44,3.88-5.07-.3-1.7,2-.2,3-.3s2.15-.81,1.85-1.79C26.87,24.33,28.89,25.37,29.85,25.07Z"/><path class="cls-24" d="M16.92,37l-2-2c1.33-1.08-.76-3,1-4,.68,1.31,3.17.81,3,3h0C17.82,34.72,18.09,36.34,16.92,37Z"/><path class="cls-77" d="M119.33,25.07l-2-2c3.93-.9,7.82-1.61,10.93,2h0c-2.39,3.19-5.21.32-7.81.55A1.87,1.87,0,0,1,119.33,25.07Z"/><path class="cls-116" d="M96.46,21.09c-.35-2.3-6.32,1-4-4,5.5-.56,10.55-2.87,15.91-4,1.77,3.09,4.09,6.07,2,9.94.29.91-.27,1.29-1,1.56l-.71.08-.7-.07C104.06,23.73,100.89,20.37,96.46,21.09Z"/><path class="cls-117" d="M109.39,24.07l1-1c3,.81,5.25,4.12,8.94,3,.81,2.8-.39,5.52-.29,8.29-.48,1.17-1.75,1.09-2.59,1.69-1.1.54-2,1.9-3.48.77a4,4,0,0,1-.53-2.64c1.73-3.88.15-6.17-3.56-7.45A2.33,2.33,0,0,1,109.39,24.07Z"/><path class="cls-118" d="M118.33,35c-.21-3-.83-6.12,1-8.94,0-.33,0-.66,0-1h1c1.9,2.79,4.2,5.35,5.27,8.66a2.44,2.44,0,0,1-.94,1.07C122.58,36.18,120.49,36.79,118.33,35Z"/><path class="cls-119" d="M144.18,50.92c2-1.19,3.57-1.39,4.36,1.54.5,1.87.49,3.95,1.88,5.53-.84,1.81-3.63-.09-4,2-.29,1.89,1.73,2.57,2.69,3.81.53,4.94,2.32,5.93,8.94,5l-1,1c-2.82,1.17-5.92,1.54-7.91,4.55s-3.82-1.87-6-.58c-2.07.25-1.48-1.63-2.08-2.56-1.11-1.73-1.9-3.7-4.62-3.54-2.52.15-3.67-1.47-3.77-3.9,1.34-2.41,2.46-5,3.91-7.32C139.44,55,141.2,52.14,144.18,50.92Z"/><path class="cls-120" d="M133.25,63.84c1,1.17,1.06,3.71,4.12,1.83.84-.52,4.58,2.84,4.92,6,.09.86.11,1.61.9,2.1-.16,1.84-1.77,3.07-2.91,2.44s-4.46-.51-2.76-3.71c.46-.86-1-1.74-1.41-1.23-2.2,2.56-4.59.24-6.84.51A1.58,1.58,0,0,1,128,70.46c.27-1.29,1.11-2.36,1.34-3.68a5.9,5.9,0,0,1,.52-1.25C130.73,64.48,131.55,63.28,133.25,63.84Z"/><path class="cls-121" d="M128.27,70.8l1,1c-1.43,3.55,1.12,7.46-1,10.94-2.07-.42-2.36-.36-2.19.42a2.87,2.87,0,0,1-1.78,3.56c-1.63-1.85-1.5-4.38-2.53-6.46-.19-1,1-2,0-3a1.39,1.39,0,0,1,.1-2.21,7.24,7.24,0,0,0,2.78-3.89C125.42,68.63,126.9,69.5,128.27,70.8Z"/><path class="cls-122" d="M60.67,150.34c-1.6-3.4-5.43-3.81-8-6,2.89-1.7,3.17-3.6.37-5.64-2.19-1.61-3.94-3.47-4.35-6.29,3.09-.42,4.59,1.94,6.38,3.72,1.39,1.39,2.88,2.64,4.34,3.94a9.44,9.44,0,0,1,1,1,9,9,0,0,1,1.23,1.77C62.94,145.58,62.85,148.1,60.67,150.34Z"/><path class="cls-123" d="M59.67,141.39c-4.27-2.22-6.56-6.86-10.93-8.95h-1v-1a7.11,7.11,0,0,1,4-2.42,2.15,2.15,0,0,1,1.28.39c.74.88,1.1,2,1.81,2.89C57,135.06,61.71,136.42,59.67,141.39Z"/><path class="cls-123" d="M60.67,150.34c.24-2.66,1.33-5.31,0-8,2.52-1.09,4.56,1.23,7,1,2,.08,2,1.53,2,3-1.22,3.9-6.74,2.06-8,6A2,2,0,0,1,60.67,150.34Z"/><path class="cls-124" d="M42.77,112.56c3.4-1.17,4.39,2.35,6.1,3.74s2.9,2.13,4.84,2.22a1.21,1.21,0,0,1,1.39-.14c3.39,4.72,2.76,6.57-3.27,9.5a5,5,0,0,1-5.09-2.4h-1c-.33-1.32-.67-2.64-1-4C44,118,47.47,121,48.15,119,45.71,117.56,44.31,115,42.77,112.56Z"/><path class="cls-125" d="M46.74,125.48l5,2a1.38,1.38,0,0,1,0,2,5.48,5.48,0,0,1-4,2C48.09,129.34,47.08,127.47,46.74,125.48Z"/><path class="cls-126" d="M144.18,50.92c-1.23,3.25-4,4.72-7,6a3.12,3.12,0,0,1-1.52-3.07c3-3.31,1.11-7,.85-10.61A5.5,5.5,0,0,1,138.22,41C141.07,43.77,146.22,45.18,144.18,50.92Z"/><path class="cls-127" d="M138.22,41a2.06,2.06,0,0,1-1,2,3.31,3.31,0,0,1-3,1.39,9.27,9.27,0,0,1-4-2.38c-.2-4.09,2.88-2.71,5-3C135.32,41,136.77,41,138.22,41Z"/><path class="cls-128" d="M130.26,42c1.71-.1,3.23.17,4,2,1.43,5.54.68,6.14-7.28,5.79-2.62-.94-4.15-3.24-6.1-5-1.38-1.25-1.83-2.76-.3-4.31,2.88-1.07,5.64-1.5,7.71,1.52Z"/><path class="cls-127" d="M128.27,42c-2.5-1.54-5.28-.84-8-1-1.25-2-3.43-3.45-4-6,.67-1.11,1.33-.08,2,0,2.41.33,4.67-.42,7-1,.25.22.34.44.26.66s-.17.33-.26.33C126.7,37.15,129,38.91,128.27,42Z"/><path class="cls-129" d="M125.29,35V34h0c.33-2.32-2.11-6,3-6h0c2.68,2.2,6.78,1.84,8.95,5h0C133.09,32.77,129.75,37.23,125.29,35Z"/><path class="cls-68" d="M128.27,28.05c-1.68,1.16-3.85,2-1.55,4.68.62.71-.64,1.16-1.43,1.28-1.7-3-5.05-5-5-8.94,2.65-2.31,5.3,2.37,8,0Z"/><path class="cls-130" d="M137.22,33c-2.87-1.85-7.49-.58-8.95-5C133.35,26.71,136.06,28.21,137.22,33Z"/><path class="cls-131" d="M53.71,113.55c3.33-.56,6.23-1.83,7.95-5,2.69-2.08,5.69-1.42,8.65-1,2.31,1,1.28,1.74,0,3-2.19,2.25-1.41,4.21,1.2,5.62a8.73,8.73,0,0,1,3.34,3.32c0,2-1.55,2.71-3,3.55-1.07.49-2.14,1-3.33.41l-2,1a32.52,32.52,0,0,0-6.62.18c-1.94-1.45.25-3.14-.28-4.68-.16-.41-.28-.81-.41-1.23a2.36,2.36,0,0,1,.16-1.91c.68-1.15,2.65-.16,2.5-.42-.9-1.47-2.23-1.62-3.73-.46a3.85,3.85,0,0,1-3.34.41C53.63,115.81,52.67,115.11,53.71,113.55Z"/><path class="cls-123" d="M93.47,138.4l-3,3c-1.2-.13-2.57,1.19-3.58-.19-2.64-3.58-6.85-2.64-10.33-3.79-3.13-3-.38-6.14-.19-9.23,2.1-1.34,4.1-3,6.85-2.33,2,.86,2.29,2.94,3.35,4.48A23.68,23.68,0,0,1,93.47,138.4Z"/><path class="cls-132" d="M76.58,128.46c1.14,3-1.52,6,0,8.95l-4,1a.62.62,0,0,1-.23-.66c.08-.22.15-.33.23-.33.23-2.51.73-4.6-2.55-6.29-2.27-1.17-1.46-4.92-1.43-7.62l3-1C77.36,122.47,77.83,123,76.58,128.46Z"/><path class="cls-92" d="M77.57,143.38c1.22-2,3-3.3,5.28-2.65,2.73.8,2.8,3.42,3.37,5.84.66,2.79-1.21,4.72-2.49,6-1,1-4,.07-5.17-2.2C77.87,148.07,78.49,145.61,77.57,143.38Z"/><path class="cls-79" d="M59.67,141.39c.5-4.64-4.62-5.54-6-8.95a3.63,3.63,0,0,1,3.07-1.67,5.31,5.31,0,0,1,3.89,1.67c-1.1,1.08,5.17,1.19.37,2.85-.54.19-.23,1.57.25,1.62,3.5.29,4.12,3.79,6.34,5.47-3,2.1-5.32-.53-8-1Z"/><path class="cls-133" d="M60.67,119.52c2.14,2.15-1.73,3.1-1,5,0,.2-.08.41-.11.62a8.3,8.3,0,0,1-.88,2.36l-1,1a5.79,5.79,0,0,1-1.06.92c-1.29.51-2.59,1.24-3.92.08h-1v-2c2.9-2.35,6.43-4.49,3-9C57,117.09,58.49,120.29,60.67,119.52Z"/><path class="cls-134" d="M72.6,137.41v1h0c-.58.54-.19,1.56-1,2a49.16,49.16,0,0,1-4.26-2.83c-1.11-.91-2.43-2.16-1.79-3.65.31-.73,1.94-1,3-1.26,1.74-.4,2.12,1.12,2.72,2.23C71.75,135.72,72.17,136.57,72.6,137.41Z"/><path class="cls-135" d="M59.67,124.49c2.32-1,4.64-3.39,7,0a5.76,5.76,0,0,1-5,2c-1.66.33-2.29-.36-2-2Z"/><path class="cls-92" d="M77.57,150.33c-3.12.29-3.15-3.29-5.67-3.93,1.59-1.79,3.42.27,4.67-1C79.07,146.59,78.1,148.5,77.57,150.33Z"/><path class="cls-136" d="M77.57,150.33c-1-1.52.36-3.52-1-5a2.06,2.06,0,0,1,1-2c3.14,1.91,2.07,4.43,1,7h-1Z"/><path class="cls-30" d="M71.6,140.39a2,2,0,0,1,1-2c1.3,1.77,3.39.47,5.6,1.56C75.63,140.41,74.15,144.74,71.6,140.39Z"/><path class="cls-137" d="M56.69,128.47h1c.58,1.64,5.35.13,3,4a6.78,6.78,0,0,1-4-1C54.92,130.45,55.27,129.46,56.69,128.47Z"/><path class="cls-123" d="M59.67,141.39c2.81-.91,5.15,1.9,8,1v1c-2.75,2.65-4.62-.81-7-1Z"/><path class="cls-138" d="M59.67,124.49a3.45,3.45,0,0,0,2,2c-.71,1.17-1.89,1-3,1C58.14,126.18,57.07,124.72,59.67,124.49Z"/><path class="cls-79" d="M77.57,152.33c-.13,1.39-.51,2.83-2.2,2.63s-1.26-1.52-.78-2.64A2.64,2.64,0,0,0,77.57,152.33Z"/><path class="cls-139" d="M23.89,61.84c2.14,3.93.36,7.9-1.73,10.5a7,7,0,0,1-9.76,1.52c-.33-.24-1-.06-1.44-.07-.42-4.85-1-9.75,4-12.94A2.64,2.64,0,0,1,17.37,62a2.91,2.91,0,0,1,.19,2,2.34,2.34,0,0,1-1.33,1.41c.45-.39,2.41,2.78,3.48-.59a3.42,3.42,0,0,1,2.07-1.37C23.94,64.83,23,62.12,23.89,61.84Z"/><path class="cls-140" d="M21.89,63.84a2,2,0,0,1-2,1,2.92,2.92,0,0,1-3-1v-2a3.52,3.52,0,0,1-1-3v-1c0-2.26,3-3.49,2-6a7.62,7.62,0,0,1,0-1.35c1.35-2.37,1.34-5.71,4.71-6.68,3.06-1.22,4.65.39,5.76,3,.39,1.33.53,3-.66,3.63-4.64,2.27-3.15,7.85-6.18,10.9A6.91,6.91,0,0,1,21.89,63.84Z"/><path class="cls-85" d="M18.91,51.91c1.48,3.22-.77,4.58-3,6C14,57,13.23,55.36,12.6,53.44,12.09,51.88,11.39,50,9,50.92c-1.3-1.37-.58-2.12.86-1.79s2.75-.1,4.11-.2l.66.07A11.4,11.4,0,0,1,18.91,51.91Z"/><path class="cls-141" d="M15.93,58.86c1.17.72,1,1.89,1,3a2,2,0,0,1-2-1A2.07,2.07,0,0,1,15.93,58.86Z"/><path class="cls-25" d="M24.87,35V33c1.21-.18,2.49-.84,3.46.54-1.13,3.47-2.12,7-4.78,9.75-1.47,1.42-3.86,1.79-4.58,4-1.49,1.14-2.78,2.91-5,1.57h0a9.28,9.28,0,0,1,2-10c1.77,3.88,4,1,5.39,0S23.5,36.17,24.87,35Z"/><path class="cls-61" d="M24.87,35c-.56,4.36-4.13,6.56-7.37,7.63-3.84,1.26-1.26-2.25-1.57-3.65a2,2,0,0,0,1-2c0-1.45,0-2.9,2-3C20.34,37.73,23,33.75,24.87,35Z"/><path class="cls-142" d="M20.9,61.85c-4-4,3.5-3.3,2.41-5.79-1.26-2.87-1.86-4.92,2.36-5.33,2.09-.21,2.21-2.08,2.19-3.79-.53-2.21,0-4.46-.25-6.7-.39-3.62,1-4.62,5.22-4.24,2.15,3.5,5.28,4,9,3h0c.8,2-.59,3.41-1.43,5-.56.67-1.22,1.26-1.77,1.93-2.4,1.6-.42,4.5-1.9,6.37-4.28-1.06-4.57-1.93-2.54-7.5-2.47,2.93-4.39,6-3.3,10.14a2.62,2.62,0,0,1,0,3c-2-1.32-3.33.59-5,1l-2,1C22.55,60,22,61.34,20.9,61.85Z"/><path class="cls-143" d="M24.87,74.77c.64-4.7,3-8.73,5-12.92,1.91-1.13,3.82-2.49,5.7.07,1.52,2.13,3.72,4,3.05,7-.56,1.51-1.51,2.48-3.25,2.37-4.77-2.62-4.77-2.62-5.52,2C28.86,76.1,27.33,77,24.87,74.77Z"/><path class="cls-144" d="M34.82,61.85c-1.66-1.94-3.32,1.19-5,0l5-6c.35-1.87,1.91-2.87,3-4.19a3.35,3.35,0,0,1,1.29-.27c2.62,1.26,5.2-3.24,7.84-.08-.21,1.25.14,2.52-.05,3.77-1,1.43-1.52,3.15-3,4.14A2.39,2.39,0,0,1,41.63,59a7.64,7.64,0,0,1-6.15,2.89Z"/><path class="cls-145" d="M37.81,51.91c-.08,2-1.4,3.1-3,4l-4-1c-2.85-4.5.33-11.77,5.45-12.35.5,3.1-6.51,6.67.52,9.36l.5-.37Z"/><path class="cls-146" d="M24.87,74.77c1.81.29,3.93,1.23,4-2,1.16-2,2.69-1.8,4.37-.73,2.77,1.83,2.06,4,.64,6.27-1,1.26-1.42,3-3.1,3.78-3,.27-5.06-1.23-6.86-3.35h0C24.22,77.42,24.54,76.1,24.87,74.77Z"/><path class="cls-28" d="M20.9,61.85c.08-2,.13-4.13,3-2v2c-.09,1.25.45,3.12-2,2A2.05,2.05,0,0,1,20.9,61.85Z"/><path class="cls-145" d="M25.87,58.87c1.5-1.13,2.72-3.62,5-1C29.69,60.72,27.48,58.3,25.87,58.87Z"/><path class="cls-147" d="M122.31,75.77q-1,.49,0,1c.92,1-1,2,0,3a8.32,8.32,0,0,1,2,7c0,.66,0,1.32,0,2a1.65,1.65,0,0,1-2.06.21c-1.28-3.21-2.24-6.54-4.1-9.52a4.84,4.84,0,0,1-.07-5.2c1.11-1.26,2.36-2.54,4.12-1.42C123.34,73.49,123,74.73,122.31,75.77Z"/><path class="cls-148" d="M122.31,88.69h2v4h-8a1.58,1.58,0,0,1-.21-1.32,6.38,6.38,0,0,1,4.28-3.41A2.29,2.29,0,0,1,122.31,88.69Z"/><path class="cls-149" d="M76.58,128.46c-.16-3.24-1.25-5.7-5-6l3-3a5.42,5.42,0,0,1,5-3.3c4.89-.47,11.43,2.27,14.48,6-.28,2,.86,3.1,2.35,4.36a4.14,4.14,0,0,1,1.22,5c-1,2-2.85,2-4.73,1.3-.49-.17-.58-.71-.89-1.05a2.7,2.7,0,0,0,.31.83c1,.65,2.44,1.13,1.2,2.75,0,1,0,2,0,3-3.3-1.57-4.29-5.79-7.94-7,1-2.33,1.07-4.27-2-5C80.86,125.88,79.25,129.06,76.58,128.46Z"/><path class="cls-150" d="M120.32,119.51c-1.3,2-1.55,4.71-4,6-3-2.34-5.63-1.84-7.76,1.3-2.48,3.67-7,5.16-9.51,8.81-1,1.42-2.37-.46-3.6-.17.7-3.67,3.71-5.28,6.39-7.2a26.47,26.47,0,0,0,8.37-8.38c1-1.55,1.78-3.09,3.89-3.15a19.7,19.7,0,0,1,4.91,1.14A2.38,2.38,0,0,1,120.32,119.51Z"/><path class="cls-151" d="M102.42,129.45a16.57,16.57,0,0,0-7,6h-2c.16-1.55-1.39-2-2-3q.49-.62,1,0c1.66-.2,4.09.66,4.28-1.77,0-.65.28-3.55-2.69-3.93-2.77-.36-1.21-2.67-.59-4.24.92-.86,1.7-.41,2.46.26.87.28.54,2.77,2.39,1.26a3.81,3.81,0,0,1,1-.89c2.27-.88,4.23-.4,5.44,1.69C106.22,127.35,103.14,127.86,102.42,129.45Z"/><path class="cls-152" d="M123.3,108.58h1c.72,1.17,1.9,1,3,1v1c.25.22.34.44.25.66s-.17.33-.25.33c-3.3.8-4.19,2.64-1.61,5,1.53,1.41.58,2.63.6,4l-5-1.07c-1.7-2-.7-4,0-6C122.15,111.93,121.81,109.87,123.3,108.58Z"/><path class="cls-153" d="M127.28,111.56v-1c3.63.47-.19,3.92,2,5C125.66,115.68,126.09,113.81,127.28,111.56Z"/><path class="cls-154" d="M122.31,113.55c-.32,2-1.35,3.83-1,5.91-.33,0-.66.05-1,.05l-1-1c-.66-.54-1.41-1-1.54-2-.12-1.85-1.58-2.27-3-2.76-3-2.22-7.4-2.7-8.65-7,1.42-1.86,4.38-1.81,5.31-4.29.82-1.84-1.33-3.93.46-5.68a1.57,1.57,0,0,1,1.26-.4c2.91,1.14,5,2.65,4.95,6.38a9.34,9.34,0,0,0,3,6.48C122.33,110.45,123.25,111.76,122.31,113.55Z"/><path class="cls-155" d="M59.67,108.58a8.21,8.21,0,0,1-5-1,1.64,1.64,0,0,1-.42-1.35c1.11-2.46,4-1.28,5.6-2.86,1.76-2.14,3.48-4.34,6.71-4a26.44,26.44,0,0,1,4.62.22,4.84,4.84,0,0,1,1.47.55c.85.71,1.45,1.51,1,2.7C69.27,105.33,65,108.28,59.67,108.58Z"/><path class="cls-156" d="M59.67,108.58c5.09-.94,8.58-5.61,13.92-6,1.93.88,4.28,1.38,4,4.33-1.77,1.31-3.42,3.06-6,1.64H59.67Z"/><path class="cls-157" d="M45.75,104.59c.71-1.92-.62-4.18,1-6,0-2.48,1.78-2,3-1.55A2.86,2.86,0,0,1,51.62,101c-.65,1.63-.84,3.46-1.95,4.92a1.64,1.64,0,0,1-1.93-.3A2.08,2.08,0,0,0,45.75,104.59Z"/><path class="cls-158" d="M60.67,119.52c-2.73,4.1-3.82-1.64-6-1h-1c-1.84-1.66-3.14-3.31,0-5a1.81,1.81,0,0,0,2,2c2.42.37,3,3.06,5,4Z"/><path class="cls-159" d="M47.74,105.6h2c1.81-.41,3.53-.4,5,1v1C51.33,110.63,48.75,110.86,47.74,105.6Z"/><path class="cls-160" d="M54.7,106.59c-1.67-.24-3.58.67-5-1a3.4,3.4,0,0,1,.35-4.1c1.32-1.37.47-2.53-.09-3.24-1-1.22-2.26-.73-3.24.38a3.43,3.43,0,0,1-2-2,2.72,2.72,0,0,1,1.2-.86,7.15,7.15,0,0,1,1.45-.28A7.85,7.85,0,0,1,54.05,98a15.28,15.28,0,0,0,6.61,6.56C59.16,106.71,56.21,104.48,54.7,106.59Z"/><path class="cls-161" d="M45.76,96.64h-2l-3-2a1.87,1.87,0,0,1-.59-1.08,2.76,2.76,0,0,1,.34-1.23,2.5,2.5,0,0,1,1.6-1,3.54,3.54,0,0,1,2.55,1.85C45.2,94.28,46.49,95.15,45.76,96.64Z"/><path class="cls-162" d="M40.77,93.65v1a2.08,2.08,0,0,0-2,1l-5-4c-1.07-1.53-1.92.12-2.83.14-3.13.05-3.39-1.72-2.15-4.12,2-.88,3.86-.11,5.78.19C37.81,88.6,39.62,90.78,40.77,93.65Z"/><path class="cls-163" d="M34.82,88.7c-2,0-4.12.19-6-1-2.23-1.08-2.09-4.55-5-5l0-4,6.93,3a2.85,2.85,0,0,1,1,.91C31.88,85.13,35.11,86,34.82,88.7Z"/><path class="cls-164" d="M122.31,113.55c-.08-3.4-4.22-4.28-4.64-7.51-.1-.76-1.22-1.65-1-2.14,1.76-4.37-2.18-5.25-4.27-7.25.36-2.23,1.63-1.74,3-1,3.43,1.38,4.81,4.27,5.77,7.58a53.56,53.56,0,0,0,2.18,5.35C123.06,110.25,124,112.16,122.31,113.55Z"/><path class="cls-165" d="M115.35,95.65c-1.09,0-2.27-.18-3,1h0a37.64,37.64,0,0,1-7.85,3.59,2.75,2.75,0,0,1-1.42-.46c-1.53-1.78-1.86-3.59-.14-5.45,2.55-1.79,5.85-2.07,8.25-4.17a4.52,4.52,0,0,1,2.86-.19,3.67,3.67,0,0,1,2.27,1.71v1Z"/><path class="cls-166" d="M113.36,34v3a1.59,1.59,0,0,1-1.23.33,6.82,6.82,0,0,1-1.84-.79c-1.76-2.49-4.93-1.23-7.09-2.63-.57-1.46-.58-3.16-2.92-3.38a11,11,0,0,1-4.92-2.24.9.9,0,0,1,.11-1.22c1.06-.76,2.77-1.29,1-3l1-1c2.34-1.29,3.92.17,5.58,1.49,2.24,1.81,4,4.15,6.65,5.51A6.81,6.81,0,0,1,113.36,34Z"/><path class="cls-167" d="M109.38,31c-3-.42-4.22-3.23-6.23-4.93a11.69,11.69,0,0,0-5.7-3l-1-2a4.8,4.8,0,0,0,3.24-.81c1.71-1.38,3.17-1.75,3.92,1,.66,2.44,3.62,1.13,4.77,2.81a6.5,6.5,0,0,1-.75.64,3.53,3.53,0,0,0,.75-.64h1v3C110.37,28.38,110.57,29.71,109.38,31Z"/><path class="cls-168" d="M72.56,33a6.74,6.74,0,0,1,3-3.05c1.79-.24,3.92,1,5.39-1.33-1.07-.7-2.5.6-3.38-.58.92-2.44,3.91-2.76,5.06-5,4.19.34,4.17,3.13,2.91,5.84s.32,2.74,2,3.1c.49,1,0,1.72-.55,2.48a23.84,23.84,0,0,1-2.42,2.4c-1.89,1.74-3.3,4-5.4,5.45-1.64,1.16-3.49,2.37-4.09-1a3.84,3.84,0,0,1,1-1.83c3.56-3.67,3.44-4.32-1.06-5.87A3.71,3.71,0,0,1,73,33.45C72.88,33.31,72.72,33.15,72.56,33Z"/><path class="cls-169" d="M86.52,34l1-2c1.66-3.24,4.57-4.48,8-5v1c.22,2.79-3.31,2.58-3.81,4.79-.66,1.26-1.4,2.44-3,2.71A2.13,2.13,0,0,1,86.52,34Z"/><path class="cls-170" d="M68.62,38l3-5h1a9.09,9.09,0,0,1,2.52,3.92,4.56,4.56,0,0,1,.13,1.38c-.51,2.56-2.15,4.61-3.14,7-.59,1.41-1.48,2.51-3.3,1.92a3.27,3.27,0,0,1-1.27-1.93A10.39,10.39,0,0,1,68.62,38Z"/><path class="cls-171" d="M77.54,28l1-.14c1.54-.19,2.5-2.75,4.32-1.29,1,.85-.32,1.67-.72,2.48-1,1.92-2.07,3.47-4.54,2.06-.69-.39-1.37-.8-2-1.2Z"/><path class="cls-145" d="M38.8,51.92h-1c-.89-2.32,1-4.64,0-7a2.06,2.06,0,0,1,2-1,13.16,13.16,0,0,0,4.58-6.19c.34-1.12.78-2.26,2.38-1.76,3.52,1.94,1.94-2.93,4-3l1,1c.49,3.08-.77,6-1,9,.09,1.79-.8,3.21-1.71,4.63C46,49.92,42.72,51.69,38.8,51.92Z"/><path class="cls-172" d="M46.75,36c-1.76,2.18-2.14,5.1-4.09,7.26-1,1.14-1.72,1.23-2.87.69l2-5a27.82,27.82,0,0,1,1.93-3.67C45.11,33.37,46.2,33.68,46.75,36Z"/><path class="cls-173" d="M52.72,44l5-2c1.3,1.58,3.86,1.07,5,3a1.05,1.05,0,0,1,0,1.4c-3.59,2.83-6.77,1.45-9.85-1A1.22,1.22,0,0,1,52.72,44Z"/><path class="cls-174" d="M68.62,38v7.95c-.56.89-.38,2.51-2.16,2.19-1-.63-1.94-2-1.15-2.67,1.44-1.27,0-2.39.33-3.49C66.45,40.51,66.82,38.72,68.62,38Z"/><path class="cls-175" d="M65.64,42c2.72,1.59-.93,4.24,1,6a3.65,3.65,0,0,1-.73,1.81c-.73.84-1.38,1.94-2.78,1.1-1.77-2.14-.4-4,.53-5.89Z"/><path class="cls-176" d="M63.65,45c.47,2-1.06,4,0,6,.23,1.05-.34,1.18-1.17,1a2.9,2.9,0,0,1-1.6-3,4.93,4.93,0,0,1,1.77-3c0-.33,0-.65,0-1Z"/><path class="cls-177" d="M52.72,44v1c.41.72,0,1.14-.53,1.54a7.72,7.72,0,0,1-2.33.83,1.49,1.49,0,0,1-1.12-.39,5.41,5.41,0,0,1,2-4A2,2,0,0,1,52.72,44Z"/><path class="cls-178" d="M32.83,36c-2.15.94-5.94.4-3.54,5,.7,1.36-.89,3.91-1.43,5.91-1.41-1.28-2.23-4-5-2a1.34,1.34,0,0,1,0-2q2.47-5,5-9.94c.06-.6.7-.62,1-1h1c1.55.18,1.95-1.38,3-2,.45-.76.87-1.56,2-1v0C34.68,31.52,32.42,33.38,32.83,36Z"/><path class="cls-179" d="M34.82,29l-2,1c-.31-.88-1-1.91.27-2.49S34.67,28,34.82,29Z"/><path class="cls-61" d="M28.86,32l-1,1a2.64,2.64,0,0,1-3,0C25.42,29.54,27.72,33.13,28.86,32Z"/><path class="cls-66" d="M112.37,37h1l3-2c2.34,1.31,4.37,2.83,4,6,1,3.83,4.41,5.51,7,8,1.18,4.47.49,5.11-4.21,3.93C117.39,49,115.88,42.32,112.37,37Z"/><path class="cls-180" d="M109.38,31c0-1.33,0-2.65,0-4,4.75-.9,5.6.61,4,7Z"/><path class="cls-181" d="M136.23,53.9l1,3c-1.06,2.47-1.35,5.38-4,7l-3,2c-1.5.3-1.56-.8-1.76-1.79.24-2.57,1.84-4.44,3.28-6.4C133.62,56.82,133.7,53.9,136.23,53.9Z"/><path class="cls-182" d="M122.31,75.77c-.1-5.24-2.46-1.42-4-1-.91.31-1.32-.24-1.64-1a3.25,3.25,0,0,1,.19-2.15A6.46,6.46,0,0,1,121,69.07a11.15,11.15,0,0,0,4.84-2c1.39-.89,2.85-1.57,4.4-.29.41,1.86-.92,2.86-2,4-.87.55-3.26-1.77-2.73,1C126.16,74.91,123.71,74.72,122.31,75.77Z"/><path class="cls-183" d="M130.26,66.82c-3.6-.87-5.17,4.37-8.95,3-2.46-1.47-1.57-3.1-.21-4.75,2.45-2.2,5.05-3.45,8.17-1.21a2.05,2.05,0,0,0,1,2Z"/><path class="cls-182" d="M122.31,79.75c-1.59-1-.26-2,0-3,.87.1,2.2-.28,2.41.75C125.07,79.2,122.65,78.46,122.31,79.75Z"/><path class="cls-78" d="M56.69,128.47a2.64,2.64,0,0,0,0,3l-3,1c-1.17-.71-1-1.89-1-3Z"/><path class="cls-184" d="M136.23,53.9c-1.46,1.19-1.1,4.21-4,4-1.15-.19-.59-3.17-2.71-1.71-3.1,2.16-5.18.09-7.36-1.68a2.31,2.31,0,0,1-.31-2l.44-.56c2.73.8,5.64,1.9,5-3h1c3.42,0,6.27-.58,6-5l3-1c.86,2.39.65,4.92,2.26,7.34C141.2,52.88,137,52.29,136.23,53.9Z"/><path class="cls-185" d="M71.6,108.58l6-2a.94.94,0,0,1,1.22,0,2.41,2.41,0,0,1,.3,1.29c-.08,1.11-3.2,2.81.63,3.16,1.2.72,2.46,1.37,3.08,2.74-.14,1.21-1,1.46-2,1.58-3.26-1.22-6,1.52-9.17,1.17-3,1-3,1-2.68-1.58a.73.73,0,0,0-.09-.47C64.92,110.24,69.2,109.85,71.6,108.58Z"/><path class="cls-82" d="M71.61,116.53c2.76-1.62,5.36-4,8.94-2,.54,1.1-.11,1.61-1,2l-5,3C73.32,118.79,71.63,118.49,71.61,116.53Z"/><path class="cls-186" d="M60.67,119.51c-3.15.55-3.1-2.91-5-4,2.32.69,4.47-4.92,6.86-.19.46.9,2.73.43,1.8,2.24-.75,1.47-1.81.53-2.92.22C58.06,116.83,61.13,119,60.67,119.51Z"/><path class="cls-187" d="M83.53,126.47c1.32-.65,2.86-1.39,3.56.52.62,1.68,1.36,3.83-1.56,4.45C84.86,129.79,84.2,128.13,83.53,126.47Z"/><path class="cls-141" d="M16.93,63.83c1.09.05,2.26-.17,3,1,.53.59,1.47,1.17,1.5,1.78.06,1.18-1.23.64-1.87.79a7,7,0,0,1-2.34-.32c-1.32-.18-3.31,1.86-3.74-1.21C12.94,62.27,16.61,65.94,16.93,63.83Z"/><path class="cls-85" d="M22.89,43v2c-3.12.79-2.75,3.91-4,6-2.32-1.37-2.32-1.59,0-4C19.22,44.59,21.45,44.18,22.89,43Z"/><path class="cls-41" d="M18.91,46.94c-.49,1.32-1.82,2.65,0,4v1c-2.05-.35-3.92-1-5-3Z"/><path class="cls-188" d="M37.8,45c2.22,2.32.94,4.64,0,7h-1C35.3,49.32,35.43,47,37.8,45Z"/><path class="cls-189" d="M37.8,68.81c.77-3.07-3-4.21-3-7h0c1.24-1.09,2.67-.68,4.06-.5,1.78,0,3.55.48,5.34.07a3.42,3.42,0,0,1,1.35.12c3.18,3.31.06,6.33-.45,9.48-3,2.06-4.39,6-8.13,7.23-2.91-1.4-1.18-3.3-.24-4.73S39.07,70.76,37.8,68.81Z"/><path class="cls-190" d="M37.8,68.81c2,1,3.13,2.14.88,4.15-1.37,1.23-2.92,2.55-1.87,4.8.94,1.78,0,2.38-1.61,2.55-1.28-.39-2.67-.69-2.37-2.55,1.63-1.66,1.87-3.32,0-5-.28-1.6.31-2.34,2-2A3,3,0,0,0,37.8,68.81Z"/><path class="cls-191" d="M34.82,70.79a3.47,3.47,0,0,0-2,2,3.24,3.24,0,0,0-4,0c.2-2-.85-4.71,2-5.29C32.85,67.09,34,69.11,34.82,70.79Z"/><path class="cls-192" d="M61.66,48.93l1,3-.46.51a13.22,13.22,0,0,0-8.13,8.63,8,8,0,0,1-2,3.37c-1,.77-2,1.31-3.28.67,1.6-2.26-1.19-3.29-1.4-5,2.35-2-.13-3.48-.66-5.16-.15-1-3.8-2,0-3a1.52,1.52,0,0,1,1.19-.47c2.06.06,4.18,1.27,6.13-.38C56,48,58.87,48.72,61.66,48.93Z"/><path class="cls-193" d="M47.74,51.91h-1c-1.3-1.63-2.47-.72-3.7.14-1.42,1-2.88,1.39-4.25-.13l9.94-5h1C52.37,50.09,52,51,47.74,51.91Z"/><path class="cls-194" d="M46.75,54.89a8.94,8.94,0,0,0,.71.66c1.12.89,3.49-.54,3.72,1.39S49,59,47.74,59.86a18,18,0,0,0-3,2h0c-2.37-.31-1.67-1.65-1-3C44.87,57.63,44.18,55,46.75,54.89Z"/><path class="cls-195" d="M43.77,58.87c0,1.09-.18,2.27,1,3a3.34,3.34,0,0,1-5,0c1.12-1.09-.69-3.66,2-4A2,2,0,0,0,43.77,58.87Z"/><path class="cls-143" d="M41.78,57.87c-1.62.85-.37,3.13-2,4h-5c2-1.88,5.45-2,6.37-5.21Z"/><path class="cls-196" d="M32.83,77.76l2,2c.24,1.87,1.72,1.22,2.82,1.36,2.32.65,2.61,2.53,2.74,4.51a2.74,2.74,0,0,1-1.88,2.09c-4.59,1.48-4.89-3.65-7.66-5,0-.33,0-.66,0-1C31.5,80.42,32.17,79.09,32.83,77.76Z"/><path class="cls-197" d="M117.34,73.78l1,1c-.48,2.47,1,4.25,2.06,6.25,1.22,2.36,3.09,4.66,1.92,7.66h-2c-.55-.37-1.23-.53-1.64-1.11a11.75,11.75,0,0,1-1.4-3c-1.74-2.73-2-5.85-2.29-8.94C115.27,74.35,115.74,73.34,117.34,73.78Z"/><path class="cls-198" d="M119.32,87.7l1,1-4,3a2.05,2.05,0,0,1-2-1C114.92,87.86,116.46,86.68,119.32,87.7Z"/><path class="cls-199" d="M79.56,116.53l1-2a2.05,2.05,0,0,0,2-1,2.41,2.41,0,0,1,1.19-.65c4.5-1,8.93-1,13.19,1-.21-1.32-.66.44-1,0-1.34-2.06-5.48-.94-5.3-4.7,2.14-1.18,4.53-1.59,6.84-2.26a3.36,3.36,0,0,1,3.23,1.36c.55,2.27,1.35,4.34,3.58,5.59a6,6,0,0,1,2.19,2.62c.57,1.14,1.61,2.27.58,3.61a2.83,2.83,0,0,1-4,.63c-1.75-1-3.51-1.68-5.6-1.11,0,1.73,2.54,2.92.93,4.88h0c-1.32.63-2.12-.28-3-1a2.05,2.05,0,0,0-2-1c-2.39-.76-3.55-5.33-7.23-2.23-.61.51-1.47-.4-1.64-1.3-.2-1.09-.07-2.64-1.44-2.74-1.69-.12-1,2.22-1.35,2.38C80,119.38,80.27,117.33,79.56,116.53Z"/><path class="cls-187" d="M92.48,132.44h-1c-.27-.89-1.91-1.07-1.39-2.27.37-.85,1.39-.82,2.13-.52C94,130.36,92.69,131.48,92.48,132.44Z"/><path class="cls-200" d="M98.45,124.49a16.76,16.76,0,0,0-.55-1.87c-.69-1.67-4.21-3.1-2.49-4.35,1.44-1,5.12-1.13,7.32.88,1.07,1,2.14,1.87,3.4.8,1.63-1.38-.85-2-.89-3.27,0-1.72-1.85-2.24-3.09-2.88-2.4-1.25-2.53-3-1.72-5.22a2.47,2.47,0,0,1,1.15-.78,4.53,4.53,0,0,1,2.77.19,7.18,7.18,0,0,1,1.73,1.16c2.61,2.93,7,4.13,8.27,8.37a3.1,3.1,0,0,0-2.89,2.17c-1.85,4.3-5.16,7.31-9,9.76-.39-1.78,3.2-2.52,1.32-4.56C102.23,123.25,100.32,123.27,98.45,124.49Z"/><path class="cls-201" d="M114.35,117.52c-2.74-2.92-6.6-4.58-8.94-8-.64-1.31-1.26-2.63,1-3,2.06,3.51,6.67,3.74,8.95,7a10.2,10.2,0,0,1,3,3l1,2A8.14,8.14,0,0,1,114.35,117.52Z"/><path class="cls-200" d="M95.47,123.49l3,1c.06.56.82,1.57,0,1.6A2.64,2.64,0,0,1,95.47,123.49Z"/><path class="cls-202" d="M106.4,106.59c-1.17.71-1,1.89-1,3l-1-1c-1.55-1.44-3.51-2.51-4.28-4.66-.61-1.72-2.08-1.91-3.58-2.06-1.26-1.46-.74-3-.13-4.5,3.3-2.22,4.79,1.13,7,2.27h1c2.78.66,6.15-.25,8,3C111.8,106.07,109.12,106.36,106.4,106.59Z"/><path class="cls-203" d="M112.37,102.61c-2.47-1.47-5.73-.85-8-3,2.4-1.66,4.75-3.47,8-3C110.39,98.64,115.05,100.63,112.37,102.61Z"/><path class="cls-204" d="M118.33,116.53a2.79,2.79,0,0,1-3-3C118.29,112.6,119.28,113.6,118.33,116.53Z"/><path class="cls-205" d="M60.66,104.6c-4.71.8-5.76-2.66-6.95-6a4.32,4.32,0,0,1,2.73-3.53c1.86.18,3.51-1.72,5.48-.6a5.94,5.94,0,0,1,1,1.65c.47,2.14,4,1.71,3.75,4.46C63.14,99.7,62.36,102.83,60.66,104.6Z"/><path class="cls-206" d="M66.63,100.62c-1-2.17-4.64-1-5-4A8.37,8.37,0,0,1,66,94.58c1.52-.32,2.63-.86,2.47-2.8A3,3,0,0,1,71,88.37c3.88,1,4.2,3.63,3.17,6.83-.4,1.23-1.16,2.34-1.45,3.63a4.77,4.77,0,0,1-1.14,1.79Z"/><path class="cls-207" d="M78.56,106.6h-1c-1.2-1.46-3.29-2-4-4l-1-2c4.44-.81,7.35-3.78,10-7.13,2,2.43.21,5.5,1.37,8.07A7.32,7.32,0,0,1,80.62,107,2,2,0,0,1,78.56,106.6Z"/><path class="cls-208" d="M82.53,93.66c-1.06,5.53-4.47,7.71-9.93,7h-1v-2c3-1.65,5.47-3.68,6-7.35A4.15,4.15,0,0,1,81,90.92a3.1,3.1,0,0,1,1.65,1.37A1.49,1.49,0,0,1,82.53,93.66Z"/><path class="cls-209" d="M56.69,95.65l-3,3c-2.24-1-4.24-2.71-7-2-3-5.6,2-6.42,5-8.45a2.65,2.65,0,0,1,1.72-.79,18.93,18.93,0,0,1,2.63,1.73,6.35,6.35,0,0,1,2.07,1.64,4.47,4.47,0,0,1,.43,1.34C58.69,93.69,58.28,95,56.69,95.65Z"/><path class="cls-210" d="M52.71,88.69c-1.56-.25-.29,3.49-3.61,2.09-1.79-.75-2.35,3.45-2.35,5.87h-1l-2-3c1-1.82-.86-2.71-1.34-4a14.93,14.93,0,0,1,.26-4.06c.5-2.31,1.81-4.3,2.47-6.55a2.72,2.72,0,0,1,1.12-1c1.59-.42,3-.34,4,1.25a3.2,3.2,0,0,1,0,2.16C46.51,85.4,51.05,86.57,52.71,88.69Z"/><path class="cls-211" d="M30.84,82.73c2,.08,3.15,1.35,3.94,3,.7,1.46,1.64,1.78,3,1,1.45,1.76,4.44,2.75,3,6,0,.32,0,.65,0,1-2.45-1.1-3.24-4.18-6-5C33.39,86.78,30.37,85.92,30.84,82.73Z"/><path class="cls-212" d="M40.79,92.68c.15-2.57-3.15-3.41-3-6a2,2,0,0,0,2-1,3,3,0,0,1,2.7-1.33c.65.23.85.89,1.27,1.33a6.7,6.7,0,0,1-1,4c.57,1.11-.22,1.54-1,2Z"/><path class="cls-213" d="M41.8,91.68c.33-.66.65-1.33,1-2,2.33.83,3.49,2,1,4Z"/><path class="cls-214" d="M111.37,90.68c-1.57,3.49-5.14,3-8,4C100.91,96,99.35,94,97.49,93c-.85-1.47-.25-2.78.46-4.07,1.38-1.21,2.37,0,3.39.63s2.2,1.47,3.39.14c1.07-1.84,2.5-3.08,4.76-2.5C111.28,87.67,111.52,89.1,111.37,90.68Z"/><path class="cls-215" d="M111.37,90.68c-2-3.73-4-3.53-6,0-3-2.19-1.54-4.18.28-6.15,3.81.66,7.62,1.45,11.39-.19a1.38,1.38,0,0,1,1.25.38l1,3c-2.12.22-3.49,1.69-5,3Z"/><path class="cls-216" d="M97.46,92.67c2.41-.61,3.76,2,6,2-1.4,1.66-.16,3.31,0,5-2.84,1.17-4-3.57-7-2L96,97.19a3.27,3.27,0,0,1-.12-2.53A3.55,3.55,0,0,1,97.46,92.67Z"/><path class="cls-217" d="M103.42,34c3.23-1.66,5.73-.39,8,2,.76,3.7,3.36,7.18,1.4,11.23-3.81-.69-6.63-3.5-10.16-4.78-2.21-1.13-.92-3.79-2.3-5.3a1.64,1.64,0,0,1-.12-1.21,5.27,5.27,0,0,1,2.58-1.87Z"/><path class="cls-218" d="M112.37,46.94c-.05-3.67-1.51-7.21-1-10.93l1,1c2.92,2.47,5.56,5.07,6,9.2.19,1.69.94,3.11,3.11,3.12,2.79,0,1,1.59.81,2.59h0a6.37,6.37,0,0,1-4.84,1.84,5.77,5.77,0,0,1-3.35-1.53C113.29,50.54,112.08,49,112.37,46.94Z"/><path class="cls-219" d="M90.5,32c.85-2.32,3.73-2.12,5-4,2.77-.75,4.92,1.48,7.76,1.52,2.5,0-.22,2.87.19,4.44h0c-1.65,1.1-3.41.5-5.14.37C96.12,32.16,92.79,33.79,90.5,32Z"/><path class="cls-116" d="M108.39,24.07c-.2,1.85-1.26,2.56-3,2.14a1.36,1.36,0,0,1-.49-1.2c.78-1.57,2.31-.69,3.5-.94Z"/><path class="cls-220" d="M75.58,41c.51,2.83,1.68,1.44,3,.55,2.26-1.57,3.1-4.66,6-5.52a5,5,0,0,1,1.64,3.85,3,3,0,0,1-.47,1.28,4.07,4.07,0,0,0-3.35,4c-1,2.13-2.48,3.05-4.55,1.48-1.16-.87-2.39-.78-3.64-.89C72,43.76,72.25,42.89,75.58,41Z"/><path class="cls-221" d="M85.52,40a6.64,6.64,0,0,1-1-4,3.43,3.43,0,0,1,2-2l2,1a15.61,15.61,0,0,0,4.14,3.92,2.66,2.66,0,0,1-.84,2.63C89,43.88,87.14,42.4,85.52,40Z"/><path class="cls-222" d="M74.59,38V37a9.53,9.53,0,0,1,0-4c2.93-2.41,4.41.5,5.2,2.08C81.17,37.82,78.63,39,76.58,40,75.39,39.84,75.08,38.82,74.59,38Z"/><path class="cls-223" d="M74.59,38a3.43,3.43,0,0,1,2,2l-1,1c-.43,1.3-3.71,1.89-1,4,.92.48,1.54,1.1,1,2.24A6.27,6.27,0,0,1,73,48.33c-3.47,1.11-3.47,1.11-3.39-1.39Z"/><path class="cls-223" d="M74.59,33c1.82,1.33.49,2.65,0,4a5.32,5.32,0,0,1-2-4Z"/><path class="cls-224" d="M92.48,39q-4.64.66-4-4a3,3,0,0,0,2-3c2.7.47,6.24-2.43,8,2a1.91,1.91,0,0,1,.42,2.07C97.22,38.09,95.32,39.58,92.48,39Z"/><path class="cls-225" d="M69.62,46.94c1,3.06,2-.33,3,0,1.6,2,1.5,4.13.7,6.37C71,55.89,68.59,57.93,65.15,55a3.52,3.52,0,0,1-1.05-2,29.71,29.71,0,0,1,1.54-4.06l1-1c.67-.66,1.33-1.33,2-2Z"/><path class="cls-226" d="M48.26,43.2l-1.45,1.33c-.25-.29-.75-.65-.69-.87a1.41,1.41,0,0,1,.84-.91C47.28,42.66,47.71,43,48.26,43.2Z"/><path class="cls-227" d="M61.66,48.93c-1,.31-1.38,2.48-2.57,1.48-2.58-2.16-3.12.5-4.39,1.5-3.57-.7-3-3.45-3-6l1-1c3.24,1,6.4,2.9,9.93,1Z"/><path class="cls-228" d="M65.64,48.93a6.61,6.61,0,0,1-1,4,6.08,6.08,0,0,1-1.87,2.68c-.8.46-1.6,1-2.44.08-.76-2.21,1.07-2.8,2.32-3.75h0l1-1Z"/><path class="cls-229" d="M51.72,46c1.2,1.89,1,4.48,3,6-2.32,2.67-4.64,1-7,0,1.79-1.21,4.18-2.18,2-5A2,2,0,0,1,51.72,46Z"/><path class="cls-230" d="M122.31,53.9c2.61.6,4.62,4.43,8.07-.24,1.44-1.95,1.19,2.67,1.87,4.21-.19,2.39-2.38,3.79-3,6-3-.51-5.52.47-8,2-1.77,1.26-3.46,2.81-5.87,1.41a2.06,2.06,0,0,1-.59-2.65C117.5,61.13,118.56,56.57,122.31,53.9Z"/><path class="cls-231" d="M115.35,66.82c2.1.36,4-.67,6-1a3.26,3.26,0,0,0,0,4l-4,2a2.8,2.8,0,0,1-2.43-1,4.93,4.93,0,0,1-.75-4A.84.84,0,0,1,115.35,66.82Z"/><path class="cls-232" d="M115.35,70.8a2.05,2.05,0,0,1,2,1v2a3.43,3.43,0,0,0-2,2,1.68,1.68,0,0,1-1.89.35,2.43,2.43,0,0,1-.78-1.11,3.71,3.71,0,0,1,0-1.37A3.63,3.63,0,0,1,115.35,70.8Z"/><path class="cls-233" d="M115.35,66.82h-1c-2,.69-3.27-.44-4.36-1.91-1-3.13-.72-5.9,2.75-7.21,2.38-.91,2.35-3.9,4.6-4.8l5-1v2C120.89,58.69,117,62.16,115.35,66.82Z"/><path class="cls-234" d="M78.56,106.6h2c1.54-.8,2.89-2,4.69-2.28a3.24,3.24,0,0,1,1.21.62c1.29,1.26,3.09,2.24,2.46,4.54a14,14,0,0,1-5.38,4.08h-1a3,3,0,0,1-3-2c0-1.4.15-2.85-1-4Z"/><path class="cls-235" d="M78.56,107.59c2.91.68,4.13,1.78,1,4-.82,0-1.64,0-2.46,0s-1.89.09-2.07-.86c-.22-1.2.6-1.64,1.81-1.6C77.76,109.13,78.23,108.37,78.56,107.59Z"/><path class="cls-236" d="M36.81,81.74c-.69.87-1.56,1.31-2.43.44s-.44-1.75.44-2.43a1.81,1.81,0,0,0,2-2c3.2-1.69,4-6.16,7.95-7l.61.44a3.05,3.05,0,0,1,.76,2.06,9.86,9.86,0,0,1-.43,1.37C43.26,81.5,43.26,81.5,36.81,81.74Z"/><path class="cls-237" d="M44.76,61.85c.45-1.48.37-3.76,3-2,1,1.52,3.54,2.74,1,5a4.11,4.11,0,0,1,.8,1.39c-.19,3-1,5.28-4.78,4.58h0C44.22,67.81,47.54,64.83,44.76,61.85Z"/><path class="cls-238" d="M48.74,65.83v-1l3-1c2.51-1.13,3.61-4.7,7.12-4.09a3.67,3.67,0,0,1,.75,2.65c.8,6.16-3.43,9.67-7.1,13.48C49.77,73.07,49.31,69.43,48.74,65.83Z"/><path class="cls-239" d="M58.68,59.86c-2.51,1-3.75,4.22-7,4,1.36-2.94,2-6.19,4.33-8.72,1.88-2,3.65-3.67,6.6-3.21-.55,1.38-2.13,2.24-2,4A6,6,0,0,1,58.68,59.86Z"/><path class="cls-240" d="M36.81,81.74c.11-.12.22-.35.33-.35,4.51-.07,7.26-1.84,7-6.85,0-.56,1-1.17,1.57-1.75,2.67-.13,2.43,1.43,1.86,3.19-.4,1.07-2.5,1-1.86,2.77h0a12.89,12.89,0,0,1-3,6l-3,1C38.69,84.47,39.37,81.88,36.81,81.74Z"/><path class="cls-241" d="M113.36,75.77h2l1.35.47c-1.2,3.16,1.2,5.63,1.63,8.48h-1c-2.42-.69-4.74-1.5-5.72-4.16A5.51,5.51,0,0,1,113.36,75.77Z"/><path class="cls-242" d="M83.53,113.55c1.24-1.85,2.45-3.74,5-4a1.37,1.37,0,0,1,2,0c1.29,2.39,5.45.45,6,4a.6.6,0,0,1,1,0c.45,1.27.66,4.13-1,2.45-3.81-4-7.6-2.33-11.62-1.89C84.46,114.16,84,113.75,83.53,113.55Z"/><path class="cls-243" d="M90.49,109.57h-2c.2-2.23-2-2.63-3-4A14.78,14.78,0,0,1,91.31,103a9,9,0,0,1,6.14,4.57A10,10,0,0,1,90.49,109.57Z"/><path class="cls-244" d="M97.45,107.58l-6-4c-.49-1.19.18-1.88,1-2.5a3.39,3.39,0,0,1,2.9,0c2.85,1.79,6,3.37,6,7.44h-1Z"/><path class="cls-244" d="M97.45,113.55h-1c.28-.77-.58-2.35.91-2.14C98.44,111.56,98.53,112.77,97.45,113.55Z"/><path class="cls-245" d="M101.44,108.58c-1.88-2.42-3.48-5.08-6-7a.6.6,0,0,1,1,0c1.75-1.39,3.66-2.31,4.27.81.5,2.61,3.61,3.44,3.68,6.15Z"/><path class="cls-246" d="M96.46,101.62h-4a.78.78,0,0,1-1.21,0c-.35-2.11-1.36-4.25.23-6.29,2.42-.88,3.79.49,5,2.3h0C97.43,99,96.5,100.29,96.46,101.62Z"/><path class="cls-247" d="M57.69,91.68v-1c1.58-2.33,4.78-2.18,6.53-4.26,4.35,2.82,5.08,5.65,2.41,9.23l-5,1v-2C60.56,93.37,58.76,93,57.69,91.68Z"/><path class="cls-248" d="M57.69,91.68c2.14-.1,3.83.4,4,3-1.79-.34-2.95,2.48-5,1A6.69,6.69,0,0,0,57.69,91.68Z"/><path class="cls-249" d="M77.57,91.68c.61,4.23-1.55,6.76-6,7,.13-.79,0-1.81.45-2.32,2.89-3.25,1.82-5.62-1.45-7.63-2.57-1.82-1.92-3.18.62-4.27a3.76,3.76,0,0,1,3,1.76C74.68,88.42,77.72,89.09,77.57,91.68Z"/><path class="cls-250" d="M71.6,84.72c-2.12.88-2,2.32-1,4-.18,1.11-2,1.66-1.3,2.92,1.73,3.19-.6,3.49-2.68,4,1.76-3.9.25-6.71-3-8.94a1.78,1.78,0,0,1-.39-1.91,19.32,19.32,0,0,1,3.4-3.3c2.43-.61,3.8.9,5.1,2.55C71.71,84.27,71.65,84.49,71.6,84.72Z"/><path class="cls-251" d="M82.53,93.66c0-.33,0-.66,0-1,0-2.38,1.68-2.45,3.39-2.52,1.52,1.16,2.14,3.34,4.28,3.84A2.36,2.36,0,0,1,91,95.06c.06,1.6-1,2.47-2.15,3.24-1.91.89-2.51,3.92-5.34,3.32C79.85,99.39,83.75,96.21,82.53,93.66Z"/><path class="cls-252" d="M83.53,101.62c2.26-.57,2.43-3.76,5-4,2,.57,2.82,1.83,2.38,3.88-1.14,2.15-3.27,2.58-5.36,3.08a4.91,4.91,0,0,1-5,2Z"/><path class="cls-253" d="M77.57,91.68c-1.35-1.64-4-2.23-4-5,3-2.07,4.63,2.9,7.54,1.56a2.14,2.14,0,0,1,.42,3.41Z"/><path class="cls-254" d="M81.55,91.68c0-1.1.17-2.27-1-3-.23-1,.38-1.42,1.14-1.78,2.3-.48,4.31-.28,5.29,2.3a2,2,0,0,1-.47,1.48,5.36,5.36,0,0,0-4,2Z"/><path class="cls-255" d="M52.71,88.69c-3.63.46-4.63-2.56-5.65-4.84s2-1,2.67-2.12c1.87,1.32,2.88.64,3.3-1.42A2.7,2.7,0,0,1,55.35,79c2,.48,3.87.92,4.75-1.81a2.08,2.08,0,0,1,2.71-1.51c.47,1.39.89,2.88,2.82,1.46a1.64,1.64,0,0,1,1.26,1.48,10,10,0,0,1-3.7,4c-2.21,1.33-3.84,3.56-6.51,4.15a11.93,11.93,0,0,1-3,1Z"/><path class="cls-210" d="M63.65,84.72v2c-.34,1.11,2.73,4.81-2.11,2.65-.82-.37-2.22,1.71-3.85,1.32a2,2,0,0,1-2-1,5.43,5.43,0,0,1,1.86-3.4A9,9,0,0,1,63.65,84.72Z"/><path class="cls-256" d="M57.69,86.71a3,3,0,0,1-2,3,1.81,1.81,0,0,1-2-2,3.43,3.43,0,0,1,2-2C56.18,86.4,57.22,86,57.69,86.71Z"/><path class="cls-257" d="M55.7,79.75a2,2,0,0,0-2,1c-1.74,1.33-3,.57-4-1s-2.61-.85-4-1c-1.11-1.48.4-2.08,1-3,2-1.06,4.13-3.17,5.85.38,1,.84,2.22,1.5,3.22,2.39A1,1,0,0,1,55.7,79.75Z"/><path class="cls-258" d="M49.73,79.75a6.71,6.71,0,0,0,4,1,3.26,3.26,0,0,1-2.27,3.88c-1.32.27-.2-2.4-1.71-2.89Z"/><path class="cls-257" d="M42.77,84.72q1.5-3,3-6c.79,2.74-1.64,4.55-2,7Z"/><path class="cls-259" d="M106.4,84.72c-1.38,1.81-2.34,3.69-1,6-.91,1.81-2,2.38-3.7.79-1-1-2.17-1.85-3.26-2.77a.87.87,0,0,1-1.23-.07,2.37,2.37,0,0,1,0-1.42c3.37-4.64,5.5-5.52,9.27-3.85A1.43,1.43,0,0,1,106.4,84.72Z"/><path class="cls-260" d="M97.45,88.7h1a6.7,6.7,0,0,1-1,4,2,2,0,0,1-1,2c-3.2,1.54-5-1.4-7.41-2.33-.58-.56-1-1.16-.41-2C91.4,88.87,94.57,89.52,97.45,88.7Z"/><path class="cls-261" d="M106.4,84.72v-1a2.63,2.63,0,0,1,1-2.33c1.64-.28,3.23-1,5-.65,1.24,1.85,4.11,1.66,5,4A8.38,8.38,0,0,1,106.4,84.72Z"/><path class="cls-262" d="M89.5,91.68c2.65.22,4.19,3,7,3v3l-5-2c-.6-.07-.65-.68-1-1h0C89.71,93.82,88.78,93,89.5,91.68Z"/><path class="cls-263" d="M112.37,46.94a4.89,4.89,0,0,1,2,5c-2,2.57-5.36,3-7.73,5-1.64-1.3-1.19-2.94-.55-4.46,1-2.28.36-4.12-1.23-5.81-1-1.26-2.36-2.29-2.64-4,.07-.22.15-.44.23-.66C106.47,42.16,109.45,44.48,112.37,46.94Z"/><path class="cls-264" d="M92.48,39l6-3a1.38,1.38,0,0,1,2,0v1c-.11,2.5-1.81,3.92-3.59,5.28a3.69,3.69,0,0,1-1.27.35A8,8,0,0,1,93,42.07,3,3,0,0,1,91.49,41Z"/><path class="cls-265" d="M96.46,42l4-5c.48.5,2.76-1,1.58,1.29-.72,1.42.64,2.42.41,3.68h0C100.43,43.65,98.44,44.14,96.46,42Z"/><path class="cls-266" d="M100.44,36h-2V34c1.65-1.39,3.31-.16,5,0A3,3,0,0,1,100.44,36Z"/><path class="cls-267" d="M106.4,56.88c1.23-3.93,5.08-3.67,7.95-5l3,1c-1,2.81-1.64,5.63-5.45,6.45-2.85.62-.2,3.82-1.51,5.47a2.15,2.15,0,0,1-1.94.69,3,3,0,0,1-1.77-1.12c-1.18-2.29-2.42-4.58-.9-7.21Z"/><path class="cls-268" d="M75.58,46.94l-1-2c1.4-.8,2.69-1.14,3.79.56,1.41,2.19,2.32.83,3.17-.56,1.29-1,2.3-.32,3.29.53,1.25,1.54,1.7,3.45,2.36,5.26a8.21,8.21,0,0,1,.37,2.14A5.37,5.37,0,0,1,87.23,55a2.08,2.08,0,0,1-1.59,1.26c-4-.18-4.53-5.41-8.44-5.72C76.27,49.53,75,48.66,75.58,46.94Z"/><path class="cls-269" d="M86.52,52.91v-2a2.8,2.8,0,0,1,.21-2.77c2.72-3-.89-1.49-1.43-2.12-.46-1.71-.73-3.4.22-5.05V40c2,.45,3.56,3.18,6,1h2c1.3,3.72-1.06,10.66-4.24,12.36A2.29,2.29,0,0,1,86.52,52.91Z"/><path class="cls-270" d="M85.52,41a8.94,8.94,0,0,1,0,5,.6.6,0,0,1-1,0l-3-1C81.47,42.22,81,39.12,85.52,41Z"/><path class="cls-271" d="M75.58,46.94l2,3c-.28,2.58-2.07,3.62-4.29,4.22l-.68-.24v-7Z"/><path class="cls-272" d="M65.64,53.9c2.32,3.48,4.64-.16,7,0h0c.65.58,1.85.16,2.25,1.21-.92,3.66-2.82,6.45-6.71,7.45a4.2,4.2,0,0,1-2,.68,2,2,0,0,1-1.25-.76C63.21,59.45,63.91,56.63,65.64,53.9Z"/><path class="cls-273" d="M65.64,53.9c.42,3-1.36,6,0,8.94-.7,1.46-1.72,1.91-3.18,1-.78-3-1.77-6,.2-9a3.41,3.41,0,0,1,2-2Z"/><path class="cls-274" d="M62.66,54.89c-.71,3,1.43,6,0,9A1.48,1.48,0,0,1,63,65.62c-2.62.91-2.56-2.34-4.31-2.78v-3c-.09-1.7.18-3.23,2-4Z"/><path class="cls-275" d="M108.39,64.83h2l4,2a6.65,6.65,0,0,1,1,4l-2,3c-2.45,1.43-4.1-.37-5.93-1.46-1.18-1.43-.52-3.14-.75-4.73A2.68,2.68,0,0,1,108.39,64.83Z"/><path class="cls-276" d="M112.37,80.74c-1.27,2.3-3.18,1.37-5,1a2.34,2.34,0,0,1-.62-2.5c.46-1.13,1.85-1.7,1.9-3.11.8-3,2.94-1.51,4.68-1.36v1Z"/><path class="cls-277" d="M113.36,74.77c-1,1.32-3.86-1.09-4,2-1.86,1.21-3.09.22-4.2-1.2a3.35,3.35,0,0,1,.57-2.65,2.42,2.42,0,0,1,1.65-1.12l6,2Z"/><path class="cls-278" d="M85.52,104.6c.87-2.3,3.4-1.84,5-3,.33-.49.67-.47,1,0h1l-1,2c-1.77,1.32-3.61,2.41-6,2Z"/><path class="cls-279" d="M52.71,76.76c-1.58-2.77-4-.78-6-1,.78-1.37.61-2.41-1-3a2.05,2.05,0,0,1-1-2c2.44-.77,4-2.22,4-5,1.31,3.32,3.33,6.35,4,9.94a.63.63,0,0,1,.22.66C52.86,76.65,52.79,76.76,52.71,76.76Z"/><path class="cls-258" d="M52.71,76.76c0-.33,0-.66,0-1,.54-2.23,3-3.75,2.37-6.44a1.53,1.53,0,0,1,.55-1.11c5.85.91,1.48-3.92,3-5.38,3.41-1.78,2.4,2.33,4,3,.94-.27,1.21.25,1.22,1.06-2.94,3.81-6.43,7.23-8.18,11.86C54.25,78.77,52.8,78.78,52.71,76.76Z"/><path class="cls-280" d="M91.49,101.61h-1c.15-1.73-1.43-2.6-2-4,.61-1,2.16-1.43,2-3,.33.33.67.66,1,1C91.14,97.64,93.1,99.63,91.49,101.61Z"/><path class="cls-281" d="M81.55,87.7l-1,1c-2.89,1.34-4.38-2.21-7-2l-2-2h0a4,4,0,0,1,2.55-1.19,17.18,17.18,0,0,1,3.58-.43C79.89,83.88,81.88,84.83,81.55,87.7Z"/><path class="cls-282" d="M74.58,84.72h-3l-4.95-3-.48-.49a2,2,0,0,1,.45-2.48l-1-1A7.14,7.14,0,0,1,64,73.86a3,3,0,0,1,.44-2.09,2.86,2.86,0,0,1,2.79.21c2.12,1.34,3,3.62,4.23,5.63C71.47,80.43,75.85,81.34,74.58,84.72Z"/><path class="cls-283" d="M57.69,86.71a2,2,0,0,1-2-1c3.16.16,4.3-3.24,7-4,1.32,1.15,2.65-1,4,0h0a2.83,2.83,0,0,1-3,3C62.35,87.45,59.38,85.17,57.69,86.71Z"/><path class="cls-284" d="M89.5,91.68l1,3c-2.44-.2-5.08-.22-4-4,0-.34,0-.67,0-1a.86.86,0,0,1,1-.35,1.76,1.76,0,0,1,1,1.35Z"/><path class="cls-285" d="M87.51,89.69h-1c-1-2.31-3-2-5-2a10.22,10.22,0,0,0-4-4,1.47,1.47,0,0,1-.29-1.88,6.27,6.27,0,0,1,5.33-.34c2.4,1.85,5.07,3.5,5.48,6.94A2.17,2.17,0,0,1,87.51,89.69Z"/><path class="cls-286" d="M64.65,71.8v2c.33,1.66-.36,2.29-2,2a3,3,0,0,0-1.94,2.51c-.44,4.72-2.74,3.06-5,1.47v-1c-.36-3.75,3.88-10.12,7.93-11.93A4.34,4.34,0,0,1,64.65,71.8Z"/><path class="cls-287" d="M66.63,81.73c-1.32.41-2.65,3-4,0,1.75-.43,1.82-3.08,4-3C66.63,79.75,66.63,80.74,66.63,81.73Z"/><path class="cls-288" d="M62.66,75.77a3.43,3.43,0,0,0,2-2c1.45,1,.85,2.61,1,4C64,78.1,62.2,78.61,62.66,75.77Z"/><path class="cls-289" d="M107.4,78.75v3a2,2,0,0,1-1,2c-4.33-1.71-6.14,2.25-9,4-1.74,2.11-2.71,1.21-3.37-.88.63-3,3-4.76,5-6.76a9.84,9.84,0,0,1,3.27-1.71C104.09,77.85,105.83,77.25,107.4,78.75Z"/><path class="cls-290" d="M94.47,86.71c.57,1.6,1.62,1.77,3,1v1c-2.32,3.6-6,1.34-9,2l-1-1v-1C89.77,87.8,91.11,83.71,94.47,86.71Z"/><path class="cls-291" d="M105.41,45.94c2.64,2,3.89,4.07,1.55,7.23-.65.89-.4,2.46-.56,3.71h0c-2.16.59-1.59,3.2-3.14,4.24a1.52,1.52,0,0,1-1.3-.51c-1-1.66-.78-3.42-.47-5.18,1.13-2.38-.21-4.76,0-7.14a4.3,4.3,0,0,1,.54-1.36A3.87,3.87,0,0,1,105.41,45.94Z"/><path class="cls-292" d="M105.41,45.94c-.72,1.18-1.89,1-3,1-2,1.14-4.41.32-6.48,1.24a2.35,2.35,0,0,1-1.38-1.68c-.06-1.59-.36-3.22.91-4.53h1c2,.83,4,0,6,0Z"/><path class="cls-293" d="M95.47,42v5c-.92,3.23-1.77,6.52-5.48,7.82-1.14.3-2.28.85-3.46.12v-2c3.8-.87,6.84-6.09,7-11.94Z"/><path class="cls-294" d="M102.43,60.85h1c1.49.77,2.39,2.33,4,3l1,1-1,3a4.85,4.85,0,0,1-4.2,1.59,3.18,3.18,0,0,1-2.48-3.53C101.14,64.16,101,62.22,102.43,60.85Z"/><path class="cls-295" d="M107.39,63.84c-2.14.09-3.83-.41-4-3-.08-2.13-.19-4.29,3-4C105.57,59.37,106.45,61.61,107.39,63.84Z"/><path class="cls-296" d="M74.59,54.89a2.05,2.05,0,0,1-2-1l5-4c4,.13,5.53,3.66,8,5.94a3.5,3.5,0,0,1-.79,1.08c-2.23,1.47-2.44,4.9-5.43,5.66a4.37,4.37,0,0,1-3.4-.24C74.52,60,77.19,57,74.59,54.89Z"/><path class="cls-297" d="M84.53,55.89q.5,0,1,0l1-1,3-1A1.47,1.47,0,0,1,90,55c0,1,.14,2.08.16,3.12-.33,1.42.34,3.08-1,4.25-2.15.76-3.41-.56-4.65-2A5.49,5.49,0,0,1,84.53,55.89Z"/><path class="cls-223" d="M84.53,45.94h1a8.19,8.19,0,0,1,5-1.12c-1.2,2.29-3.67,3.57-4,6.09C85.17,49.53,85,47.69,84.53,45.94Z"/><path class="cls-298" d="M74.59,54.89c3.13.79,3.51,3.48,1,7a1,1,0,0,1-.13,1.42c-2.94,1.35-5.92,2.93-7.82-1.42C71.25,60.83,72.69,57.63,74.59,54.89Z"/><path class="cls-299" d="M67.63,61.85c2.37,2.55,5.24,1.17,8,1-.14,3.32-2.46,3.56-4.91,3.65,1,1.78,1.63,3.68-.15,5.55A3.64,3.64,0,0,1,67,70.67c-1.31-2.55-2.4-5.11-.39-7.83Z"/><path class="cls-300" d="M66.63,62.84c-.5,2.76,1,5.27,1,8,.58,1.12-.25,1.53-1,2l-2-1a8.41,8.41,0,0,1-1-5l-1-1v-2l3-1Z"/><path class="cls-301" d="M103.42,68.81a6.64,6.64,0,0,1,4-1c1.79,1.32-.37,2.65,0,4l-1,1c-2.6,1.12-3.36-.42-3.69-2.56A2.57,2.57,0,0,1,103.42,68.81Z"/><path class="cls-302" d="M107.4,78.75a8.16,8.16,0,0,0-5,1c-1.48-2.34-.66-4,1.49-5.36a1.85,1.85,0,0,1,1.5.39,5.44,5.44,0,0,0,4,2C110.75,79.45,108.41,78.44,107.4,78.75Z"/><path class="cls-303" d="M105.41,74.78h-1c-1.77-.57-4.07.88-5.37-1.44a2.64,2.64,0,0,1,0-1.5c1-1.67,2.37-2.6,4.42-2a2.79,2.79,0,0,0,3,3A2.05,2.05,0,0,1,105.41,74.78Z"/><path class="cls-304" d="M77.57,81.73v2l-3,1c-.48-2.8-4.88-3.37-4-7a4.32,4.32,0,0,1,3.75-1.41,3.45,3.45,0,0,1,1.69,1.14C76.76,78.83,78.23,79.9,77.57,81.73Z"/><path class="cls-305" d="M74.59,76.76a6.72,6.72,0,0,1-4,1c-2-1.11-1.74-4.05-4-5l1-2,3,1c1.86.73,2.69,2.59,4.13,3.78A1.27,1.27,0,0,1,74.59,76.76Z"/><path class="cls-306" d="M94.47,86.71c-3-1.59-4.11,3.16-7,2-.53-3.12-4-4.12-5-7l.59-.31c3.77.16,7.26-1.53,11-1.68a9.51,9.51,0,0,1,2.6-.78,2.58,2.58,0,0,1,2.75,1.77Z"/><path class="cls-307" d="M77.57,81.73c-.56-1.37-2.13-2.25-2-4-.63-1.4-1.1-2.8.24-4.09,2.89,2.15,7.12,3.18,6.73,8.08h0C80.88,81.9,79.22,83.13,77.57,81.73Z"/><path class="cls-308" d="M99.44,80.74l-3-1c-1.09-5-.54-6.29,3-7,1.16,1.89,3.81.09,5,2a5.74,5.74,0,0,0-2,5Z"/><path class="cls-309" d="M89.5,57.87c-.26-1-1.59-2,0-3,2-1,3.82-2.36,6.22-1.79,1.87,1.36,4.06,1.25,6.21,1.37l.5.42v6c-.25,1.68.67,3.59-1,5C96.74,64.24,93.26,60.84,89.5,57.87Z"/><path class="cls-310" d="M96.46,47.93c1.36-4.11,4-.75,6-1v1c-.9.89-.29,2.08-.61,3.08-1.36,1.6-3,1.57-4.75.78C96.33,50.59,95.71,49.36,96.46,47.93Z"/><path class="cls-292" d="M101.43,50.92c0-1.1-.18-2.27,1-3-.59,2.32,2.48,4.64,0,7h0C101.35,53.75,100.18,52.63,101.43,50.92Z"/><path class="cls-311" d="M96.46,47.93a6.72,6.72,0,0,1,1,4c.49,1.08-.12,1.6-1,2l-7,1v-1c3.53-1,3.37-5.16,6-7Z"/><path class="cls-312" d="M89.5,57.87c2,.33,10,5.63,11.93,8a3,3,0,0,0,2,3v1l-4,2c-3.91,1.07-5.32-1.67-6.73-4.4C92.18,65.23,90,64,89.5,61.85A3.24,3.24,0,0,1,89.5,57.87Z"/><path class="cls-313" d="M84.53,55.89a3.24,3.24,0,0,1,0,4,5.18,5.18,0,0,1-.74,6.31A11.62,11.62,0,0,1,80.73,68a4.5,4.5,0,0,1-5.46-1.06c-.73-3.51,2.13-4,4.28-5.06C81.86,60.41,81.19,56.47,84.53,55.89Z"/><path class="cls-314" d="M79.55,61.85c-1.34,1.64-4,2.23-4,5a3.89,3.89,0,0,1-.7,1.88c-2,2.28.46,4.74-.28,7.07-2.63,0-3-2.29-4-4-.11-2.13.77-4.64-3.87-5.81,4.22-.56,7.37,0,8.84-3.13v-1Z"/><path class="cls-315" d="M83.53,65.83q.51-3,1-6c1.89.07,2.78,2.65,5,2,1.85,1.24,3.74,2.45,4,5C86.75,70.34,85.72,70.24,83.53,65.83Z"/><path class="cls-316" d="M83.53,65.83c2.87,4.77,6.71-.14,10,1,1.2,2.6,3,4.55,6,5v1c-3.45,1.26-1.56,4.82-3,7l-2,1a10,10,0,0,1-7-4.47c-1-1.46-2.05-2.47-4-2-2.32.62-3.55-.71-4.63-2.6-1.41-2.47.79-3.42,1.77-4.9Z"/><path class="cls-317" d="M74.59,75.77c-.91-2.65-4.09-5.3,0-8,1.31,1.78,3,3.41,2,6-1.45,1-.85,2.6-1,4l-1-1Z"/><path class="cls-318" d="M76.57,73.78c-.53-2-2.75-3.5-2-6l1-1c1.66.16,3.32,1.4,5,0-.63,1.89-1.9,3.62-.12,5.74s2.77.71,4.15-.14c1.19-.72,1.87.13,2.28,1,1.55,3.48,4.88,5,7.61,7.27-4-.12-7.73,3.24-11.92,1C82.44,77.67,76.42,78,76.57,73.78Z"/><path class="cls-319" d="M96.46,53.9c.33-.67.66-1.33,1-2l4-1,1,4C100.42,54.65,97.82,58,96.46,53.9Z"/><text class="cls-320" transform="translate(37.08 92.97)">toiro</text></g></g></svg>