<svg xmlns="http://www.w3.org/2000/svg" viewBox="0 0 55.38 19.01"><defs><style>.cls-1{stroke:#111010;stroke-miterlimit:10;stroke-width:0.25px;}</style></defs><title>アセット 9</title><g id="レイヤー_2" data-name="レイヤー 2"><g id="レイヤー_2-2" data-name="レイヤー 2"><path class="cls-1" d="M.66,18.88.12,18.6v-.28a4.31,4.31,0,0,0,2.52-1.5l1.2-1.51A10.33,10.33,0,0,0,5,11.45H4.38l-.26.08-1.2-.08V11l.36-1.41a14,14,0,0,1-.47-2.71A19.23,19.23,0,0,1,2.81,4l.11-.3-.11-.92.11-1.14L2.64,1,3.09.23,3.37.14l.3.39A18.15,18.15,0,0,1,7,.62C8,.75,9.13.87,10.24,1L11,.92A1.68,1.68,0,0,1,11.17,2l-.11.75.11.28c0,.57-.07,1.14-.11,1.72l.11.45a25.33,25.33,0,0,0,.19,5.84l-.3.64h-.28L10.5,7.79H10L9.49,8a1.12,1.12,0,0,0-.92-.18l-1.66.28a14.63,14.63,0,0,0-3.24-.19v.94l.26,1.77a6.83,6.83,0,0,0,2.12.21l1.49-.21,2.6.28a6.14,6.14,0,0,1-1.31.77,3.87,3.87,0,0,0-.26,1.95l.54,2.11,1.67,1.48.75.11,1.4-.75.92-1.23v.39L13,17.29l-.75.39L11.06,18l-.92-.47-.28-.28-.17-.47-.39-.2-.84-.53a11.59,11.59,0,0,1-.45-4l.09-.28-.2-.38-.47-.2-.45.2-1.2-.09a31.57,31.57,0,0,1-.89,3.1,7.61,7.61,0,0,1-1.61,2.72l-1.5,1.36ZM10.33,4A7.13,7.13,0,0,0,10.61,2a13.06,13.06,0,0,0-2-.47l-.36.08-.58-.08-.28.08A11.13,11.13,0,0,1,5.24,1.2a5.92,5.92,0,0,1-1.78.28c-.06.68-.09,1.37-.09,2.06l.19.56h.75l3.12-.28A7.07,7.07,0,0,0,10.33,4ZM10.5,7.3l.22-.75-.11-.73.11-.76-.11-.38-.75.11-1.4-.11-.28.11-.47-.22c-1.1.07-2.21.11-3.33.11l-1,.38V6.2L3.56,7a20.38,20.38,0,0,0,3.87.21l.92-.1Z"/><path class="cls-1" d="M20,12.26a8.27,8.27,0,0,1-.48-2.79l0-.54.08-.38-.19-.89a13.59,13.59,0,0,1,.94-3.48l.52-.08.26.73a8.91,8.91,0,0,0-.78,2,11,11,0,0,0-.23,2.23,12.28,12.28,0,0,0,.23,2.3,19,19,0,0,0,.69,2.28A5.68,5.68,0,0,1,20,12.26Zm8.18.09a5.18,5.18,0,0,1-3.26-1.51l-.11-.28.47-.1a4.19,4.19,0,0,0,2.11,1.22,7.29,7.29,0,0,0,1.59.17A7,7,0,0,0,30,11.77a1.15,1.15,0,0,1-1,.51l-.19-.08a.61.61,0,0,1-.43.17Zm-2.7-6.51-.28-.65.68-.08A5.67,5.67,0,0,1,29,6.85h-.43A5.39,5.39,0,0,0,25.46,5.84Z"/><path class="cls-1" d="M34.24,13.1l-.38-.3A7.7,7.7,0,0,1,32.8,10a21.62,21.62,0,0,1-.3-2.51,4.77,4.77,0,0,1,.58-2.34L33.43,5l.34.53a6.24,6.24,0,0,0-.67,2.88,6.59,6.59,0,0,0,0,.91,7.26,7.26,0,0,0,1.46,3.45l.9.82c-.24,0-.4.07-.47.07A.83.83,0,0,1,34.24,13.1Zm7.93-4.94a17.13,17.13,0,0,0-1.05-1.91l-.67-.35-.06-.51L40.82,5,42,6.1A11.32,11.32,0,0,1,43.09,9l.15.34-.43,1A9,9,0,0,0,42.17,8.16Z"/><path class="cls-1" d="M51.09,13.83c-.81-.64-1.87-1.51-3.18-2.6l-.26-.32c-.82-.67-1.41-1.17-1.78-1.48l-.09-.37a29.61,29.61,0,0,0,3.93-2.88c1.25-1.09,2.54-2.1,3.87-3l.17.45c-.77.78-1.44,1.41-2,1.91a.63.63,0,0,1-.6.5,1.73,1.73,0,0,1-.69.47L50,7l-.41.15c-.76.72-1.57,1.42-2.43,2.11v.25c1.1,1,2.34,2,3.72,3.2l3.84,3.18A14.23,14.23,0,0,1,51.09,13.83Z"/></g></g></svg>